<svg xmlns="http://www.w3.org/2000/svg" xmlns:xlink="http://www.w3.org/1999/xlink" viewBox="0 0 512 512" width="512" height="512" style="width: 100%; height: 100%; transform: translate3d(0px, 0px, 0px); content-visibility: visible;" preserveAspectRatio="xMidYMid meet"><defs><clipPath id="__lottie_element_29"><rect width="512" height="512" x="0" y="0"/></clipPath><linearGradient id="__lottie_element_37" spreadMethod="pad" gradientUnits="userSpaceOnUse" x1="-125" y1="195" x2="-77.25" y2="195"><stop offset="0%" stop-color="rgb(146,94,47)"/><stop offset="50%" stop-color="rgb(123,73,31)"/><stop offset="100%" stop-color="rgb(100,52,15)"/></linearGradient><radialGradient id="__lottie_element_38" spreadMethod="pad" gradientUnits="userSpaceOnUse" cx="-15" cy="6" r="257.0610046386719" fx="-15" fy="6"><stop offset="0%" stop-color="rgb(194,124,67)"/><stop offset="50%" stop-color="rgb(151,93,43)"/><stop offset="100%" stop-color="rgb(109,61,18)"/></radialGradient><linearGradient id="__lottie_element_39" spreadMethod="pad" gradientUnits="userSpaceOnUse" x1="123" y1="-36" x2="69.96800231933594" y2="38.02399826049805"><stop offset="0%" stop-color="rgb(184,104,64)" stop-opacity="0.9879999756813049"/><stop offset="50%" stop-color="rgb(169,101,62)" stop-opacity="0.49399998784065247"/><stop offset="100%" stop-color="rgb(153,98,60)" stop-opacity="0"/></linearGradient><radialGradient id="__lottie_element_40" spreadMethod="pad" gradientUnits="userSpaceOnUse" cx="3" cy="64" r="204.0760040283203" fx="3" fy="64"><stop offset="74%" stop-color="rgb(93,47,10)" stop-opacity="0"/><stop offset="87%" stop-color="rgb(91,46,11)" stop-opacity="0.17499999701976776"/><stop offset="100%" stop-color="rgb(88,45,12)" stop-opacity="0.3490000069141388"/></radialGradient><radialGradient id="__lottie_element_41" spreadMethod="pad" gradientUnits="userSpaceOnUse" cx="-122" cy="67" r="119.29099988937378" fx="-122" fy="67"><stop offset="0%" stop-color="rgb(206,152,103)" stop-opacity="0.9879999756813049"/><stop offset="50%" stop-color="rgb(206,150,102)" stop-opacity="0.49399998784065247"/><stop offset="100%" stop-color="rgb(206,149,101)" stop-opacity="0"/></radialGradient><radialGradient id="__lottie_element_42" spreadMethod="pad" gradientUnits="userSpaceOnUse" cx="-16" cy="206" r="36.11800003051758" fx="-16" fy="206"><stop offset="34%" stop-color="rgb(183,122,70)" stop-opacity="0.3490000069141388"/><stop offset="67%" stop-color="rgb(156,98,49)" stop-opacity="0.17499999701976776"/><stop offset="100%" stop-color="rgb(128,74,28)" stop-opacity="0"/></radialGradient><radialGradient id="__lottie_element_43" spreadMethod="pad" gradientUnits="userSpaceOnUse" cx="133" cy="178" r="28.75" fx="133" fy="178"><stop offset="15%" stop-color="rgb(188,128,76)" stop-opacity="0.3490000069141388"/><stop offset="58%" stop-color="rgb(188,130,79)" stop-opacity="0.17499999701976776"/><stop offset="100%" stop-color="rgb(189,131,81)" stop-opacity="0"/></radialGradient><radialGradient id="__lottie_element_44" spreadMethod="pad" gradientUnits="userSpaceOnUse" cx="-52.52899932861328" cy="-175.95599365234375" r="204.80443312505184" fx="-52.52899932861328" fy="-175.95599365234375"><stop offset="41%" stop-color="rgb(130,76,37)" stop-opacity="0"/><stop offset="56%" stop-color="rgb(137,83,43)" stop-opacity="0.5"/><stop offset="70%" stop-color="rgb(145,90,48)" stop-opacity="1"/><stop offset="85%" stop-color="rgb(167,106,57)" stop-opacity="0.5"/><stop offset="99%" stop-color="rgb(188,121,67)" stop-opacity="0"/></radialGradient><linearGradient id="__lottie_element_45" spreadMethod="pad" gradientUnits="userSpaceOnUse" x1="19" y1="-220.91299438476562" x2="24.208999633789062" y2="182.82699584960938"><stop offset="0%" stop-color="rgb(233,200,137)" stop-opacity="0.5490000247955322"/><stop offset="50%" stop-color="rgb(244,201,151)" stop-opacity="0.3240000009536743"/><stop offset="100%" stop-color="rgb(255,202,166)" stop-opacity="0.09799999743700027"/></linearGradient><linearGradient id="__lottie_element_46" spreadMethod="pad" gradientUnits="userSpaceOnUse" x1="-60" y1="-215.07400512695312" x2="-29.466999053955078" y2="225.54200744628906"><stop offset="0%" stop-color="rgb(159,89,48)"/><stop offset="50%" stop-color="rgb(117,65,32)"/><stop offset="100%" stop-color="rgb(75,40,16)"/></linearGradient><radialGradient id="__lottie_element_49" spreadMethod="pad" gradientUnits="userSpaceOnUse" cx="-60.07699966430664" cy="-97.47699737548828" r="122.97950530081957" fx="-60.07699966430664" fy="-97.47699737548828"><stop offset="0%" stop-color="rgb(105,53,17)" stop-opacity="0.9879999756813049"/><stop offset="27%" stop-color="rgb(108,56,19)" stop-opacity="0.9900000095367432"/><stop offset="54%" stop-color="rgb(112,58,22)" stop-opacity="0.9919999837875366"/><stop offset="77%" stop-color="rgb(149,84,36)" stop-opacity="0.9959999918937683"/><stop offset="100%" stop-color="rgb(187,111,51)" stop-opacity="1"/></radialGradient><linearGradient id="__lottie_element_50" spreadMethod="pad" gradientUnits="userSpaceOnUse" x1="-167" y1="-94" x2="35.50199890136719" y2="-148.2550048828125"><stop offset="0%" stop-color="rgb(162,104,62)" stop-opacity="0.9879999756813049"/><stop offset="14%" stop-color="rgb(184,128,83)" stop-opacity="0.7239999771118164"/><stop offset="28%" stop-color="rgb(206,152,103)" stop-opacity="0.45899999141693115"/><stop offset="64%" stop-color="rgb(187,134,90)" stop-opacity="0.2290000021457672"/><stop offset="100%" stop-color="rgb(168,117,76)" stop-opacity="0"/></linearGradient><linearGradient id="__lottie_element_51" spreadMethod="pad" gradientUnits="userSpaceOnUse" x1="-55" y1="-238" x2="-72.7979965209961" y2="-172.3070068359375"><stop offset="0%" stop-color="rgb(233,171,111)" stop-opacity="0.9879999756813049"/><stop offset="50%" stop-color="rgb(193,134,85)" stop-opacity="0.49399998784065247"/><stop offset="100%" stop-color="rgb(153,98,60)" stop-opacity="0"/></linearGradient><radialGradient id="__lottie_element_52" spreadMethod="pad" gradientUnits="userSpaceOnUse" cx="-118" cy="-196" r="93.78000068664551" fx="-118" fy="-196"><stop offset="0%" stop-color="rgb(206,152,103)" stop-opacity="0.9879999756813049"/><stop offset="50%" stop-color="rgb(206,150,102)" stop-opacity="0.49399998784065247"/><stop offset="100%" stop-color="rgb(206,149,101)" stop-opacity="0"/></radialGradient><linearGradient id="__lottie_element_53" spreadMethod="pad" gradientUnits="userSpaceOnUse" x1="19" y1="-220.91299438476562" x2="24.208999633789062" y2="182.82699584960938"><stop offset="0%" stop-color="rgb(233,200,137)" stop-opacity="0.5490000247955322"/><stop offset="50%" stop-color="rgb(244,201,151)" stop-opacity="0.3240000009536743"/><stop offset="100%" stop-color="rgb(255,202,166)" stop-opacity="0.09799999743700027"/></linearGradient><linearGradient id="__lottie_element_54" spreadMethod="pad" gradientUnits="userSpaceOnUse" x1="-60" y1="-215.07400512695312" x2="-29.466999053955078" y2="225.54200744628906"><stop offset="0%" stop-color="rgb(159,89,48)"/><stop offset="50%" stop-color="rgb(117,65,32)"/><stop offset="100%" stop-color="rgb(75,40,16)"/></linearGradient><linearGradient id="__lottie_element_57" spreadMethod="pad" gradientUnits="userSpaceOnUse" x1="-29" y1="-197.4720001220703" x2="-29.25" y2="-167.76800537109375"><stop offset="0%" stop-color="rgb(231,185,127)" stop-opacity="0.9879999756813049"/><stop offset="50%" stop-color="rgb(232,177,126)" stop-opacity="0.49399998784065247"/><stop offset="100%" stop-color="rgb(233,170,126)" stop-opacity="0"/></linearGradient><linearGradient id="__lottie_element_58" spreadMethod="pad" gradientUnits="userSpaceOnUse" x1="-26" y1="-169" x2="-26" y2="-160.39500427246094"><stop offset="0%" stop-color="rgb(255,255,255)" stop-opacity="1"/><stop offset="50%" stop-color="rgb(255,255,255)" stop-opacity="0.5"/><stop offset="100%" stop-color="rgb(255,255,255)" stop-opacity="0"/></linearGradient><linearGradient id="__lottie_element_59" spreadMethod="pad" gradientUnits="userSpaceOnUse" x1="-27" y1="-143" x2="-27" y2="-149.2239990234375"><stop offset="0%" stop-color="rgb(116,51,0)" stop-opacity="1"/><stop offset="50%" stop-color="rgb(142,39,0)" stop-opacity="0.5"/><stop offset="100%" stop-color="rgb(168,27,0)" stop-opacity="0"/></linearGradient><linearGradient id="__lottie_element_63" spreadMethod="pad" gradientUnits="userSpaceOnUse" x1="10" y1="-183.6580047607422" x2="59.97800064086914" y2="-178.6580047607422"><stop offset="0%" stop-color="rgb(231,205,174)" stop-opacity="0.49799999594688416"/><stop offset="50%" stop-color="rgb(194,174,152)" stop-opacity="0.24899999797344208"/><stop offset="100%" stop-color="rgb(156,144,130)" stop-opacity="0"/></linearGradient><radialGradient id="__lottie_element_67" spreadMethod="pad" gradientUnits="userSpaceOnUse" cx="-167" cy="-127" r="37.319000244140625" fx="-167" fy="-127"><stop offset="0%" stop-color="rgb(199,157,120)" stop-opacity="0.9879999756813049"/><stop offset="1%" stop-color="rgb(209,170,134)" stop-opacity="0.9879999756813049"/><stop offset="1%" stop-color="rgb(219,183,149)" stop-opacity="0.9879999756813049"/><stop offset="33%" stop-color="rgb(213,174,136)" stop-opacity="0.9940000176429749"/><stop offset="65%" stop-color="rgb(208,166,124)" stop-opacity="1"/><stop offset="83%" stop-color="rgb(194,147,105)" stop-opacity="1"/><stop offset="100%" stop-color="rgb(180,128,85)" stop-opacity="1"/></radialGradient><linearGradient id="__lottie_element_68" spreadMethod="pad" gradientUnits="userSpaceOnUse" x1="-179" y1="-436.7760009765625" x2="-169.90699768066406" y2="-420.6830139160156"><stop offset="0%" stop-color="rgb(252,214,178)" stop-opacity="0.9879999756813049"/><stop offset="50%" stop-color="rgb(245,209,175)" stop-opacity="0.49399998784065247"/><stop offset="100%" stop-color="rgb(238,204,172)" stop-opacity="0"/></linearGradient><radialGradient id="__lottie_element_69" spreadMethod="pad" gradientUnits="userSpaceOnUse" cx="-190" cy="-145" r="5.1880035400390625" fx="-190" fy="-145"><stop offset="0%" stop-color="rgb(140,82,39)" stop-opacity="0.9879999756813049"/><stop offset="15%" stop-color="rgb(135,80,39)" stop-opacity="0.9879999756813049"/><stop offset="30%" stop-color="rgb(131,78,39)" stop-opacity="0.9879999756813049"/><stop offset="42%" stop-color="rgb(123,76,43)" stop-opacity="0.9900000095367432"/><stop offset="55%" stop-color="rgb(116,74,47)" stop-opacity="0.9919999837875366"/></radialGradient><linearGradient id="__lottie_element_70" spreadMethod="pad" gradientUnits="userSpaceOnUse" x1="-163.5" y1="-80.05000305175781" x2="-171.5" y2="-151.6750030517578"><stop offset="28%" stop-color="rgb(134,79,38)" stop-opacity="0.9879999756813049"/><stop offset="64%" stop-color="rgb(129,78,40)" stop-opacity="0.49399998784065247"/><stop offset="100%" stop-color="rgb(124,76,41)" stop-opacity="0"/></linearGradient><linearGradient id="__lottie_element_71" spreadMethod="pad" gradientUnits="userSpaceOnUse" x1="-200" y1="-124.6520004272461" x2="-108.43299865722656" y2="-122.54399871826172"><stop offset="0%" stop-color="rgb(153,85,46)" stop-opacity="0.9879999756813049"/><stop offset="17%" stop-color="rgb(147,92,58)" stop-opacity="0.9940000176429749"/><stop offset="34%" stop-color="rgb(142,98,70)" stop-opacity="1"/><stop offset="67%" stop-color="rgb(131,88,57)" stop-opacity="1"/><stop offset="100%" stop-color="rgb(119,79,44)" stop-opacity="1"/></linearGradient><radialGradient id="__lottie_element_72" spreadMethod="pad" gradientUnits="userSpaceOnUse" cx="-151" cy="-168" r="37.433998107910156" fx="-151" fy="-168"><stop offset="0%" stop-color="rgb(245,214,184)" stop-opacity="0.9879999756813049"/><stop offset="50%" stop-color="rgb(238,207,179)" stop-opacity="0.49399998784065247"/><stop offset="100%" stop-color="rgb(231,200,174)" stop-opacity="0"/></radialGradient><linearGradient id="__lottie_element_73" spreadMethod="pad" gradientUnits="userSpaceOnUse" x1="-142" y1="-433.4259948730469" x2="-138.8990020751953" y2="-417.6940002441406"><stop offset="0%" stop-color="rgb(252,214,178)" stop-opacity="0.9879999756813049"/><stop offset="50%" stop-color="rgb(245,209,175)" stop-opacity="0.49399998784065247"/><stop offset="100%" stop-color="rgb(238,204,172)" stop-opacity="0"/></linearGradient><radialGradient id="__lottie_element_74" spreadMethod="pad" gradientUnits="userSpaceOnUse" cx="-157" cy="-145" r="7.5529937744140625" fx="-157" fy="-145"><stop offset="0%" stop-color="rgb(140,82,39)" stop-opacity="0.9879999756813049"/><stop offset="15%" stop-color="rgb(135,80,39)" stop-opacity="0.9879999756813049"/><stop offset="30%" stop-color="rgb(131,78,39)" stop-opacity="0.9879999756813049"/><stop offset="42%" stop-color="rgb(123,76,43)" stop-opacity="0.9900000095367432"/><stop offset="55%" stop-color="rgb(116,74,47)" stop-opacity="0.9919999837875366"/></radialGradient><linearGradient id="__lottie_element_75" spreadMethod="pad" gradientUnits="userSpaceOnUse" x1="-165.375" y1="-69.65799713134766" x2="-164" y2="-86.8499984741211"><stop offset="0%" stop-color="rgb(53,27,11)" stop-opacity="0.9879999756813049"/><stop offset="50%" stop-color="rgb(52,26,9)" stop-opacity="0.5979999899864197"/><stop offset="100%" stop-color="rgb(51,25,7)" stop-opacity="0.20800000429153442"/></linearGradient><radialGradient id="__lottie_element_76" spreadMethod="pad" gradientUnits="userSpaceOnUse" cx="-173" cy="-140" r="34.50599670410156" fx="-173" fy="-140"><stop offset="0%" stop-color="rgb(133,91,57)" stop-opacity="0.9879999756813049"/><stop offset="50%" stop-color="rgb(130,87,55)" stop-opacity="0.49399998784065247"/><stop offset="100%" stop-color="rgb(126,84,52)" stop-opacity="0"/></radialGradient><linearGradient id="__lottie_element_95" spreadMethod="pad" gradientUnits="userSpaceOnUse" x1="-14" y1="-198.55999755859375" x2="-2.7699999809265137" y2="-188.00999450683594"><stop offset="0%" stop-color="rgb(121,52,0)" stop-opacity="0"/><stop offset="18%" stop-color="rgb(121,51,0)" stop-opacity="0.11999999731779099"/><stop offset="36%" stop-color="rgb(121,50,0)" stop-opacity="0.23899999260902405"/><stop offset="68%" stop-color="rgb(105,44,0)" stop-opacity="0.11999999731779099"/><stop offset="100%" stop-color="rgb(88,37,0)" stop-opacity="0"/></linearGradient><linearGradient id="__lottie_element_99" spreadMethod="pad" gradientUnits="userSpaceOnUse" x1="-29" y1="-81.375" x2="-27.399999618530273" y2="-67.1500015258789"><stop offset="0%" stop-color="rgb(229,163,113)" stop-opacity="0"/><stop offset="18%" stop-color="rgb(229,163,113)" stop-opacity="0.11999999731779099"/><stop offset="36%" stop-color="rgb(229,163,113)" stop-opacity="0.23899999260902405"/><stop offset="68%" stop-color="rgb(225,167,121)" stop-opacity="0.2240000069141388"/><stop offset="100%" stop-color="rgb(222,170,130)" stop-opacity="0.20800000429153442"/></linearGradient><linearGradient id="__lottie_element_139" spreadMethod="pad" gradientUnits="userSpaceOnUse" x1="-63.00299835205078" y1="-233.52200317382812" x2="-72.63600158691406" y2="-203.62100219726562"><stop offset="0%" stop-color="rgb(231,205,174)" stop-opacity="0.49799999594688416"/><stop offset="50%" stop-color="rgb(194,174,152)" stop-opacity="0.24899999797344208"/><stop offset="100%" stop-color="rgb(156,144,130)" stop-opacity="0"/></linearGradient></defs><g clip-path="url(#__lottie_element_29)"><g style="display: block;" transform="matrix(1,0,0,1,262,270)" opacity="1"><g opacity="1" transform="matrix(1,0,0,1,0,0)"><g opacity="1" transform="matrix(1,0,0,1,0,0)"><g opacity="1" transform="matrix(1,0,0,1,0,0)"><path fill="rgb(100,88,78)" fill-opacity="1" d=" M-66.35700225830078,-241.70399475097656 C-72.51200103759766,-238.9499969482422 -77.96199798583984,-232.85000610351562 -82.5250015258789,-225.64199829101562 C-88.07599639892578,-216.87399291992188 -92.31500244140625,-206.46499633789062 -94.91600036621094,-198.43800354003906 C-78.97799682617188,-195.1540069580078 -70.06500244140625,-192.7209930419922 -59.75600051879883,-182.23699951171875 C-53.632999420166016,-190.80099487304688 -47.027000427246094,-208.54800415039062 -46.029998779296875,-222.73199462890625 C-45.0260009765625,-237.0290069580078 -49.72100067138672,-247.7050018310547 -66.35700225830078,-241.70399475097656z"/></g></g><g opacity="1" transform="matrix(1,0,0,1,0,0)"><path stroke="url(#__lottie_element_139)" stroke-linecap="round" stroke-linejoin="round" fill-opacity="0" stroke-opacity="1" stroke-width="8" d=" M-86.55000305175781,-197.79800415039062 C-84.33699798583984,-204.79800415039062 -80.59500122070312,-213.9199981689453 -75.68099975585938,-221.41900634765625 C-71.96900177001953,-227.08299255371094 -67.58799743652344,-231.8209991455078 -62.691001892089844,-234.02000427246094 C-55.481998443603516,-237.68800354003906 -49.270999908447266,-235.25799560546875 -46.691001892089844,-228.53500366210938" fill="none"/></g><g opacity="1" transform="matrix(1,0,0,1,0,0)"><path stroke-linecap="round" stroke-linejoin="round" fill-opacity="0" stroke="rgb(58,49,43)" stroke-opacity="1" stroke-width="8" d=" M-58.47999954223633,-184.01600646972656 C-58.65599822998047,-183.76400756835938 -59.4109992980957,-182.17799377441406 -59.77899932861328,-182.16799926757812 C-70.11499786376953,-192.6649932861328 -78.97200012207031,-195.0709991455078 -94.93800354003906,-198.3679962158203 C-90.59400177001953,-212.78599548339844 -84.8219985961914,-223.57699584960938 -78.76499938964844,-230.9770050048828 C-70.36199951171875,-241.24200439453125 -61.40800094604492,-244.97999572753906 -54.95100021362305,-242.81900024414062 C-48.76499938964844,-240.74899291992188 -44.87099838256836,-233.26600646972656 -45.944000244140625,-220.92100524902344 C-46.77000045776367,-211.41700744628906 -50.54100036621094,-199.031005859375 -58.47999954223633,-184.01600646972656z" fill="none"/></g></g></g><g style="display: block;" transform="matrix(1,0,0,1,262,270)" opacity="1"><g opacity="1" transform="matrix(1,0,0,1,0,0)"><path fill="url(#__lottie_element_37)" fill-opacity="1" d=" M-113.6500015258789,206.14999389648438 C-107.31099700927734,225.71600341796875 -83.37799835205078,213.68600463867188 -76.25,198.14999389648438 C-93.12799835205078,192.91200256347656 -109.73600006103516,184.1719970703125 -124,172.5500030517578 C-121.55699920654297,183.40499877929688 -115.04299926757812,198.3509979248047 -113.6500015258789,206.14999389648438z"/></g><g opacity="1" transform="matrix(1,0,0,1,0,0)"><path fill="url(#__lottie_element_38)" fill-opacity="1" d=" M144.39999389648438,197.8000030517578 C156.48599243164062,186.01800537109375 148.5019989013672,170.31900024414062 147.10000610351562,155.14999389648438 C179.9499969482422,104.18699645996094 190.56399536132812,2.1600000858306885 114.14900207519531,-17.448999404907227 C90.53900146484375,-25.134000778198242 46.81399917602539,-22.95199966430664 34.29999923706055,-42.45000076293945 C39.507999420166016,-89.16000366210938 9.802000045776367,-101.4489974975586 -29.597999572753906,-135.9499969482422 C-75.90599822998047,-175.9199981689453 -23.611000061035156,-175.31700134277344 -73.0999984741211,-139.64999389648438 C-110.8030014038086,-122.42400360107422 -123.27100372314453,-76.02300262451172 -93.91799926757812,-87.85600280761719 C-91.28500366210938,-81.35600280761719 -142.52999877929688,-72.42400360107422 -148.1999969482422,-41.900001525878906 C-163.2899932861328,8.098999977111816 -170.69900512695312,66.47200012207031 -157.89199829101562,113.87799835205078 C-145.01100158691406,161.5570068359375 -111.68099975585938,198.14100646972656 -45.150001525878906,203.9499969482422 C-38.9739990234375,226.21400451660156 -15.222999572753906,241.28399658203125 3.1010000705718994,223.5989990234375 C7.900000095367432,218.83299255371094 15.067000389099121,209.88299560546875 24.600000381469727,196.75 C43.99700164794922,192.6580047607422 62.92399978637695,187.47000122070312 81.8499984741211,181.10000610351562 C94.45899963378906,180.6280059814453 105.08599853515625,186.73699951171875 113.0999984741211,198.10000610351562 C121.41899871826172,206.5500030517578 136.21499633789062,206.42300415039062 144.39999389648438,197.8000030517578z"/></g><g opacity="1" transform="matrix(1,0,0,1,0,0)"><path fill="url(#__lottie_element_39)" fill-opacity="1" d=" M34.29999923706055,-40.150001525878906 C34.33300018310547,-40.28300094604492 34.367000579833984,-40.41699981689453 34.400001525878906,-40.54999923706055 C34.400001525878906,-40.54999923706055 -48.900001525878906,-19.25 -48.900001525878906,-19.25 C-48.900001525878906,-19.25 -48.900001525878906,139.75 -48.900001525878906,139.75 C-48.900001525878906,139.75 156.75,139.75 156.75,139.75 C180.45399475097656,88.96099853515625 183.2480010986328,1.7669999599456787 114.14800262451172,-15.14799976348877 C90.54100036621094,-22.825000762939453 46.8129997253418,-20.659000396728516 34.29999923706055,-40.150001525878906z"/></g><g opacity="1" transform="matrix(1,0,0,1,0,0)"><path fill="url(#__lottie_element_40)" fill-opacity="1" d=" M143.0500030517578,-3.0999999046325684 C160.8260040283203,25.451000213623047 121.25499725341797,88.59300231933594 90.9520034790039,109.197998046875 C18.5310001373291,163.01800537109375 -61.736000061035156,155.0030059814453 -148.10000610351562,136.75 C-127.79100036621094,176.04299926757812 -84.03900146484375,201.82899475097656 -45.150001525878906,203.9499969482422 C-38.9739990234375,226.21400451660156 -15.222999572753906,241.28399658203125 3.1010000705718994,223.5989990234375 C7.900000095367432,218.83299255371094 15.067000389099121,209.88299560546875 24.600000381469727,196.75 C44.95199966430664,193.24899291992188 64.54199981689453,185.45399475097656 84.5999984741211,181.09800720214844 C108.36199951171875,181.2830047607422 108.9739990234375,204.23699951171875 128.5989990234375,204.3509979248047 C140.63499450683594,204.65499877929688 151.2550048828125,194.03500366210938 150.9499969482422,182 C151.54400634765625,174.17599487304688 147.73800659179688,164.30999755859375 147.10000610351562,155.14999389648438 C173.71400451660156,113.43099975585938 188.4029998779297,32.01900100708008 143.0500030517578,-3.0999999046325684z"/></g><g opacity="1" transform="matrix(1,0,0,1,0,0)"><path fill="url(#__lottie_element_41)" fill-opacity="1" d=" M-146.1999969482422,-34.599998474121094 C-167.55099487304688,29.718000411987305 -171.7010040283203,78.36799621582031 -158.64999389648438,111.3499984741211 C-131.3070068359375,177.947998046875 -80.1259994506836,227.6719970703125 -31.149999618530273,146.4499969482422 C14.371999740600586,180.32400512695312 22.676000595092773,72.48999786376953 34.053001403808594,41.1510009765625 C40.48899841308594,12.935999870300293 28.038999557495117,-5.697000026702881 -3.299999952316284,-14.75 C-91.322998046875,-77.93699645996094 -138.95599365234375,-84.55400085449219 -146.1999969482422,-34.599998474121094z"/></g><g opacity="1" transform="matrix(1,0,0,1,0,0)"><path fill="url(#__lottie_element_42)" fill-opacity="1" d=" M-30.799999237060547,218.85000610351562 C-7.50600004196167,238.66400146484375 9.050999641418457,217.83900451660156 24.799999237060547,195.5 C3.1089999675750732,164.95799255371094 -19.073999404907227,166.75799560546875 -41.75,200.89999389648438 C-38.81700134277344,208.5 -35.16699981689453,214.48300170898438 -30.799999237060547,218.85000610351562z"/></g><g opacity="1" transform="matrix(1,0,0,1,0,0)"><path fill="url(#__lottie_element_43)" fill-opacity="1" d=" M143.9499969482422,191.60000610351562 C149.18099975585938,187.10000610351562 147.43099975585938,174.3000030517578 138.6999969482422,153.1999969482422 C138,134.0330047607422 122.63300323486328,141.51699829101562 92.5999984741211,175.64999389648438 C114.80799865722656,189.5540008544922 121.08100128173828,211.92100524902344 143.9499969482422,191.60000610351562z"/></g><g opacity="1" transform="matrix(1,0,0,1,0,0)"><path fill="url(#__lottie_element_44)" fill-opacity="1" d=" M97,-17.450000762939453 C73.4749984741211,-20.46500015258789 38.983001708984375,-23.8799991607666 30.451000213623047,-41.45100021362305 C31.375,-52.85900115966797 35.61899948120117,-66.55899810791016 36.75,-78.1500015258789 C36.75,-78.1500015258789 -154.1999969482422,-81.6500015258789 -154.1999969482422,-81.6500015258789 C-127.76300048828125,-27.121999740600586 -147.7030029296875,-56.68600082397461 -155.85000610351562,8.149999618530273 C-153.9320068359375,55.36000061035156 -75.0979995727539,53.57600021362305 -36.99100112915039,48.731998443603516 C-0.703000009059906,44.11899948120117 79.072998046875,23.3799991607666 97,-17.450000762939453z"/></g><g opacity="0.33" transform="matrix(1,0,0,1,0,0)"><path stroke-linecap="round" stroke-linejoin="round" fill-opacity="0" stroke-dasharray=" 12" stroke-dashoffset="0" stroke="rgb(100,37,0)" stroke-opacity="1" stroke-width="8" d=" M-91.8499984741211,191.1999969482422 C-133.83599853515625,159.19400024414062 -145.08599853515625,86.11100006103516 -125.5999984741211,-28.049999237060547" fill="none"/></g><g opacity="0.33" transform="matrix(1,0,0,1,0,0)"><path stroke-linecap="round" stroke-linejoin="round" fill-opacity="0" stroke-dasharray=" 15" stroke-dashoffset="0" stroke="rgb(79,19,8)" stroke-opacity="1" stroke-width="8" d=" M-41.75,200.89999389648438 C-17.07699966430664,179.91799926757812 5.039999961853027,178.53500366210938 24.600000381469727,196.75" fill="none"/></g><g opacity="0.33" transform="matrix(1,0,0,1,0,0)"><path stroke-linecap="round" stroke-linejoin="round" fill-opacity="0" stroke-dasharray=" 15" stroke-dashoffset="0" stroke="rgb(79,19,8)" stroke-opacity="1" stroke-width="8" d=" M98.30000305175781,182.8000030517578 C102.33300018310547,165.10899353027344 116.94999694824219,156.27499389648438 142.14999389648438,156.3000030517578" fill="none"/></g><g opacity="1" transform="matrix(1,0,0,1,0,0)"><path stroke="url(#__lottie_element_45)" stroke-linecap="round" stroke-linejoin="round" fill-opacity="0" stroke-opacity="1" stroke-width="8" d=" M-118.69999694824219,174.1999969482422 C-135.6280059814453,157.79400634765625 -145.91700744628906,132.76400756835938 -151.3159942626953,105.09200286865234 C-161.17100524902344,54.584999084472656 -154.73599243164062,-4.7210001945495605 -142.64999389648438,-36.45000076293945 C-142.64999389648438,-36.45000076293945 -128.1999969482422,-77 -128.1999969482422,-77 C-120.33599853515625,-116.2969970703125 -118.21099853515625,-121.59100341796875 -97.0479965209961,-134.9510040283203 C-64.03399658203125,-161.91600036621094 -123.70999908447266,-139.2209930419922 -68.94999694824219,-137.19900512695312 C-14.5,-137.5 41.71500015258789,-121.38300323486328 27.25,-38.400001525878906 C32.78300094604492,-30.566999435424805 44.66699981689453,-24.950000762939453 62.900001525878906,-21.549999237060547 C96.93299865722656,-16.91699981689453 118.41699981689453,-12.083000183105469 127.3499984741211,-7.050000190734863 C182.10299682617188,29.066999435424805 168.0850067138672,101.55599975585938 139.39999389648438,161.60000610351562 C144.71800231933594,172.23699951171875 146.78500366210938,191.92300415039062 132.35000610351562,200" fill="none"/></g><g opacity="1" transform="matrix(1,0,0,1,0,0)"><path stroke="url(#__lottie_element_46)" stroke-linecap="round" stroke-linejoin="round" fill-opacity="0" stroke-opacity="1" stroke-width="8" d=" M-124,172.5500030517578 C-146.25999450683594,157.61599731445312 -157.5709991455078,125.8740005493164 -161.6840057373047,90.3740005493164 C-167.24099731445312,42.41400146484375 -159.66200256347656,-12.404999732971191 -148.1999969482422,-41.900001525878906 C-137.93800354003906,-62.619998931884766 -129.11700439453125,-75.1500015258789 -131.75,-81.6500015258789 C-111,-111 -122.83399963378906,-121.90599822998047 -85.0979995727539,-139.1479949951172 C-35.67100143432617,-174.8159942626953 -90.86799621582031,-163.4290008544922 -44.599998474121094,-123.4530029296875 C-5.181000232696533,-88.90699768066406 39.470001220703125,-89.21499633789062 34.29999923706055,-42.45000076293945 C46.8390007019043,-22.94700050354004 90.52300262451172,-25.128999710083008 114.1510009765625,-17.451000213623047 C190.54200744628906,2.124000072479248 179.9759979248047,104.28099822998047 147.10000610351562,155.14999389648438 C147.73699951171875,164.30999755859375 151.5449981689453,174.17599487304688 150.94900512695312,182 C151.74200439453125,201.0970001220703 126.28199768066406,211.9199981689453 113.0999984741211,198.0989990234375 C105.06999969482422,186.72500610351562 94.54000091552734,180.69400024414062 81.8499984741211,181.10000610351562 C62.849998474121094,187.5 43.766998291015625,192.7169952392578 24.600000381469727,196.75 C15.067000389099121,209.88299560546875 7.900000095367432,218.83299255371094 3.0999999046325684,223.60000610351562 C-4.335999965667725,230.7729949951172 -12.661999702453613,232.5570068359375 -20.3439998626709,230.6580047607422 C-31.60099983215332,227.875 -41.47600173950195,217.1840057373047 -45.150001525878906,203.9499969482422 C-55.882999420166016,203.14999389648438 -66.25,201.2169952392578 -76.25,198.14999389648438 C-83.375,213.68699645996094 -107.31900024414062,225.71499633789062 -113.6510009765625,206.14999389648438 C-115.0479965209961,198.35800170898438 -121.55500030517578,183.39700317382812 -124,172.5500030517578 C-109.73300170898438,184.1739959716797 -93.13099670410156,192.91000366210938 -76.25,198.14999389648438" fill="none"/></g></g><g style="display: block;" transform="matrix(1,0,0,1,262,270)" opacity="1"><g opacity="0.33" transform="matrix(1,0,0,1,0,0)"><path stroke-linecap="round" stroke-linejoin="round" fill-opacity="0" stroke="rgb(255,191,123)" stroke-opacity="1" stroke-width="8" d=" M20.350000381469727,3.5 C22.735000610351562,5.98799991607666 24.542999267578125,10.42199993133545 25.774999618530273,16.799999237060547" fill="none"/></g></g><g style="display: block;" transform="matrix(1,0,0,1,262,270)" opacity="1"><g opacity="0.33" transform="matrix(1,0,0,1,0,0)"><path stroke-linecap="round" stroke-linejoin="round" fill-opacity="0" stroke="rgb(255,191,123)" stroke-opacity="1" stroke-width="8" d=" M-29.649999618530273,30.899999618530273 C-29.58300018310547,33.632999420166016 -29.433000564575195,36.81700134277344 -29.200000762939453,40.45000076293945" fill="none"/></g></g><g style="display: block;" transform="matrix(1,0,0,1,262,270)" opacity="1"><g opacity="0.33" transform="matrix(1,0,0,1,0,0)"><path stroke-linecap="round" stroke-linejoin="round" fill-opacity="0" stroke="rgb(255,191,123)" stroke-opacity="1" stroke-width="8" d=" M3.875,97.80000305175781 C5.520999908447266,104.73899841308594 6.245999813079834,110.13899993896484 6.050000190734863,114" fill="none"/></g></g><g style="display: block;" transform="matrix(1,0,0,1,262,270)" opacity="1"><g opacity="0.33" transform="matrix(1,0,0,1,0,0)"><path stroke-linecap="round" stroke-linejoin="round" fill-opacity="0" stroke="rgb(255,191,123)" stroke-opacity="1" stroke-width="8" d=" M87.7750015258789,52.099998474121094 C90.9010009765625,57.02199935913086 92.50900268554688,60.18899917602539 92.5999984741211,61.599998474121094" fill="none"/></g></g><g style="display: block;" transform="matrix(1,0,0,1,262,270)" opacity="1"><g opacity="0.33" transform="matrix(1,0,0,1,0,0)"><path stroke-linecap="round" stroke-linejoin="round" fill-opacity="0" stroke="rgb(86,23,0)" stroke-opacity="1" stroke-width="8" d=" M57.650001525878906,96.30000305175781 C62.150001525878906,102.86699676513672 64.51699829101562,107.96700286865234 64.75,111.5999984741211" fill="none"/></g></g><g style="display: block;" transform="matrix(1,0,0,1,262,270)" opacity="1"><g opacity="0.33" transform="matrix(1,0,0,1,0,0)"><path stroke-linecap="round" stroke-linejoin="round" fill-opacity="0" stroke="rgb(86,23,0)" stroke-opacity="1" stroke-width="8" d=" M85.94999694824219,2.5 C90.8949966430664,4.810999870300293 94.6449966430664,7.045000076293945 97.19999694824219,9.199999809265137" fill="none"/></g></g><g style="display: block;" transform="matrix(1,0,0,1,262,270)" opacity="1"><g opacity="0.33" transform="matrix(1,0,0,1,0,0)"><path stroke-linecap="round" stroke-linejoin="round" fill-opacity="0" stroke="rgb(255,191,123)" stroke-opacity="1" stroke-width="8" d=" M141.1999969482422,39.75 C142.07400512695312,41.13999938964844 142.83200073242188,42.38999938964844 143.47500610351562,43.5" fill="none"/></g></g><g style="display: block;" transform="matrix(1,0,0,1,262,270)" opacity="1"><g opacity="0.33" transform="matrix(1,0,0,1,0,0)"><path stroke-linecap="round" stroke-linejoin="round" fill-opacity="0" stroke="rgb(86,23,0)" stroke-opacity="1" stroke-width="8" d=" M-84.8499984741211,10.800000190734863 C-84.78299713134766,13.532999992370605 -84.63300323486328,16.716999053955078 -84.4000015258789,20.350000381469727" fill="none"/></g></g><g style="display: block;" transform="matrix(1,0,0,1,262,270)" opacity="1"><g opacity="0.33" transform="matrix(1,0,0,1,0,0)"><path stroke-linecap="round" stroke-linejoin="round" fill-opacity="0" stroke="rgb(86,23,0)" stroke-opacity="1" stroke-width="8" d=" M-102.5,79.80000305175781 C-102.43299865722656,82.53299713134766 -102.28299713134766,85.71700286865234 -102.05000305175781,89.3499984741211" fill="none"/></g></g><g style="display: block;" transform="matrix(1,0,0,1,262,270)" opacity="1"><g opacity="0.33" transform="matrix(1,0,0,1,0,0)"><path stroke-linecap="round" stroke-linejoin="round" fill-opacity="0" stroke="rgb(255,191,123)" stroke-opacity="1" stroke-width="8" d=" M-70.6500015258789,126.4000015258789 C-70.60800170898438,128.12100219726562 -70.53299713134766,130.02099609375 -70.42500305175781,132.10000610351562" fill="none"/></g></g><g style="display: block;" transform="matrix(1,0,0,1,262,270)" opacity="1"><g opacity="1" transform="matrix(1,0,0,1,0,0)"><g opacity="1" transform="matrix(1,0,0,1,0,0)"><g opacity="1" transform="matrix(1,0,0,1,0,0)"><path fill="url(#__lottie_element_49)" fill-opacity="1" d=" M42.400001525878906,-127.19999694824219 C51.83599853515625,-243.60299682617188 -116.46499633789062,-235.38299560546875 -183.8000030517578,-189.1529998779297 C-221.5070037841797,-171.92799377441406 -195.2989959716797,-62.8129997253418 -165.9499969482422,-74.6500015258789 C-161.86900329589844,-68.02400207519531 -157.31900024414062,-57.82400131225586 -152.3000030517578,-44.04999923706055 C-147.2779998779297,-30.277999877929688 -117.22799682617188,-23.361000061035156 -62.150001525878906,-23.299999237060547 C43.85200119018555,-29.41200065612793 35.34299850463867,-52.95800018310547 42.400001525878906,-127.19999694824219z"/></g><g opacity="1" transform="matrix(1,0,0,1,0,0)"><path fill="url(#__lottie_element_50)" fill-opacity="1" d=" M29.399999618530273,-53.20000076293945 C53.26300048828125,-135.0749969482422 52.77799987792969,-217.40699768066406 -58.90299987792969,-219.79800415039062 C-102.01399993896484,-220.9199981689453 -150.76699829101562,-213.88800048828125 -184.50100708007812,-189.15199279785156 C-222.20399475097656,-171.9239959716797 -196.0030059814453,-62.81700134277344 -166.64999389648438,-74.6500015258789 C-157.25,-64.71700286865234 -151.10000610351562,-54.632999420166016 -148.1999969482422,-41.900001525878906 C-147.3249969482422,-14.031999588012695 33,-16.201000213623047 29.399999618530273,-53.20000076293945z"/></g><g opacity="1" transform="matrix(1,0,0,1,0,0)"><path fill="url(#__lottie_element_51)" fill-opacity="1" d=" M41.79999923706055,-128.5 C44.77799987792969,-191.7570037841797 3.11899995803833,-217.12399291992188 -58.900001525878906,-219.8000030517578 C-116.72200012207031,-219.9149932861328 -219.52499389648438,-209.36599731445312 -202.39999389648438,-128.5 C-202.39999389648438,-128.5 41.79999923706055,-128.5 41.79999923706055,-128.5z"/></g><g opacity="1" transform="matrix(1,0,0,1,0,0)"><path fill="url(#__lottie_element_52)" fill-opacity="1" d=" M-38.04999923706055,-164.25 C-30.597999572753906,-174.11900329589844 -26.08099937438965,-190.2689971923828 -24.5,-212.6999969482422 C-80.18099975585938,-224.41099548339844 -133.33099365234375,-216.3280029296875 -183.9499969482422,-188.4499969482422 C-173.52699279785156,-185.73899841308594 -166.593994140625,-181.07200622558594 -163.14999389648438,-174.4499969482422 C-134.84500122070312,-133.33999633789062 -72.28800201416016,-119.98600006103516 -38.04999923706055,-164.25z"/></g></g><g opacity="1" transform="matrix(1,0,0,1,0,0)"><path stroke="url(#__lottie_element_53)" stroke-linecap="round" stroke-linejoin="round" fill-opacity="0" stroke-opacity="1" stroke-width="8" d=" M-142.64999389648438,-36.45000076293945 C-142.64999389648438,-36.45000076293945 -142.7100067138672,-36.57699966430664 -142.7100067138672,-36.57699966430664 C-142.7100067138672,-36.57699966430664 -161.4499969482422,-76.25 -161.4499969482422,-76.25 C-190.32899475097656,-67.35399627685547 -208.21099853515625,-162.09100341796875 -187.04800415039062,-175.4510040283203 C-154.03399658203125,-202.41600036621094 -114.20999908447266,-214.7209930419922 -59.45000076293945,-212.69900512695312 C57.965999603271484,-212.281005859375 41.71500015258789,-121.38300323486328 27.25,-38.400001525878906" fill="none"/></g><g opacity="1" transform="matrix(1,0,0,1,0,0)"><path stroke="url(#__lottie_element_54)" stroke-linecap="round" stroke-linejoin="round" fill-opacity="0" stroke-opacity="1" stroke-width="8" d=" M-149.6999969482422,-40.775001525878906 C-157.76699829101562,-56.108001708984375 -161.61700439453125,-68.1500015258789 -164.25,-74.6500015258789 C-193.57200622558594,-62.82400131225586 -219.83399963378906,-171.906005859375 -182.09800720214844,-189.1479949951172 C-132.67100524902344,-224.8159942626953 -25.368000030517578,-234.4290008544922 20.899999618530273,-194.4530029296875 C60.319000244140625,-159.90699768066406 39.470001220703125,-89.21499633789062 34.29999923706055,-42.45000076293945" fill="none"/></g></g></g><g style="display: block;" transform="matrix(1,0,0,1,262,270)" opacity="1"><g opacity="0.33" transform="matrix(1,0,0,1,0,0)"><path stroke-linecap="round" stroke-linejoin="round" fill-opacity="0" stroke-dasharray=" 13" stroke-dashoffset="0" stroke="rgb(100,37,0)" stroke-opacity="1" stroke-width="8" d=" M-139.52200317382812,-37.87900161743164 C-94.74199676513672,-16.263999938964844 -48.654998779296875,-19.95800018310547 27.665000915527344,-42.63999938964844" fill="none"/></g></g><g style="display: block;" transform="matrix(1,0,0,1,262,270)" opacity="1"><g opacity="1" transform="matrix(1,0,0,1,0,0)"><g opacity="0.33" transform="matrix(1,0,0,1,0,0)"><path stroke-linecap="round" stroke-linejoin="round" fill-opacity="0" stroke="rgb(255,191,123)" stroke-opacity="1" stroke-width="8" d=" M2.0999999046325684,-122.4000015258789 C5.166999816894531,-119.19999694824219 7.2829999923706055,-112.78299713134766 8.449999809265137,-103.1500015258789" fill="none"/></g></g></g><g style="display: block;" transform="matrix(1,0,0,1,262,270)" opacity="1"><g opacity="1" transform="matrix(1,0,0,1,0,0)"><g opacity="1" transform="matrix(1,0,0,1,0,0)"><path stroke="url(#__lottie_element_99)" stroke-linecap="round" stroke-linejoin="round" fill-opacity="0" stroke-opacity="1" stroke-width="8" d=" M-29.200000762939453,-77.4000015258789 C-28.84600067138672,-77.03299713134766 -28.547000885009766,-74.8489990234375 -28.299999237060547,-70.8499984741211" fill="none"/></g></g></g><g style="display: block;" transform="matrix(1,0,0,1,262,270)" opacity="1"><g opacity="1" transform="matrix(1,0,0,1,0,0)"><g opacity="1" transform="matrix(1,0,0,1,0,0)"><path stroke="url(#__lottie_element_95)" stroke-linecap="round" stroke-linejoin="round" fill-opacity="0" stroke-opacity="1" stroke-width="8" d=" M-16.152999877929688,-196.9250030517578 C-8.942999839782715,-196.25399780273438 -4.414000034332275,-192.91000366210938 -2.565000057220459,-186.88900756835938" fill="none"/></g></g></g><g style="display: block;" transform="matrix(1,0,0,1,262,270)" opacity="1"><g opacity="1" transform="matrix(1,0,0,1,0,0)"><g opacity="0.33" transform="matrix(1,0,0,1,0,0)"><path stroke-linecap="round" stroke-linejoin="round" fill-opacity="0" stroke="rgb(255,191,123)" stroke-opacity="1" stroke-width="8" d=" M-66.30000305175781,-117.55000305175781 C-66.23300170898438,-114.81700134277344 -66.08300018310547,-111.63300323486328 -65.8499984741211,-108" fill="none"/></g></g></g><g style="display: block;" transform="matrix(1,0,0,1,262,270)" opacity="1"><g opacity="1" transform="matrix(1,0,0,1,0,0)"><g opacity="0.33" transform="matrix(1,0,0,1,0,0)"><path stroke-linecap="round" stroke-linejoin="round" fill-opacity="0" stroke="rgb(255,191,123)" stroke-opacity="1" stroke-width="8" d=" M-109.19999694824219,-165.85000610351562 C-109.14700317382812,-163.10899353027344 -108.68000030517578,-159.92599487304688 -107.80000305175781,-156.3000030517578" fill="none"/></g></g></g><g style="display: block;" transform="matrix(1,0,0,1,262,270)" opacity="1"><g opacity="1" transform="matrix(1,0,0,1,0,0)"><g opacity="0.33" transform="matrix(1,0,0,1,0,0)"><path stroke-linecap="round" stroke-linejoin="round" fill-opacity="0" stroke="rgb(86,23,0)" stroke-opacity="1" stroke-width="8" d=" M-97.25,-70.69999694824219 C-97.18299865722656,-67.96700286865234 -97.03299713134766,-64.78299713134766 -96.80000305175781,-61.150001525878906" fill="none"/></g></g></g><g style="display: block;" transform="matrix(1,0,0,1,262,270)" opacity="1"><g opacity="1" transform="matrix(1,0,0,1,0,0)"><g opacity="0.33" transform="matrix(1,0,0,1,0,0)"><path stroke-linecap="round" stroke-linejoin="round" fill-opacity="0" stroke-dasharray=" 15" stroke-dashoffset="0" stroke="rgb(100,37,0)" stroke-opacity="1" stroke-width="8" d=" M-152.3000030517578,-181.60000610351562 C-99.10199737548828,-206.4669952392578 -45.73500061035156,-208.9010009765625 7.800000190734863,-188.89999389648438" fill="none"/></g></g></g><g style="display: block;" transform="matrix(1,0,0,1,262,270)" opacity="1"><g opacity="0.33" transform="matrix(1,0,0,1,0,0)"><path fill="rgb(39,17,2)" fill-opacity="1" d=" M13.600000381469727,-148.75 C13.963000297546387,-145.97300720214844 13.996999740600586,-147.05599975585938 13.699999809265137,-152 C15.710000038146973,-139.4669952392578 26.792999267578125,-132.89999389648438 46.95000076293945,-132.3000030517578 C46.95000076293945,-132.3000030517578 46.95000076293945,-157.14999389648438 46.95000076293945,-157.14999389648438 C46.95000076293945,-157.14999389648438 13.399999618530273,-157.14999389648438 13.399999618530273,-157.14999389648438 C13.199999809265137,-153.98300170898438 13.267000198364258,-151.18299865722656 13.600000381469727,-148.75z"/></g></g><g style="display: block;" transform="matrix(1,0,0,1,262,270)" opacity="1"><g opacity="1" transform="matrix(1,0,0,1,0,0)"><g opacity="1" transform="matrix(1,0,0,1,0,0)"><path fill="url(#__lottie_element_67)" fill-opacity="1" d=" M-147.35000610351562,-174.9499969482422 C-162.11700439453125,-187.98300170898438 -175.81700134277344,-190.0500030517578 -188.4499969482422,-181.14999389648438 C-209.14999389648438,-165.9499969482422 -209.23300170898438,-135.64999389648438 -188.6999969482422,-90.25 C-180.16700744628906,-71.41699981689453 -172.25,-69.13300323486328 -164.9499969482422,-83.4000015258789 C-126.37999725341797,-40.67499923706055 -103.22699737548828,-143.97500610351562 -147.35000610351562,-174.9499969482422z"/></g><g opacity="1" transform="matrix(1,0,0,1,0,0)"><g opacity="1" transform="matrix(1,0,0,1,0,0)"><path stroke="url(#__lottie_element_68)" stroke-linecap="round" stroke-linejoin="round" fill-opacity="0" stroke-opacity="1" stroke-width="8" d=" M-184.4499969482422,-143.0500030517578 C-186.39599609375,-136.4770050048828 -193.93499755859375,-133.12100219726562 -194.0500030517578,-142.25100708007812 C-194.375,-146.92300415039062 -190.96200561523438,-158.4340057373047 -184.9499969482422,-155.7010040283203 C-181.9770050048828,-153.0189971923828 -182.96099853515625,-146.8730010986328 -184.4499969482422,-143.0500030517578z" fill="none"/></g><g opacity="1" transform="matrix(1,0,0,1,0,0)"><path fill="url(#__lottie_element_69)" fill-opacity="1" d=" M-184.60000610351562,-149.9499969482422 C-188.66299438476562,-164.9429931640625 -198.73599243164062,-140.89300537109375 -191.74899291992188,-136.60000610351562 C-185.94400024414062,-134.71299743652344 -183.8730010986328,-145.67999267578125 -184.60000610351562,-149.9499969482422z"/></g></g><g opacity="1" transform="matrix(1,0,0,1,0,0)"><path stroke="url(#__lottie_element_70)" stroke-linecap="round" stroke-linejoin="round" fill-opacity="0" stroke-opacity="1" stroke-width="8" d=" M-163.6999969482422,-81.0999984741211 C-171.0780029296875,-104.71299743652344 -174.01100158691406,-129.16299438476562 -172.5,-154.4499969482422" fill="none"/></g><g opacity="1" transform="matrix(1,0,0,1,0,0)"><path stroke="url(#__lottie_element_71)" stroke-linecap="round" stroke-linejoin="round" fill-opacity="0" stroke-opacity="1" stroke-width="8" d=" M-179.08399963378906,-77.87200164794922 C-226.28399658203125,-153.8719940185547 -190.59800720214844,-180.4080047607422 -189.79400634765625,-180.89999389648438 C-158.7729949951172,-199.8679962158203 -124.52799987792969,-157.5709991455078 -123.95099639892578,-127.80000305175781 C-121.02200317382812,-101.81199645996094 -135.94400024414062,-51.39400100708008 -165.64999389648438,-83.25 C-167.62100219726562,-79.39900207519531 -169.63800048828125,-76.75700378417969 -171.6999969482422,-75.32499694824219" fill="none"/></g><g opacity="1" transform="matrix(1,0,0,1,0,0)"><path fill="url(#__lottie_element_72)" fill-opacity="1" d=" M-134.74000549316406,-117.34600067138672 C-130.82899475097656,-135.64999389648438 -135.55299377441406,-155.60800170898438 -150.94500732421875,-168.46400451660156 C-160.60499572753906,-176.99099731445312 -169.63099670410156,-178.95799255371094 -178.0240020751953,-174.36700439453125 C-155.78700256347656,-165.20700073242188 -137.69500732421875,-140.3260040283203 -134.74000549316406,-117.34600067138672z"/></g><g opacity="1" transform="matrix(1,0,0,1,0,0)"><g opacity="1" transform="matrix(1,0,0,1,0,0)"><path stroke="url(#__lottie_element_73)" stroke-linecap="round" stroke-linejoin="round" fill-opacity="0" stroke-opacity="1" stroke-width="8" d=" M-150.0500030517578,-145.6999969482422 C-147.94200134277344,-139.0050048828125 -154.3800048828125,-133.00999450683594 -159.4499969482422,-139.25100708007812 C-163.31500244140625,-142.98800659179688 -165.24600219726562,-154.0399932861328 -158.14999389648438,-154.8000030517578 C-154.05499267578125,-154.71400451660156 -150.79299926757812,-149.7220001220703 -150.0500030517578,-145.6999969482422z" fill="none"/></g><g opacity="1" transform="matrix(1,0,0,1,0,0)"><path fill="url(#__lottie_element_74)" fill-opacity="1" d=" M-150.6750030517578,-145.58099365234375 C-151.42100524902344,-149.64100646972656 -154.6699981689453,-154.61399841308594 -158.8070068359375,-154.68099975585938 C-165.875,-153.91700744628906 -163.90199279785156,-142.90499877929688 -160.11000061035156,-139.14599609375 C-154.99899291992188,-132.8820037841797 -148.64700317382812,-138.89199829101562 -150.6750030517578,-145.58099365234375z"/></g></g><g opacity="1" transform="matrix(1,0,0,1,0,0)"><path stroke="url(#__lottie_element_75)" stroke-linecap="round" stroke-linejoin="round" fill-opacity="0" stroke-opacity="1" stroke-width="8" d=" M-129.47500610351562,-90.55000305175781 C-136.22300720214844,-73.52200317382812 -149.677001953125,-64.60700225830078 -165.64999389648438,-83.25 C-171.41400146484375,-71.8030014038086 -178.3800048828125,-73.37000274658203 -186.5500030517578,-87.94999694824219" fill="none"/></g><g opacity="1" transform="matrix(1,0,0,1,0,0)"><path fill="url(#__lottie_element_76)" fill-opacity="1" d=" M-164.14700317382812,-165.71499633789062 C-171.7050018310547,-178.08200073242188 -182.26499938964844,-176.7220001220703 -186.51300048828125,-162.8730010986328 C-191.08900451660156,-149.6230010986328 -188.24200439453125,-127.07099914550781 -180.47999572753906,-115.40599822998047 C-172.89500427246094,-102.99299621582031 -162.33200073242188,-104.31600189208984 -158.11500549316406,-118.24700164794922 C-153.48599243164062,-131.48699951171875 -156.37100219726562,-154.03399658203125 -164.14700317382812,-165.71499633789062z"/></g></g></g><g style="display: block;" transform="matrix(1,0,0,1,262,270)" opacity="1"><g opacity="1" transform="matrix(1,0,0,1,0,0)"><g opacity="1" transform="matrix(1,0,0,1,0,0)"><g opacity="1" transform="matrix(1,0,0,1,0,0)"><path fill="rgb(100,88,78)" fill-opacity="1" d=" M63.04999923706055,-184.10000610351562 C55.2239990234375,-189.76400756835938 42.176998138427734,-190.74099731445312 29.868000030517578,-189.85800170898438 C23.132999420166016,-189.375 16.618000030517578,-188.3350067138672 11.300000190734863,-187.1999969482422 C16.424999237060547,-171.7550048828125 18.774999618530273,-162.81900024414062 14.850000381469727,-148.64999389648438 C30.770999908447266,-148.25 46.11899948120117,-151.83399963378906 55.70000076293945,-156.25 C69.76000213623047,-162.39300537109375 76.3219985961914,-174.93499755859375 63.04999923706055,-184.10000610351562z"/></g></g><g opacity="1" transform="matrix(1,0,0,1,0,0)"><path stroke="url(#__lottie_element_63)" stroke-linecap="round" stroke-linejoin="round" fill-opacity="0" stroke-opacity="1" stroke-width="8" d=" M15,-179.64999389648438 C21.12700080871582,-181.0030059814453 29.1560001373291,-182.1649932861328 36.94900131225586,-182.1580047607422 C45.15999984741211,-182.1510009765625 53.10900115966797,-180.8459930419922 58.29999923706055,-177.10000610351562 C65.08100128173828,-172.6909942626953 66.08200073242188,-166.0959930419922 61.54999923706055,-160.5" fill="none"/></g><g opacity="1" transform="matrix(1,0,0,1,0,0)"><path stroke-linecap="round" stroke-linejoin="round" fill-opacity="0" stroke="rgb(58,49,43)" stroke-opacity="1" stroke-width="8" d=" M17.100000381469727,-148.4499969482422 C16.79400062561035,-148.4770050048828 15.043000221252441,-148.33599853515625 14.850000381469727,-148.64999389648438 C18.77199935913086,-162.85000610351562 16.42799949645996,-171.7239990234375 11.300000190734863,-187.1999969482422 C25.5939998626709,-190.56100463867188 37.57899856567383,-191.02200317382812 46.91699981689453,-189.61000061035156 C59.85200119018555,-187.6529998779297 67.70600128173828,-182.1009979248047 69.572998046875,-175.677001953125 C71.61100006103516,-168.66700744628906 66.5199966430664,-160.61900329589844 53.125,-155.07699584960938 C44.59000015258789,-151.5449981689453 32.68299865722656,-149.031005859375 17.100000381469727,-148.4499969482422z" fill="none"/></g></g></g><g style="display: block;" transform="matrix(1,0,0,1,262,270)" opacity="1"><g opacity="1" transform="matrix(1,0,0,1,0,0)"><g opacity="1" transform="matrix(1,0,0,1,0,0)"><path stroke="url(#__lottie_element_57)" stroke-linecap="round" stroke-linejoin="round" fill-opacity="0" stroke-opacity="1" stroke-width="8" d=" M-2.6500000953674316,-160.8000030517578 C-2.2170000076293945,-165.78599548339844 -4.869999885559082,-169.6510009765625 -11,-175.0500030517578 C-27.75200080871582,-190.1529998779297 -49.28200149536133,-181.93699645996094 -58.45000076293945,-163.85000610351562" fill="none"/></g><g opacity="1" transform="matrix(1,0,0,1,0,0)"><path fill="rgb(9,8,8)" fill-opacity="1" d=" M-9.75,-169.39999389648438 C-26.308000564575195,-187.74600219726562 -64.36399841308594,-161.50799560546875 -47.250999450683594,-143.44900512695312 C-23.281999588012695,-118.39700317382812 13.263999938964844,-151.09100341796875 -9.75,-169.39999389648438z"/></g><g opacity="1" transform="matrix(1,0,0,1,0,0)"><path stroke-linecap="round" stroke-linejoin="round" fill-opacity="0" stroke="rgb(95,51,12)" stroke-opacity="1" stroke-width="8" d=" M-2.049999952316284,-156 C-4.103000164031982,-168.84800720214844 -15.583000183105469,-175.87600708007812 -27.12299919128418,-175.343994140625 C-35.27799987792969,-174.96800231933594 -43.4640007019043,-170.8159942626953 -48.375,-162.2740020751953 C-60.112998962402344,-146.33399963378906 -37.305999755859375,-132.98699951171875 -24.75,-134.1999969482422 C-14.595999717712402,-134.7740020751953 -2.2909998893737793,-145.7729949951172 -2.049999952316284,-156z" fill="none"/></g><g opacity="1" transform="matrix(1,0,0,1,0,0)"><path fill="url(#__lottie_element_58)" fill-opacity="1" d=" M-26.63800048828125,-157.24600219726562 C-24.474000930786133,-158.2530059814453 -9.517999649047852,-155.96600341796875 -12.866999626159668,-160.9550018310547 C-15.758000373840332,-164.87100219726562 -21.981000900268555,-167.36000061035156 -26.76799964904785,-167.3179931640625 C-39.63199996948242,-166.5449981689453 -44.85499954223633,-154.38600158691406 -26.63800048828125,-157.24600219726562z"/></g><g opacity="1" transform="matrix(1,0,0,1,0,0)"><path fill="url(#__lottie_element_59)" fill-opacity="1" d=" M-14.170999526977539,-150.74899291992188 C-15.619000434875488,-160.0279998779297 -36.89799880981445,-160.1219940185547 -38.25400161743164,-150.75 C-36.85200119018555,-141.29200744628906 -15.645999908447266,-141.39300537109375 -14.170999526977539,-150.74899291992188z"/></g></g></g></g></svg>