<svg xmlns="http://www.w3.org/2000/svg" xmlns:xlink="http://www.w3.org/1999/xlink" viewBox="0 0 512 512" width="512" height="512" style="width: 100%; height: 100%; transform: translate3d(0px, 0px, 0px); content-visibility: visible;" preserveAspectRatio="xMidYMid meet"><defs><clipPath id="__lottie_element_29"><rect width="512" height="512" x="0" y="0"/></clipPath><radialGradient id="__lottie_element_37" spreadMethod="pad" gradientUnits="userSpaceOnUse" cx="-22.763999938964844" cy="-191.41700744628906" r="262.4600363526713" fx="-22.763999938964844" fy="-191.41700744628906"><stop offset="41%" stop-color="rgb(53,63,66)"/><stop offset="71%" stop-color="rgb(38,45,47)"/><stop offset="100%" stop-color="rgb(22,27,28)"/></radialGradient><linearGradient id="__lottie_element_43" spreadMethod="pad" gradientUnits="userSpaceOnUse" x1="-55.54499816894531" y1="104.95800018310547" x2="-41.06399917602539" y2="38.301998138427734"><stop offset="0%" stop-color="rgb(22,27,28)"/><stop offset="50%" stop-color="rgb(37,45,47)"/><stop offset="100%" stop-color="rgb(53,63,66)"/></linearGradient><linearGradient id="__lottie_element_50" spreadMethod="pad" gradientUnits="userSpaceOnUse" x1="-164.35299682617188" y1="219.0399932861328" x2="-209.85499572753906" y2="124.85299682617188"><stop offset="0%" stop-color="rgb(22,27,28)"/><stop offset="50%" stop-color="rgb(29,35,36)"/><stop offset="100%" stop-color="rgb(36,43,45)"/></linearGradient><linearGradient id="__lottie_element_58" spreadMethod="pad" gradientUnits="userSpaceOnUse" x1="31.64699935913086" y1="-101.95999908447266" x2="26.04400062561035" y2="-183.1959991455078"><stop offset="0%" stop-color="rgb(0,0,0)"/><stop offset="22%" stop-color="rgb(27,32,33)"/><stop offset="44%" stop-color="rgb(53,63,66)"/></linearGradient><linearGradient id="__lottie_element_65" spreadMethod="pad" gradientUnits="userSpaceOnUse" x1="-76.35299682617188" y1="-93.95999908447266" x2="-81.95600128173828" y2="-175.1959991455078"><stop offset="0%" stop-color="rgb(0,0,0)"/><stop offset="22%" stop-color="rgb(27,32,33)"/><stop offset="44%" stop-color="rgb(53,63,66)"/></linearGradient><linearGradient id="__lottie_element_83" spreadMethod="pad" gradientUnits="userSpaceOnUse" x1="131.64700317382812" y1="135.0399932861328" x2="170.3000030517578" y2="-1.1670000553131104"><stop offset="0%" stop-color="rgb(28,33,35)"/><stop offset="50%" stop-color="rgb(41,48,50)"/><stop offset="100%" stop-color="rgb(53,63,66)"/></linearGradient></defs><g clip-path="url(#__lottie_element_29)"><g style="display: block;" transform="matrix(0.9955125451087952,0.10377539694309235,-0.10421434789896011,0.9936431050300598,265.577880859375,243.80960083007812)" opacity="1"><g opacity="1" transform="matrix(1,0,0,1,0,0)"><g opacity="1" transform="matrix(1,0,0,1,0,0)"><path fill="url(#__lottie_element_83)" fill-opacity="1" d=" M40.45000076293945,137.25399780273438 C81.93199920654297,133.51699829101562 143.3040008544922,159.20899963378906 175.4429931640625,173.78399658203125 C207.58200073242188,188.35899353027344 214.9564971923828,172.42649841308594 229.57200622558594,101.8489990234375 C241.3280029296875,44.40299987792969 203.04750061035156,49.70899963378906 189.95899963378906,76.43699645996094 C180.7205047607422,95.38349914550781 178.35000610351562,122.67900085449219 178.35000610351562,122.67900085449219 C124.16200256347656,94.2770004272461 50.16699981689453,100.62999725341797 50.16699981689453,100.62999725341797"/><path stroke-linecap="round" stroke-linejoin="round" fill-opacity="0" stroke="rgb(209,214,250)" stroke-opacity="1" stroke-width="7" d=" M40.45000076293945,137.25399780273438 C81.93199920654297,133.51699829101562 143.3040008544922,159.20899963378906 175.4429931640625,173.78399658203125 C207.58200073242188,188.35899353027344 214.9564971923828,172.42649841308594 229.57200622558594,101.8489990234375 C241.3280029296875,44.40299987792969 203.04750061035156,49.70899963378906 189.95899963378906,76.43699645996094 C180.7205047607422,95.38349914550781 178.35000610351562,122.67900085449219 178.35000610351562,122.67900085449219 C124.16200256347656,94.2770004272461 50.16699981689453,100.62999725341797 50.16699981689453,100.62999725341797" fill="none"/><path stroke-linecap="round" stroke-linejoin="round" fill-opacity="0" stroke-dasharray=" 2 7" stroke-dashoffset="0" stroke="rgb(209,214,250)" stroke-opacity="1" stroke-width="10" d=" M40.45000076293945,137.25399780273438 C81.93199920654297,133.51699829101562 143.3040008544922,159.20899963378906 175.4429931640625,173.78399658203125 C207.58200073242188,188.35899353027344 214.9564971923828,172.42649841308594 229.57200622558594,101.8489990234375 C241.3280029296875,44.40299987792969 203.04750061035156,49.70899963378906 189.95899963378906,76.43699645996094 C180.7205047607422,95.38349914550781 178.35000610351562,122.67900085449219 178.35000610351562,122.67900085449219 C124.16200256347656,94.2770004272461 50.16699981689453,100.62999725341797 50.16699981689453,100.62999725341797" fill="none"/></g></g></g><g style="display: block;" transform="matrix(0.9993669390678406,-0.05641365796327591,0.056304704397916794,0.9974541664123535,246.27056884765625,253.5740966796875)" opacity="1"><g opacity="1" transform="matrix(1,0,0,1,0,0)"><path fill="rgb(29,35,37)" fill-opacity="1" d=" M54.09400177001953,-37.25400161743164 C97.44000244140625,-35.5890007019043 136.1090850830078,-18.022842407226562 129.7980499267578,14.660234451293945 C125.90418243408203,34.81190490722656 41.88600158691406,25.24799919128418 41.88600158691406,25.24799919128418"/><path stroke-linecap="round" stroke-linejoin="round" fill-opacity="0" stroke="rgb(209,214,250)" stroke-opacity="1" stroke-width="7" d=" M54.09400177001953,-37.25400161743164 C97.44000244140625,-35.5890007019043 136.1090850830078,-18.022842407226562 129.7980499267578,14.660234451293945 C125.90418243408203,34.81190490722656 41.88600158691406,25.24799919128418 41.88600158691406,25.24799919128418" fill="none"/><path stroke-linecap="round" stroke-linejoin="round" fill-opacity="0" stroke-dasharray=" 2 7" stroke-dashoffset="0" stroke="rgb(209,214,250)" stroke-opacity="1" stroke-width="10" d=" M54.09400177001953,-37.25400161743164 C97.44000244140625,-35.5890007019043 136.1090850830078,-18.022842407226562 129.7980499267578,14.660234451293945 C125.90418243408203,34.81190490722656 41.88600158691406,25.24799919128418 41.88600158691406,25.24799919128418" fill="none"/></g></g><g style="display: block;" transform="matrix(0.9993931651115417,-0.056659627705812454,0.0565466471016407,0.9974003434181213,246.22964477539062,253.57003784179688)" opacity="1"><g opacity="1" transform="matrix(1,0,0,1,0,0)"><path fill="url(#__lottie_element_37)" fill-opacity="1" d=" M-181.0172119140625,-17.17287826538086 C-198.39138793945312,-52.899330139160156 -198.27035522460938,-68.50225067138672 -187.09271240234375,-99.79960632324219 C-180.79397583007812,-117.43730926513672 -176.18240356445312,-125.66959381103516 -178.61013793945312,-141.54872131347656 C-182.5038604736328,-167.01197814941406 -150.36219787597656,-225.01834106445312 -72.9388198852539,-197.49649047851562 C-48.698387145996094,-237.5592041015625 11.95230770111084,-248.9575958251953 42.10716247558594,-208.59866333007812 C71.99859619140625,-168.93655395507812 81.14784240722656,-118.5536880493164 79.60735321044922,-98.40513610839844 C78.54454040527344,-81.83721923828125 71.94609069824219,-57.47032165527344 75.17338562011719,-43.764278411865234 C110.87117004394531,-14.069419860839844 110.27899932861328,63.02799987792969 85.9020004272461,110.56300354003906 C53.05099868774414,174.6219940185547 -101.27400207519531,189.2480010986328 -140.51400756835938,152.25100708007812 C-179.75399780273438,115.25399780273438 -192.5449981689453,94.44107818603516 -187.68699645996094,56.322078704833984 C-182.82899475097656,18.203079223632812 -168.18934631347656,9.2062406539917 -181.0172119140625,-17.17287826538086z"/><path stroke-linecap="round" stroke-linejoin="round" fill-opacity="0" stroke="rgb(209,214,250)" stroke-opacity="1" stroke-width="7" d=" M-181.0172119140625,-17.17287826538086 C-198.39138793945312,-52.899330139160156 -198.27035522460938,-68.50225067138672 -187.09271240234375,-99.79960632324219 C-180.79397583007812,-117.43730926513672 -176.18240356445312,-125.66959381103516 -178.61013793945312,-141.54872131347656 C-182.5038604736328,-167.01197814941406 -150.36219787597656,-225.01834106445312 -72.9388198852539,-197.49649047851562 C-48.698387145996094,-237.5592041015625 11.95230770111084,-248.9575958251953 42.10716247558594,-208.59866333007812 C71.99859619140625,-168.93655395507812 81.14784240722656,-118.5536880493164 79.60735321044922,-98.40513610839844 C78.54454040527344,-81.83721923828125 71.94609069824219,-57.47032165527344 75.17338562011719,-43.764278411865234 C110.87117004394531,-14.069419860839844 110.27899932861328,63.02799987792969 85.9020004272461,110.56300354003906 C53.05099868774414,174.6219940185547 -101.27400207519531,189.2480010986328 -140.51400756835938,152.25100708007812 C-179.75399780273438,115.25399780273438 -192.5449981689453,94.44107818603516 -187.68699645996094,56.322078704833984 C-182.82899475097656,18.203079223632812 -168.18934631347656,9.2062406539917 -181.0172119140625,-17.17287826538086z" fill="none"/><path stroke-linecap="round" stroke-linejoin="round" fill-opacity="0" stroke-dasharray=" 2 7" stroke-dashoffset="0" stroke="rgb(209,214,250)" stroke-opacity="1" stroke-width="10" d=" M-181.0172119140625,-17.17287826538086 C-198.39138793945312,-52.899330139160156 -198.27035522460938,-68.50225067138672 -187.09271240234375,-99.79960632324219 C-180.79397583007812,-117.43730926513672 -176.18240356445312,-125.66959381103516 -178.61013793945312,-141.54872131347656 C-182.5038604736328,-167.01197814941406 -150.36219787597656,-225.01834106445312 -72.9388198852539,-197.49649047851562 C-48.698387145996094,-237.5592041015625 11.95230770111084,-248.9575958251953 42.10716247558594,-208.59866333007812 C71.99859619140625,-168.93655395507812 81.14784240722656,-118.5536880493164 79.60735321044922,-98.40513610839844 C78.54454040527344,-81.83721923828125 71.94609069824219,-57.47032165527344 75.17338562011719,-43.764278411865234 C110.87117004394531,-14.069419860839844 110.27899932861328,63.02799987792969 85.9020004272461,110.56300354003906 C53.05099868774414,174.6219940185547 -101.27400207519531,189.2480010986328 -140.51400756835938,152.25100708007812 C-179.75399780273438,115.25399780273438 -192.5449981689453,94.44107818603516 -187.68699645996094,56.322078704833984 C-182.82899475097656,18.203079223632812 -168.18934631347656,9.2062406539917 -181.0172119140625,-17.17287826538086z" fill="none"/></g><g opacity="0.5" transform="matrix(1,0,0,1,0,0)"><path stroke-linecap="round" stroke-linejoin="round" fill-opacity="0" stroke="rgb(209,214,250)" stroke-opacity="1" stroke-width="5" d=" M-135.43145751953125,135.76913452148438 C-156.177734375,111.22891998291016 -165.53260803222656,70.6602554321289 -156.27960205078125,43.65925598144531 C-147.026611328125,16.658254623413086 -134.33987426757812,-8.419239044189453 -151.36244201660156,-33.85177230834961 C-168.385009765625,-59.2843017578125 -168.30740356445312,-79.57556915283203 -158.2987518310547,-102.9002456665039 C-152.64071655273438,-116.08538055419922 -158.93258666992188,-138.2520751953125 -159.25802612304688,-154.21905517578125 C-159.3709716796875,-159.76080322265625 -156.6511993408203,-169.37669372558594 -151.02597045898438,-178.76223754882812" fill="none"/></g></g><g style="display: block;" transform="matrix(0.9992894530296326,-0.057770706713199615,0.05766456946730614,0.9973764419555664,261.8291931152344,242.66896057128906)" opacity="0.5"><g opacity="0.5" transform="matrix(1,0,0,1,0,0)"><path fill="rgb(0,0,0)" fill-opacity="1" d=" M-131.83432006835938,-109.61407470703125 C-135.29232788085938,-85.40607452392578 -103.74365234375,-57.24917221069336 -64.78365325927734,-63.99217224121094 C-25.823654174804688,-70.73516845703125 -18.18302345275879,-104.840576171875 -29.796024322509766,-131.8125762939453 C-41.40902328491211,-158.78457641601562 -127.33932495117188,-141.08106994628906 -131.83432006835938,-109.61407470703125z"/></g></g><g style="display: block;" transform="matrix(0.9992894530296326,-0.057770706713199615,0.05766456946730614,0.9973764419555664,261.8291931152344,242.66896057128906)" opacity="0.5"><g opacity="0.5" transform="matrix(1,0,0,1,0,0)"><path fill="rgb(0,0,0)" fill-opacity="1" d=" M-10.718999862670898,-135.6439971923828 C-16.71299934387207,-93.68699645996094 32.73500061035156,-78.7020034790039 51.465999603271484,-85.81999969482422 C70.1969985961914,-92.93800354003906 66.99305725097656,-115.23975372314453 58.03801727294922,-139.55360412597656 C49.45793533325195,-162.7925262451172 -8.288000106811523,-152.66299438476562 -10.718999862670898,-135.6439971923828z"/></g></g><g style="display: block;" transform="matrix(0.9992894530296326,-0.057770706713199615,0.05766456946730614,0.9973764419555664,261.8291931152344,242.66896057128906)" opacity="1"><g opacity="0.5" transform="matrix(1,0,0,1,0,0)"><path fill="rgb(0,0,0)" fill-opacity="1" d=" M-124.89299774169922,-29.429000854492188 C-112.19239044189453,8.7887544631958 37.90602111816406,-19.178125381469727 50.91010284423828,-34.095394134521484 C62.49461364746094,-48.01571273803711 57.75639724731445,-54.726158142089844 57.75639724731445,-54.726158142089844 C57.75639724731445,-54.726158142089844 -124.89299774169922,-29.429000854492188 -124.89299774169922,-29.429000854492188z"/></g></g><g style="display: block;" transform="matrix(0.9992894530296326,-0.057770706713199615,0.05766456946730614,0.9973764419555664,261.8291931152344,242.66896057128906)" opacity="1"><g opacity="1" transform="matrix(1,0,0,1,0,0)"><g opacity="1" transform="matrix(1,0,0,1,0,0)"><path fill="rgb(53,63,66)" fill-opacity="1" d=" M-132.66700744628906,-50.29199981689453 C-133.4340057373047,-70.27300262451172 -118.91899871826172,-72.2969970703125 -89.51200103759766,-67.96199798583984 C-55.020999908447266,-62.87799835205078 24.435514450073242,-75.00980377197266 48.783138275146484,-92.67041778564453 C63.448673248291016,-103.42058563232422 72.50794219970703,-87.95792388916016 70.91708374023438,-72.08411407470703 C70.32899475097656,-65.64588928222656 69.13162994384766,-56.0006103515625 54.60916519165039,-47.96425247192383 C37.78314208984375,-38.72589874267578 -39.83000183105469,-17.94300079345703 -106.91899871826172,-24.35700035095215 C-128.05999755859375,-26.378000259399414 -132.3040008544922,-40.840999603271484 -132.66700744628906,-50.29199981689453z"/><path stroke-linecap="round" stroke-linejoin="round" fill-opacity="0" stroke="rgb(209,214,250)" stroke-opacity="1" stroke-width="7" d=" M-132.66700744628906,-50.29199981689453 C-133.4340057373047,-70.27300262451172 -118.91899871826172,-72.2969970703125 -89.51200103759766,-67.96199798583984 C-55.020999908447266,-62.87799835205078 24.435514450073242,-75.00980377197266 48.783138275146484,-92.67041778564453 C63.448673248291016,-103.42058563232422 72.50794219970703,-87.95792388916016 70.91708374023438,-72.08411407470703 C70.32899475097656,-65.64588928222656 69.13162994384766,-56.0006103515625 54.60916519165039,-47.96425247192383 C37.78314208984375,-38.72589874267578 -39.83000183105469,-17.94300079345703 -106.91899871826172,-24.35700035095215 C-128.05999755859375,-26.378000259399414 -132.3040008544922,-40.840999603271484 -132.66700744628906,-50.29199981689453z" fill="none"/><path stroke-linecap="round" stroke-linejoin="round" fill-opacity="0" stroke-dasharray=" 2 7" stroke-dashoffset="0" stroke="rgb(209,214,250)" stroke-opacity="1" stroke-width="10" d=" M-132.66700744628906,-50.29199981689453 C-133.4340057373047,-70.27300262451172 -118.91899871826172,-72.2969970703125 -89.51200103759766,-67.96199798583984 C-55.020999908447266,-62.87799835205078 24.435514450073242,-75.00980377197266 48.783138275146484,-92.67041778564453 C63.448673248291016,-103.42058563232422 72.50794219970703,-87.95792388916016 70.91708374023438,-72.08411407470703 C70.32899475097656,-65.64588928222656 69.13162994384766,-56.0006103515625 54.60916519165039,-47.96425247192383 C37.78314208984375,-38.72589874267578 -39.83000183105469,-17.94300079345703 -106.91899871826172,-24.35700035095215 C-128.05999755859375,-26.378000259399414 -132.3040008544922,-40.840999603271484 -132.66700744628906,-50.29199981689453z" fill="none"/></g><g opacity="1" transform="matrix(1,0,0,1,0,0)"><path stroke-linecap="round" stroke-linejoin="round" fill-opacity="0" stroke="rgb(209,214,250)" stroke-opacity="1" stroke-width="7" d=" M-114.22000122070312,-47.82099914550781 C-77.59300231933594,-38.742000579833984 51.607948303222656,-52.06601333618164 68.369140625,-82.64593505859375" fill="none"/><path stroke-linecap="round" stroke-linejoin="round" fill-opacity="0" stroke-dasharray=" 2 7" stroke-dashoffset="0" stroke="rgb(209,214,250)" stroke-opacity="1" stroke-width="10" d=" M-114.22000122070312,-47.82099914550781 C-77.59300231933594,-38.742000579833984 51.607948303222656,-52.06601333618164 68.369140625,-82.64593505859375" fill="none"/></g><g opacity="1" transform="matrix(1,0,0,1,0,0)"><path stroke-linecap="round" stroke-linejoin="round" fill-opacity="0" stroke-dasharray=" 5 1000" stroke-dashoffset="0" stroke="rgb(209,214,250)" stroke-opacity="1" stroke-width="10" d=" M68.369140625,-82.64593505859375 C51.607948303222656,-52.06601333618164 -77.59300231933594,-38.742000579833984 -114.22000122070312,-47.82099914550781" fill="none"/></g></g></g><g style="display: block;" transform="matrix(0.9992894530296326,-0.057770706713199615,0.05766456946730614,0.9973764419555664,261.8291931152344,242.66896057128906)" opacity="1"><g opacity="1" transform="matrix(1,0,0,1,0,0)"><path fill="url(#__lottie_element_65)" fill-opacity="1" d=" M-130.71771240234375,-121.91899871826172 C-133.6460723876953,-106.10299682617188 -113.97892761230469,-78.19499969482422 -68.59806060791016,-82.68000030517578 C-23.217199325561523,-87.16500091552734 -23.217121124267578,-128.2729949951172 -27.681245803833008,-140.60499572753906 C-32.14537048339844,-152.93699645996094 -50.371219635009766,-170.5019989013672 -76.78178405761719,-165.27000427246094 C-103.19234466552734,-160.03799438476562 -127.74164581298828,-137.98899841308594 -130.71771240234375,-121.91899871826172z"/><path stroke-linecap="round" stroke-linejoin="round" fill-opacity="0" stroke="rgb(209,214,250)" stroke-opacity="1" stroke-width="7" d=" M-130.71771240234375,-121.91899871826172 C-133.6460723876953,-106.10299682617188 -113.97892761230469,-78.19499969482422 -68.59806060791016,-82.68000030517578 C-23.217199325561523,-87.16500091552734 -23.217121124267578,-128.2729949951172 -27.681245803833008,-140.60499572753906 C-32.14537048339844,-152.93699645996094 -50.371219635009766,-170.5019989013672 -76.78178405761719,-165.27000427246094 C-103.19234466552734,-160.03799438476562 -127.74164581298828,-137.98899841308594 -130.71771240234375,-121.91899871826172z" fill="none"/><path stroke-linecap="round" stroke-linejoin="round" fill-opacity="0" stroke-dasharray=" 2 7" stroke-dashoffset="0" stroke="rgb(209,214,250)" stroke-opacity="1" stroke-width="10" d=" M-130.71771240234375,-121.91899871826172 C-133.6460723876953,-106.10299682617188 -113.97892761230469,-78.19499969482422 -68.59806060791016,-82.68000030517578 C-23.217199325561523,-87.16500091552734 -23.217121124267578,-128.2729949951172 -27.681245803833008,-140.60499572753906 C-32.14537048339844,-152.93699645996094 -50.371219635009766,-170.5019989013672 -76.78178405761719,-165.27000427246094 C-103.19234466552734,-160.03799438476562 -127.74164581298828,-137.98899841308594 -130.71771240234375,-121.91899871826172z" fill="none"/></g></g><g style="display: block;" transform="matrix(0.8992604613304138,0.08095820248126984,-0.08097176253795624,0.893866240978241,242.93907165527344,239.22203063964844)" opacity="1"><g opacity="1" transform="matrix(1,0,0,1,0,0)"><path fill="rgb(255,255,255)" fill-opacity="1" d=" M-83.63400268554688,-158.59800720214844 C-102.7249984741211,-158.59800720214844 -118.20099639892578,-143.1219940185547 -118.20099639892578,-124.03099822998047 C-118.20099639892578,-104.94000244140625 -102.7249984741211,-89.46299743652344 -83.63400268554688,-89.46299743652344 C-64.54299926757812,-89.46299743652344 -49.066001892089844,-104.94000244140625 -49.066001892089844,-124.03099822998047 C-49.066001892089844,-143.1219940185547 -64.54299926757812,-158.59800720214844 -83.63400268554688,-158.59800720214844z M-91.927001953125,-113.04000091552734 C-94.59100341796875,-111.50199890136719 -97.99700164794922,-112.41400146484375 -99.53500366210938,-115.0780029296875 C-101.072998046875,-117.74199676513672 -100.16000366210938,-121.14800262451172 -97.49600219726562,-122.68599700927734 C-94.83200073242188,-124.2239990234375 -91.427001953125,-123.31099700927734 -89.88899993896484,-120.64700317382812 C-88.35099792480469,-117.98300170898438 -89.26300048828125,-114.5780029296875 -91.927001953125,-113.04000091552734z M-88.875,-137.02999877929688 C-88.875,-139.91799926757812 -86.53399658203125,-142.25900268554688 -83.64600372314453,-142.25900268554688 C-80.75800323486328,-142.25900268554688 -78.41600036621094,-139.91799926757812 -78.41600036621094,-137.02999877929688 C-78.41600036621094,-134.14199829101562 -80.75800323486328,-131.80099487304688 -83.64600372314453,-131.80099487304688 C-86.53399658203125,-131.80099487304688 -88.875,-134.14199829101562 -88.875,-137.02999877929688z M-68.03600311279297,-115.23999786376953 C-69.48500061035156,-112.73100280761719 -72.69300079345703,-111.87100219726562 -75.2020034790039,-113.31999969482422 C-77.71099853515625,-114.76899719238281 -78.57099914550781,-117.97699737548828 -77.12200164794922,-120.48600006103516 C-75.6729965209961,-122.99500274658203 -72.46499633789062,-123.8550033569336 -69.95600128173828,-122.40599822998047 C-67.4469985961914,-120.95700073242188 -66.58699798583984,-117.7490005493164 -68.03600311279297,-115.23999786376953z"/></g></g><g style="display: block;" transform="matrix(0.9992894530296326,-0.057770706713199615,0.05766456946730614,0.9973764419555664,261.8291931152344,242.66896057128906)" opacity="1"><g opacity="1" transform="matrix(1,0,0,1,0,0)"><path fill="url(#__lottie_element_58)" fill-opacity="1" d=" M-11.494000434875488,-146.32400512695312 C-14.435999870300293,-130.50799560546875 3.3350000381469727,-99.39199829101562 48.67399978637695,-105.96299743652344 C74.45999908447266,-109.69999694824219 74.59983825683594,-142.40628051757812 70.05851745605469,-155.47984313964844 C65.66560363769531,-167.93284606933594 49.422000885009766,-187.4320068359375 29.614999771118164,-184.06900024414062 C2.9519999027252197,-179.54100036621094 -8.503999710083008,-162.3939971923828 -11.494000434875488,-146.32400512695312z"/><path stroke-linecap="round" stroke-linejoin="round" fill-opacity="0" stroke="rgb(209,214,250)" stroke-opacity="1" stroke-width="7" d=" M-11.494000434875488,-146.32400512695312 C-14.435999870300293,-130.50799560546875 3.3350000381469727,-99.39199829101562 48.67399978637695,-105.96299743652344 C74.45999908447266,-109.69999694824219 74.59983825683594,-142.40628051757812 70.05851745605469,-155.47984313964844 C65.66560363769531,-167.93284606933594 49.422000885009766,-187.4320068359375 29.614999771118164,-184.06900024414062 C2.9519999027252197,-179.54100036621094 -8.503999710083008,-162.3939971923828 -11.494000434875488,-146.32400512695312z" fill="none"/><path stroke-linecap="round" stroke-linejoin="round" fill-opacity="0" stroke-dasharray=" 2 7" stroke-dashoffset="0" stroke="rgb(209,214,250)" stroke-opacity="1" stroke-width="10" d=" M-11.494000434875488,-146.32400512695312 C-14.435999870300293,-130.50799560546875 3.3350000381469727,-99.39199829101562 48.67399978637695,-105.96299743652344 C74.45999908447266,-109.69999694824219 74.59983825683594,-142.40628051757812 70.05851745605469,-155.47984313964844 C65.66560363769531,-167.93284606933594 49.422000885009766,-187.4320068359375 29.614999771118164,-184.06900024414062 C2.9519999027252197,-179.54100036621094 -8.503999710083008,-162.3939971923828 -11.494000434875488,-146.32400512695312z" fill="none"/></g></g><g style="display: block;" transform="matrix(0.8992604613304138,0.08095820248126984,-0.08097176253795624,0.893866240978241,361.50830078125,211.69955444335938)" opacity="1"><g opacity="1" transform="matrix(1,0,0,1,0.164000004529953,0.013000000268220901)"><path fill="rgb(255,255,255)" fill-opacity="1" d=" M-86.07611846923828,-155.35723876953125 C-86.74114990234375,-155.25296020507812 -93.4086685180664,-153.52099609375 -94.04527282714844,-153.35140991210938 C-106.28871154785156,-150.08840942382812 -113.11779022216797,-134.94393920898438 -109.42371368408203,-118.3541259765625 C-105.70143127441406,-101.63667297363281 -92.6434555053711,-89.5156478881836 -79.72215270996094,-90.37432861328125 C-79.15476989746094,-90.41206359863281 -72.57057189941406,-92.06951904296875 -72.00396728515625,-92.15827178955078 C-58.54655456542969,-94.26142883300781 -50.78768539428711,-110.11490631103516 -54.67325210571289,-127.5666732788086 C-58.55881881713867,-145.0184326171875 -72.61870574951172,-157.46038818359375 -86.07611846923828,-155.35723876953125z"/></g><g opacity="1" transform="matrix(1,0,0,1,0,0)"><g opacity="1" transform="matrix(1,0,0,1,0,0)"><path fill="rgb(53,63,66)" fill-opacity="1" d=" M-79.16503143310547,-131.9739532470703 C-80.28361511230469,-129.68934631347656 -82.83297729492188,-129.29078674316406 -84.85895538330078,-131.08404541015625 C-86.88494110107422,-132.87728881835938 -87.62166595458984,-136.1835174560547 -86.50308227539062,-138.4681396484375 C-85.3844985961914,-140.75274658203125 -82.83513641357422,-141.15130615234375 -80.80915832519531,-139.35804748535156 C-78.7831802368164,-137.56480407714844 -78.04644775390625,-134.25857543945312 -79.16503143310547,-131.9739532470703z"/></g></g><g opacity="1" transform="matrix(1,0,0,1,0,0)"><g opacity="1" transform="matrix(1,0,0,1,0,0)"><path fill="rgb(53,63,66)" fill-opacity="1" d=" M-70.02083587646484,-124.0047836303711 C-72.30520629882812,-125.16464233398438 -74.61517333984375,-123.90387725830078 -75.1803207397461,-121.18778991699219 C-75.7454605102539,-118.47169494628906 -74.35149383544922,-115.33009338378906 -72.06712341308594,-114.17022705078125 C-69.78275299072266,-113.01036834716797 -67.47278594970703,-114.27113342285156 -66.90763854980469,-116.98722839355469 C-66.34249877929688,-119.70331573486328 -67.73646545410156,-122.84492492675781 -70.02083587646484,-124.0047836303711z"/></g></g><g opacity="1" transform="matrix(1,0,0,1,0,0)"><g opacity="1" transform="matrix(1,0,0,1,0,0)"><path fill="rgb(53,63,66)" fill-opacity="1" d=" M-83.94391632080078,-120.2369384765625 C-85.8713607788086,-122.44985961914062 -88.62905883789062,-122.54911804199219 -90.10231018066406,-120.45824432373047 C-91.57556915283203,-118.36737823486328 -91.20698547363281,-114.87838745117188 -89.27953338623047,-112.66546630859375 C-87.35208892822266,-110.45254516601562 -84.59539794921875,-110.35328674316406 -83.12213897705078,-112.44416046142578 C-81.64888000488281,-114.53502655029297 -82.01646423339844,-118.02400970458984 -83.94391632080078,-120.2369384765625z"/></g></g></g><g style="display: block;" transform="matrix(0.995510995388031,0.10378969460725784,-0.1042286679148674,0.9936416149139404,269.78204345703125,272.40386962890625)" opacity="1"><g opacity="1" transform="matrix(1,0,0,1,0,0)"><g opacity="1" transform="matrix(1,0,0,1,0,0)"><path fill="rgb(22,27,28)" fill-opacity="1" d=" M-151.4149932861328,148.20449829101562 C-159.70399475097656,166.69549560546875 -180.41400146484375,210.75399780273438 -181.23599243164062,218.33999633789062 C-182.05799865722656,225.92599487304688 -141.31199645996094,254.7760009765625 -131.4429931640625,233.16000366210938 C-121.5739974975586,211.54400634765625 -99.54550170898438,174.32749938964844 -96.47250366210938,162.63250732421875 C-85.34950256347656,120.29650115966797 -136.73300170898438,115.45249938964844 -151.4149932861328,148.20449829101562z"/><path stroke-linecap="round" stroke-linejoin="round" fill-opacity="0" stroke="rgb(209,214,250)" stroke-opacity="1" stroke-width="7" d=" M-151.4149932861328,148.20449829101562 C-159.70399475097656,166.69549560546875 -180.41400146484375,210.75399780273438 -181.23599243164062,218.33999633789062 C-182.05799865722656,225.92599487304688 -141.31199645996094,254.7760009765625 -131.4429931640625,233.16000366210938 C-121.5739974975586,211.54400634765625 -99.54550170898438,174.32749938964844 -96.47250366210938,162.63250732421875 C-85.34950256347656,120.29650115966797 -136.73300170898438,115.45249938964844 -151.4149932861328,148.20449829101562z" fill="none"/><path stroke-linecap="round" stroke-linejoin="round" fill-opacity="0" stroke-dasharray=" 2 7" stroke-dashoffset="0" stroke="rgb(209,214,250)" stroke-opacity="1" stroke-width="10" d=" M-151.4149932861328,148.20449829101562 C-159.70399475097656,166.69549560546875 -180.41400146484375,210.75399780273438 -181.23599243164062,218.33999633789062 C-182.05799865722656,225.92599487304688 -141.31199645996094,254.7760009765625 -131.4429931640625,233.16000366210938 C-121.5739974975586,211.54400634765625 -99.54550170898438,174.32749938964844 -96.47250366210938,162.63250732421875 C-85.34950256347656,120.29650115966797 -136.73300170898438,115.45249938964844 -151.4149932861328,148.20449829101562z" fill="none"/></g><g opacity="1" transform="matrix(1,0,0,1,0,0)"><path fill="url(#__lottie_element_50)" fill-opacity="1" d=" M-133.85150146484375,192.281005859375 C-136.81849670410156,183.42950439453125 -141.97500610351562,174.8489990234375 -147.6855010986328,167.64849853515625 C-162.02450561523438,149.79249572753906 -180.8054962158203,137.9355010986328 -197.10800170898438,144.16050720214844 C-219.94200134277344,152.87950134277344 -221.50149536132812,188.8769989013672 -207.09100341796875,212.5644989013672 C-195.0644989013672,231.7449951171875 -176.38600158691406,251.00399780273438 -152.10499572753906,246.6529998779297 C-139.06100463867188,244.3159942626953 -132.44900512695312,236.25999450683594 -130.51199340820312,225.5590057373047"/><path stroke-linecap="round" stroke-linejoin="round" fill-opacity="0" stroke="rgb(209,214,250)" stroke-opacity="1" stroke-width="7" d=" M-133.85150146484375,192.281005859375 C-136.81849670410156,183.42950439453125 -141.97500610351562,174.8489990234375 -147.6855010986328,167.64849853515625 C-162.02450561523438,149.79249572753906 -180.8054962158203,137.9355010986328 -197.10800170898438,144.16050720214844 C-219.94200134277344,152.87950134277344 -221.50149536132812,188.8769989013672 -207.09100341796875,212.5644989013672 C-195.0644989013672,231.7449951171875 -176.38600158691406,251.00399780273438 -152.10499572753906,246.6529998779297 C-139.06100463867188,244.3159942626953 -132.44900512695312,236.25999450683594 -130.51199340820312,225.5590057373047" fill="none"/><path stroke-linecap="round" stroke-linejoin="round" fill-opacity="0" stroke-dasharray=" 2 7" stroke-dashoffset="0" stroke="rgb(209,214,250)" stroke-opacity="1" stroke-width="10" d=" M-133.85150146484375,192.281005859375 C-136.81849670410156,183.42950439453125 -141.97500610351562,174.8489990234375 -147.6855010986328,167.64849853515625 C-162.02450561523438,149.79249572753906 -180.8054962158203,137.9355010986328 -197.10800170898438,144.16050720214844 C-219.94200134277344,152.87950134277344 -221.50149536132812,188.8769989013672 -207.09100341796875,212.5644989013672 C-195.0644989013672,231.7449951171875 -176.38600158691406,251.00399780273438 -152.10499572753906,246.6529998779297 C-139.06100463867188,244.3159942626953 -132.44900512695312,236.25999450683594 -130.51199340820312,225.5590057373047" fill="none"/></g><g opacity="1" transform="matrix(1,0,0,1,0,0)"><path stroke-linecap="round" stroke-linejoin="round" fill-opacity="0" stroke="rgb(209,214,250)" stroke-opacity="1" stroke-width="7" d=" M-202.4770050048828,219.42999267578125 C-190.5019989013672,236.0260009765625 -173.47300720214844,250.48199462890625 -152.10499572753906,246.6529998779297 C-139.06100463867188,244.3159942626953 -132.44900512695312,236.25999450683594 -130.51199340820312,225.5590057373047" fill="none"/><path stroke-linecap="round" stroke-linejoin="round" fill-opacity="0" stroke-dasharray=" 2 7" stroke-dashoffset="0" stroke="rgb(209,214,250)" stroke-opacity="1" stroke-width="10" d=" M-202.4770050048828,219.42999267578125 C-190.5019989013672,236.0260009765625 -173.47300720214844,250.48199462890625 -152.10499572753906,246.6529998779297 C-139.06100463867188,244.3159942626953 -132.44900512695312,236.25999450683594 -130.51199340820312,225.5590057373047" fill="none"/></g><g opacity="1" transform="matrix(1,0,0,1,0,0)"><path stroke-linecap="round" stroke-linejoin="round" fill-opacity="0" stroke="rgb(209,214,250)" stroke-opacity="1" stroke-width="7" d=" M-130.51199340820312,225.5590057373047 C-132.44900512695312,236.25999450683594 -139.06100463867188,244.3159942626953 -152.10499572753906,246.6529998779297 C-176.38600158691406,251.00399780273438 -195.0644989013672,231.7449951171875 -207.09100341796875,212.5644989013672 C-221.50149536132812,188.8769989013672 -219.94200134277344,152.87950134277344 -197.10800170898438,144.16050720214844 C-180.8054962158203,137.9355010986328 -162.02450561523438,149.79249572753906 -147.6855010986328,167.64849853515625 C-141.97500610351562,174.8489990234375 -136.81849670410156,183.42950439453125 -133.85150146484375,192.281005859375" fill="none"/><path stroke-linecap="round" stroke-linejoin="round" fill-opacity="0" stroke-dasharray=" 10 1000" stroke-dashoffset="0" stroke="rgb(209,214,250)" stroke-opacity="1" stroke-width="10" d=" M-130.51199340820312,225.5590057373047 C-132.44900512695312,236.25999450683594 -139.06100463867188,244.3159942626953 -152.10499572753906,246.6529998779297 C-176.38600158691406,251.00399780273438 -195.0644989013672,231.7449951171875 -207.09100341796875,212.5644989013672 C-221.50149536132812,188.8769989013672 -219.94200134277344,152.87950134277344 -197.10800170898438,144.16050720214844 C-180.8054962158203,137.9355010986328 -162.02450561523438,149.79249572753906 -147.6855010986328,167.64849853515625 C-141.97500610351562,174.8489990234375 -136.81849670410156,183.42950439453125 -133.85150146484375,192.281005859375" fill="none"/></g></g></g><g style="display: block;" transform="matrix(0.9987130761146545,0.06654782593250275,-0.06691059470176697,0.9968292117118835,259.4582824707031,222.4357147216797)" opacity="1"><g opacity="1" transform="matrix(1,0,0,1,0,0)"><g opacity="1" transform="matrix(1,0,0,1,0,0)"><path fill="rgb(105,108,137)" fill-opacity="1" d=" M26.190000534057617,169.47900390625 C-62.6510009765625,149.04400634765625 -106.74199676513672,58.12200164794922 -79.60900115966797,16.273000717163086 C-52.47600173950195,-25.576000213623047 -6.34963846206665,-5.23721170425415 4.687361240386963,9.478788375854492 C31.360361099243164,-41.56721115112305 75.47547149658203,-22.40687370300293 90.19147491455078,7.0251264572143555 C104.907470703125,36.45712661743164 108.0479965209961,111.53399658203125 26.190000534057617,169.47900390625z"/><path stroke-linecap="round" stroke-linejoin="round" fill-opacity="0" stroke="rgb(209,214,250)" stroke-opacity="1" stroke-width="7" d=" M26.190000534057617,169.47900390625 C-62.6510009765625,149.04400634765625 -106.74199676513672,58.12200164794922 -79.60900115966797,16.273000717163086 C-52.47600173950195,-25.576000213623047 -6.34963846206665,-5.23721170425415 4.687361240386963,9.478788375854492 C31.360361099243164,-41.56721115112305 75.47547149658203,-22.40687370300293 90.19147491455078,7.0251264572143555 C104.907470703125,36.45712661743164 108.0479965209961,111.53399658203125 26.190000534057617,169.47900390625z" fill="none"/><path stroke-linecap="round" stroke-linejoin="round" fill-opacity="0" stroke-dasharray=" 2 7" stroke-dashoffset="0" stroke="rgb(209,214,250)" stroke-opacity="1" stroke-width="10" d=" M26.190000534057617,169.47900390625 C-62.6510009765625,149.04400634765625 -106.74199676513672,58.12200164794922 -79.60900115966797,16.273000717163086 C-52.47600173950195,-25.576000213623047 -6.34963846206665,-5.23721170425415 4.687361240386963,9.478788375854492 C31.360361099243164,-41.56721115112305 75.47547149658203,-22.40687370300293 90.19147491455078,7.0251264572143555 C104.907470703125,36.45712661743164 108.0479965209961,111.53399658203125 26.190000534057617,169.47900390625z" fill="none"/></g><g opacity="1" transform="matrix(1,0,0,1,0,0)"><path stroke-linecap="round" stroke-linejoin="round" fill-opacity="0" stroke="rgb(209,214,250)" stroke-opacity="1" stroke-width="7" d=" M67.23899841308594,-16.856000900268555 C77.01799774169922,-11.557000160217285 85.25700378417969,-2.8429999351501465 90.19100189208984,7.025000095367432 C104.907470703125,36.45712661743164 108.0479965209961,111.53399658203125 26.190000534057617,169.47900390625 C26.190000534057617,169.47900390625 26.190000534057617,169.47900390625 26.190000534057617,169.47900390625 C-4.921000003814697,162.322998046875 -30.54400062561035,146.5229949951172 -49.542999267578125,127.21399688720703" fill="none"/><path stroke-linecap="round" stroke-linejoin="round" fill-opacity="0" stroke-dasharray=" 2 7" stroke-dashoffset="0" stroke="rgb(209,214,250)" stroke-opacity="1" stroke-width="10" d=" M67.23899841308594,-16.856000900268555 C77.01799774169922,-11.557000160217285 85.25700378417969,-2.8429999351501465 90.19100189208984,7.025000095367432 C104.907470703125,36.45712661743164 108.0479965209961,111.53399658203125 26.190000534057617,169.47900390625 C26.190000534057617,169.47900390625 26.190000534057617,169.47900390625 26.190000534057617,169.47900390625 C-4.921000003814697,162.322998046875 -30.54400062561035,146.5229949951172 -49.542999267578125,127.21399688720703" fill="none"/></g></g></g><g style="display: block;" transform="matrix(0.9504568576812744,-0.31352806091308594,0.3139549195766449,0.9485599994659424,226.6927032470703,216.94061279296875)" opacity="1"><g opacity="1" transform="matrix(1,0,0,1,0,0)"><g opacity="1" transform="matrix(1,0,0,1,0,0)"><path stroke-linecap="round" stroke-linejoin="round" fill-opacity="0" stroke-dasharray=" 2 7" stroke-dashoffset="0" stroke="rgb(209,214,250)" stroke-opacity="1" stroke-width="10" d=" M-147.12747192382812,75.1537094116211 C-84.05689239501953,132.3658447265625 20.917831420898438,121.26428985595703 73.30148315429688,83.5779037475586 C101.13624572753906,63.55211639404297 81.42794799804688,36.2105827331543 61.38701248168945,48.71427536010742 C25.440982818603516,71.14099884033203 -77.18954467773438,96.84171295166016 -116.90054321289062,44.51171112060547 C-141.1995391845703,12.490710258483887 -164.90040588378906,59.029293060302734 -147.12747192382812,75.1537094116211z" fill="none"/><path fill="url(#__lottie_element_43)" fill-opacity="1" d=" M-147.12747192382812,75.1537094116211 C-84.05689239501953,132.3658447265625 20.917831420898438,121.26428985595703 73.30148315429688,83.5779037475586 C101.13624572753906,63.55211639404297 81.42794799804688,36.2105827331543 61.38701248168945,48.71427536010742 C25.440982818603516,71.14099884033203 -77.18954467773438,96.84171295166016 -116.90054321289062,44.51171112060547 C-141.1995391845703,12.490710258483887 -164.90040588378906,59.029293060302734 -147.12747192382812,75.1537094116211z"/><path stroke-linecap="round" stroke-linejoin="round" fill-opacity="0" stroke="rgb(209,214,250)" stroke-opacity="1" stroke-width="7" d=" M-147.12747192382812,75.1537094116211 C-84.05689239501953,132.3658447265625 20.917831420898438,121.26428985595703 73.30148315429688,83.5779037475586 C101.13624572753906,63.55211639404297 81.42794799804688,36.2105827331543 61.38701248168945,48.71427536010742 C25.440982818603516,71.14099884033203 -77.18954467773438,96.84171295166016 -116.90054321289062,44.51171112060547 C-141.1995391845703,12.490710258483887 -164.90040588378906,59.029293060302734 -147.12747192382812,75.1537094116211z" fill="none"/><path stroke-linecap="round" stroke-linejoin="round" fill-opacity="0" stroke-dasharray=" 2 7" stroke-dashoffset="0" stroke="rgb(209,214,250)" stroke-opacity="1" stroke-width="10" d=" M-147.12747192382812,75.1537094116211 C-84.05689239501953,132.3658447265625 20.917831420898438,121.26428985595703 73.30148315429688,83.5779037475586 C101.13624572753906,63.55211639404297 81.42794799804688,36.2105827331543 61.38701248168945,48.71427536010742 C25.440982818603516,71.14099884033203 -77.18954467773438,96.84171295166016 -116.90054321289062,44.51171112060547 C-141.1995391845703,12.490710258483887 -164.90040588378906,59.029293060302734 -147.12747192382812,75.1537094116211z" fill="none"/></g></g></g><g style="display: block;" transform="matrix(0.9675261378288269,0.2557835876941681,-0.25653019547462463,0.9657442569732666,250.7703399658203,219.3778839111328)" opacity="1"><g opacity="1" transform="matrix(1,0,0,1,0,0)"><g opacity="1" transform="matrix(1,0,0,1,0,0)"><path fill="rgb(29,35,37)" fill-opacity="1" d=" M108.14678955078125,-4.54937219619751 C121.67279052734375,34.8536262512207 32.30611801147461,33.6982421875 10.332118034362793,33.6982421875 C-11.641881942749023,33.6982421875 -16.16166877746582,70.97808074951172 19.484331130981445,69.51307678222656 C55.130332946777344,68.04808044433594 97.93951416015625,66.22935485839844 118.15070343017578,51.61695098876953 C148.67227172851562,29.65131950378418 130.98556518554688,0.8709700107574463 130.98556518554688,0.8709700107574463"/><path stroke-linecap="round" stroke-linejoin="round" fill-opacity="0" stroke="rgb(209,214,250)" stroke-opacity="1" stroke-width="7" d=" M108.14678955078125,-4.54937219619751 C121.67279052734375,34.8536262512207 32.30611801147461,33.6982421875 10.332118034362793,33.6982421875 C-11.641881942749023,33.6982421875 -16.16166877746582,70.97808074951172 19.484331130981445,69.51307678222656 C55.130332946777344,68.04808044433594 97.93951416015625,66.22935485839844 118.15070343017578,51.61695098876953 C148.67227172851562,29.65131950378418 130.98556518554688,0.8709700107574463 130.98556518554688,0.8709700107574463" fill="none"/><path stroke-linecap="round" stroke-linejoin="round" fill-opacity="0" stroke-dasharray=" 2 7" stroke-dashoffset="0" stroke="rgb(209,214,250)" stroke-opacity="1" stroke-width="10" d=" M108.14678955078125,-4.54937219619751 C121.67279052734375,34.8536262512207 32.30611801147461,33.6982421875 10.332118034362793,33.6982421875 C-11.641881942749023,33.6982421875 -16.16166877746582,70.97808074951172 19.484331130981445,69.51307678222656 C55.130332946777344,68.04808044433594 97.93951416015625,66.22935485839844 118.15070343017578,51.61695098876953 C148.67227172851562,29.65131950378418 130.98556518554688,0.8709700107574463 130.98556518554688,0.8709700107574463" fill="none"/></g><g opacity="1" transform="matrix(1,0,0,1,0,0)"><path stroke-linecap="round" stroke-linejoin="round" fill-opacity="0" stroke-dasharray=" 10 1000" stroke-dashoffset="0" stroke="rgb(209,214,250)" stroke-opacity="1" stroke-width="10" d=" M130.98556518554688,0.8709700107574463 C130.98556518554688,0.8709700107574463 148.67227172851562,29.65131950378418 118.15070343017578,51.61695098876953 C97.93951416015625,66.22935485839844 55.130332946777344,68.04808044433594 19.484331130981445,69.51307678222656 C-16.16166877746582,70.97808074951172 -11.641881942749023,33.6982421875 10.332118034362793,33.6982421875 C32.30611801147461,33.6982421875 121.67279052734375,34.8536262512207 108.14678955078125,-4.54937219619751" fill="none"/></g></g></g><g style="display: block;" transform="matrix(1,0,0,1,256,256)" opacity="1"/></g></svg>