<svg xmlns="http://www.w3.org/2000/svg" xmlns:xlink="http://www.w3.org/1999/xlink" viewBox="0 0 512 512" width="512" height="512" style="width: 100%; height: 100%; transform: translate3d(0px, 0px, 0px); content-visibility: visible;" preserveAspectRatio="xMidYMid meet"><defs><clipPath id="__lottie_element_29"><rect width="512" height="512" x="0" y="0"/></clipPath><linearGradient id="__lottie_element_41" spreadMethod="pad" gradientUnits="userSpaceOnUse" x1="-102" y1="-245.5" x2="34.5" y2="-48"><stop offset="0%" stop-color="rgb(255,255,255)"/><stop offset="50%" stop-color="rgb(255,255,255)"/><stop offset="100%" stop-color="rgb(255,255,255)"/></linearGradient><mask id="__lottie_element_43"><path fill="url(#__lottie_element_42)" d=" M-71.11900329589844,204.5570068359375 C-85.00499725341797,204.5570068359375 -96.26200103759766,193.3000030517578 -96.26200103759766,179.41400146484375 C-96.26200103759766,179.41400146484375 -96.26200103759766,-179.41400146484375 -96.26200103759766,-179.41400146484375 C-96.26200103759766,-193.3000030517578 -85.00499725341797,-204.5570068359375 -71.11900329589844,-204.5570068359375 C-71.11900329589844,-204.5570068359375 71.11900329589844,-204.5570068359375 71.11900329589844,-204.5570068359375 C85.00499725341797,-204.5570068359375 96.26200103759766,-193.3000030517578 96.26200103759766,-179.41400146484375 C96.26200103759766,-179.41400146484375 96.26200103759766,179.41400146484375 96.26200103759766,179.41400146484375 C96.26200103759766,193.3000030517578 85.00499725341797,204.5570068359375 71.11900329589844,204.5570068359375 C71.11900329589844,204.5570068359375 -71.11900329589844,204.5570068359375 -71.11900329589844,204.5570068359375z"/></mask><linearGradient id="__lottie_element_42" spreadMethod="pad" gradientUnits="userSpaceOnUse" x1="-102" y1="-245.5" x2="34.5" y2="-48"><stop stop-color="rgb(255,255,255)" offset="0%" stop-opacity="0.7699999809265137"/><stop stop-color="rgb(255,255,255)" offset="72%" stop-opacity="0.38499999046325684"/><stop stop-color="rgb(255,255,255)" offset="100%" stop-opacity="0"/></linearGradient><g id="__lottie_element_51"><g style="display: block;" transform="matrix(0,0,0.12643785774707794,0.9755684733390808,225.69981384277344,6.018816947937012)" opacity="1"><g opacity="1" transform="matrix(1,0,0,1,256.1109924316406,257.2340087890625)"><path fill="rgb(255,240,66)" fill-opacity="1" d=" M-71.11900329589844,204.5570068359375 C-85.00499725341797,204.5570068359375 -96.26200103759766,193.3000030517578 -96.26200103759766,179.41400146484375 C-96.26200103759766,179.41400146484375 -96.26200103759766,-179.41400146484375 -96.26200103759766,-179.41400146484375 C-96.26200103759766,-193.3000030517578 -85.00499725341797,-204.5570068359375 -71.11900329589844,-204.5570068359375 C-71.11900329589844,-204.5570068359375 71.11900329589844,-204.5570068359375 71.11900329589844,-204.5570068359375 C85.00499725341797,-204.5570068359375 96.26200103759766,-193.3000030517578 96.26200103759766,-179.41400146484375 C96.26200103759766,-179.41400146484375 96.26200103759766,179.41400146484375 96.26200103759766,179.41400146484375 C96.26200103759766,193.3000030517578 85.00499725341797,204.5570068359375 71.11900329589844,204.5570068359375 C71.11900329589844,204.5570068359375 -71.11900329589844,204.5570068359375 -71.11900329589844,204.5570068359375z"/></g></g></g><clipPath id="__lottie_element_55"><path d="M0,0 L512,0 L512,512 L0,512z" fill="none"/></clipPath><mask id="__lottie_element_51_1" mask-type="alpha"><use a0:href="#__lottie_element_51" xmlns:a0="http://www.w3.org/1999/xlink"/></mask><linearGradient id="__lottie_element_140" spreadMethod="pad" gradientUnits="userSpaceOnUse" x1="-137.0800018310547" y1="-164.23399353027344" x2="137.91900634765625" y2="163.4969940185547"><stop offset="0%" stop-color="rgb(154,131,161)"/><stop offset="50%" stop-color="rgb(109,95,116)"/><stop offset="100%" stop-color="rgb(65,58,71)"/></linearGradient><linearGradient id="__lottie_element_143" spreadMethod="pad" gradientUnits="userSpaceOnUse" x1="26.929000854492188" y1="-12.041999816894531" x2="-12.317999839782715" y2="0.6639999747276306"><stop offset="0%" stop-color="rgb(255,255,255)" stop-opacity="0"/><stop offset="50%" stop-color="rgb(255,255,255)" stop-opacity="0.15000000596046448"/><stop offset="100%" stop-color="rgb(255,255,255)" stop-opacity="0.30000001192092896"/></linearGradient><linearGradient id="__lottie_element_147" spreadMethod="pad" gradientUnits="userSpaceOnUse" x1="3791.080078125" y1="-63.23400115966797" x2="3791.080078125" y2="-187.9080047607422"><stop offset="22%" stop-color="rgb(185,174,188)"/><stop offset="61%" stop-color="rgb(137,125,145)"/><stop offset="100%" stop-color="rgb(90,77,101)"/></linearGradient><linearGradient id="__lottie_element_148" spreadMethod="pad" gradientUnits="userSpaceOnUse" x1="-22.079999923706055" y1="-62.23400115966797" x2="22.743999481201172" y2="60.91699981689453"><stop offset="0%" stop-color="rgb(113,98,127)"/><stop offset="50%" stop-color="rgb(81,70,93)"/><stop offset="100%" stop-color="rgb(49,43,59)"/></linearGradient><linearGradient id="__lottie_element_149" spreadMethod="pad" gradientUnits="userSpaceOnUse" x1="70.3270034790039" y1="-27.233999252319336" x2="-17.621000289916992" y2="2.2709999084472656"><stop offset="0%" stop-color="rgb(255,255,255)"/><stop offset="50%" stop-color="rgb(255,255,255)"/><stop offset="100%" stop-color="rgb(255,255,255)"/></linearGradient><mask id="__lottie_element_151"><path fill="url(#__lottie_element_150)" d=" M13.164999961853027,-57.55699920654297 C13.164999961853027,-57.55699920654297 -39.66899871826172,-57.55699920654297 -39.66899871826172,-57.55699920654297 C-39.66899871826172,-57.55699920654297 -3.7219998836517334,57.55699920654297 -3.7219998836517334,57.55699920654297 C-3.7219998836517334,57.55699920654297 13.164999961853027,57.55699920654297 13.164999961853027,57.55699920654297 C27.80299949645996,57.55699920654297 39.66899871826172,45.691001892089844 39.66899871826172,31.05299949645996 C39.66899871826172,31.05299949645996 39.66899871826172,-31.05299949645996 39.66899871826172,-31.05299949645996 C39.66899871826172,-45.691001892089844 27.80299949645996,-57.55699920654297 13.164999961853027,-57.55699920654297z"/></mask><linearGradient id="__lottie_element_150" spreadMethod="pad" gradientUnits="userSpaceOnUse" x1="70.3270034790039" y1="-27.233999252319336" x2="-17.621000289916992" y2="2.2709999084472656"><stop stop-color="rgb(255,255,255)" offset="0%" stop-opacity="0.7699999809265137"/><stop stop-color="rgb(255,255,255)" offset="72%" stop-opacity="0.38499999046325684"/><stop stop-color="rgb(255,255,255)" offset="100%" stop-opacity="0"/></linearGradient><linearGradient id="__lottie_element_158" spreadMethod="pad" gradientUnits="userSpaceOnUse" x1="-4.934999942779541" y1="61.76599884033203" x2="10.0649995803833" y2="-358.3489990234375"><stop offset="0%" stop-color="rgb(255,255,255)"/><stop offset="8%" stop-color="rgb(205,198,213)"/><stop offset="15%" stop-color="rgb(155,142,171)"/><stop offset="24%" stop-color="rgb(205,186,211)"/><stop offset="33%" stop-color="rgb(255,231,251)"/><stop offset="40%" stop-color="rgb(250,226,250)"/><stop offset="47%" stop-color="rgb(246,222,249)"/><stop offset="54%" stop-color="rgb(227,206,232)"/><stop offset="62%" stop-color="rgb(208,190,215)"/><stop offset="73%" stop-color="rgb(203,185,211)"/><stop offset="83%" stop-color="rgb(199,181,207)"/><stop offset="87%" stop-color="rgb(195,176,203)"/><stop offset="90%" stop-color="rgb(190,172,199)"/><stop offset="95%" stop-color="rgb(215,201,222)"/><stop offset="100%" stop-color="rgb(240,230,244)"/></linearGradient></defs><g clip-path="url(#__lottie_element_29)"><g style="display: block;" transform="matrix(0.9755684733390808,-0.12643785774707794,0.12643785774707794,0.9755684733390808,256.5455017089844,257.18572998046875)" opacity="1"><g opacity="1" transform="matrix(1,0,0,1,0,0)"><path fill="url(#__lottie_element_158)" fill-opacity="1" d=" M73.49299621582031,-215.98399353027344 C73.49299621582031,-215.98399353027344 107.44999694824219,-214.98399353027344 107.44999694824219,-176.48399353027344 C107.44999694824219,-137.98399353027344 107.44999694824219,133.8489990234375 107.44999694824219,175.5570068359375 C107.44999694824219,217.26499938964844 73.49299621582031,216.5570068359375 73.49299621582031,216.5570068359375 C73.49299621582031,216.5570068359375 73.49299621582031,-215.98399353027344 73.49299621582031,-215.98399353027344z"/><path stroke-linecap="round" stroke-linejoin="round" fill-opacity="0" stroke="rgb(162,153,174)" stroke-opacity="1" stroke-width="8" d=" M73.49299621582031,-215.98399353027344 C73.49299621582031,-215.98399353027344 107.44999694824219,-214.98399353027344 107.44999694824219,-176.48399353027344 C107.44999694824219,-137.98399353027344 107.44999694824219,133.8489990234375 107.44999694824219,175.5570068359375 C107.44999694824219,217.26499938964844 73.49299621582031,216.5570068359375 73.49299621582031,216.5570068359375 C73.49299621582031,216.5570068359375 73.49299621582031,-215.98399353027344 73.49299621582031,-215.98399353027344z" fill="none"/></g><g opacity="1" transform="matrix(1,0,0,1,0,0)"><path stroke-linecap="round" stroke-linejoin="round" fill-opacity="0" stroke="rgb(255,255,255)" stroke-opacity="1" stroke-width="8" d=" M107.44999694824219,-143.2740020751953 C107.44999694824219,-98.54499816894531 107.44999694824219,-21.527000427246094 107.44999694824219,46.21900177001953" fill="none"/></g></g><g style="display: block;" transform="matrix(0.9755684733390808,-0.12643785774707794,0.12643785774707794,0.9755684733390808,449.9279479980469,-23.042102813720703)" opacity="1"><g opacity="1" transform="matrix(1,0,0,1,-231.9199981689453,257.2340087890625)"><path fill="rgb(29,23,37)" fill-opacity="1" d=" M72.62200164794922,216.5570068359375 C72.62200164794922,216.5570068359375 -72.62200164794922,216.5570068359375 -72.62200164794922,216.5570068359375 C-92.30599975585938,216.5570068359375 -108.26200103759766,200.6009979248047 -108.26200103759766,180.91700744628906 C-108.26200103759766,180.91700744628906 -108.26200103759766,-180.91700744628906 -108.26200103759766,-180.91700744628906 C-108.26200103759766,-200.6009979248047 -92.30599975585938,-216.5570068359375 -72.62200164794922,-216.5570068359375 C-72.62200164794922,-216.5570068359375 72.62200164794922,-216.5570068359375 72.62200164794922,-216.5570068359375 C92.30599975585938,-216.5570068359375 108.26200103759766,-200.6009979248047 108.26200103759766,-180.91700744628906 C108.26200103759766,-180.91700744628906 108.26200103759766,180.91700744628906 108.26200103759766,180.91700744628906 C108.26200103759766,200.6009979248047 92.30599975585938,216.5570068359375 72.62200164794922,216.5570068359375z"/><path stroke-linecap="round" stroke-linejoin="round" fill-opacity="0" stroke="rgb(162,153,174)" stroke-opacity="1" stroke-width="8" d=" M72.62200164794922,216.5570068359375 C72.62200164794922,216.5570068359375 -72.62200164794922,216.5570068359375 -72.62200164794922,216.5570068359375 C-92.30599975585938,216.5570068359375 -108.26200103759766,200.6009979248047 -108.26200103759766,180.91700744628906 C-108.26200103759766,180.91700744628906 -108.26200103759766,-180.91700744628906 -108.26200103759766,-180.91700744628906 C-108.26200103759766,-200.6009979248047 -92.30599975585938,-216.5570068359375 -72.62200164794922,-216.5570068359375 C-72.62200164794922,-216.5570068359375 72.62200164794922,-216.5570068359375 72.62200164794922,-216.5570068359375 C92.30599975585938,-216.5570068359375 108.26200103759766,-200.6009979248047 108.26200103759766,-180.91700744628906 C108.26200103759766,-180.91700744628906 108.26200103759766,180.91700744628906 108.26200103759766,180.91700744628906 C108.26200103759766,200.6009979248047 92.30599975585938,216.5570068359375 72.62200164794922,216.5570068359375z" fill="none"/></g><g opacity="1" transform="matrix(1,0,0,1,-231.9199981689453,257.2340087890625)"><path fill="url(#__lottie_element_140)" fill-opacity="1" d=" M-72.62200164794922,209.5570068359375 C-88.44000244140625,209.5570068359375 -101.26200103759766,196.73399353027344 -101.26200103759766,180.91600036621094 C-101.26200103759766,180.91600036621094 -101.26200103759766,-180.91600036621094 -101.26200103759766,-180.91600036621094 C-101.26200103759766,-196.73399353027344 -88.44000244140625,-209.5570068359375 -72.62200164794922,-209.5570068359375 C-72.62200164794922,-209.5570068359375 72.62100219726562,-209.5570068359375 72.62100219726562,-209.5570068359375 C88.43900299072266,-209.5570068359375 101.26200103759766,-196.73399353027344 101.26200103759766,-180.91600036621094 C101.26200103759766,-180.91600036621094 101.26200103759766,180.91600036621094 101.26200103759766,180.91600036621094 C101.26200103759766,196.73399353027344 88.44000244140625,209.5570068359375 72.62200164794922,209.5570068359375 C72.62200164794922,209.5570068359375 -72.62200164794922,209.5570068359375 -72.62200164794922,209.5570068359375z"/></g></g><g style="display: block;" transform="matrix(0.9755684733390808,-0.12643785774707794,0.12643785774707794,0.9755684733390808,195.87152099609375,167.0015106201172)" opacity="1"><g opacity="1" transform="matrix(1,0,0,1,0,0)"><path fill="rgb(65,58,71)" fill-opacity="1" d=" M29.466999053955078,17.138999938964844 C21.50200080871582,17.513999938964844 14.741999626159668,9.512999534606934 13.946999549865723,-5.831999778747559 C13.946999549865723,-5.831999778747559 14.145999908447266,-78.84300231933594 14.145999908447266,-78.84300231933594 C14.444000244140625,-95.48600006103516 20.507999420166016,-104.73600006103516 29.466999053955078,-103.48600006103516 C29.466999053955078,-103.48600006103516 49.22200012207031,-103.48600006103516 49.22200012207031,-103.48600006103516 C54.60300064086914,-103.48600006103516 70.8219985961914,-90.14099884033203 70.8219985961914,-74.29499816894531 C70.8219985961914,-74.29499816894531 70.8219985961914,-11.689000129699707 70.8219985961914,-11.689000129699707 C70.8219985961914,3.7339999675750732 54.00600051879883,17.138999938964844 49.22200012207031,17.138999938964844 C49.22200012207031,17.138999938964844 29.466999053955078,17.138999938964844 29.466999053955078,17.138999938964844z"/></g></g><g style="display: block;" transform="matrix(0.9755684733390808,-0.12643785774707794,0.12643785774707794,0.9755684733390808,449.9279479980469,-23.042102813720703)" opacity="1"><g opacity="1" transform="matrix(1,0,0,1,-267.9200134277344,115.23400115966797)"><path fill="url(#__lottie_element_147)" fill-opacity="1" d=" M59.85200119018555,32.619998931884766 C59.85200119018555,32.619998931884766 59.85200119018555,-32.619998931884766 59.85200119018555,-32.619998931884766 C59.85200119018555,-49.03200149536133 46.547000885009766,-62.33700180053711 30.135000228881836,-62.33700180053711 C30.135000228881836,-62.33700180053711 -30.135000228881836,-62.33700180053711 -30.135000228881836,-62.33700180053711 C-46.547000885009766,-62.33700180053711 -59.85200119018555,-49.03200149536133 -59.85200119018555,-32.619998931884766 C-59.85200119018555,-32.619998931884766 -59.85200119018555,32.619998931884766 -59.85200119018555,32.619998931884766 C-59.85200119018555,49.03200149536133 -46.547000885009766,62.33700180053711 -30.135000228881836,62.33700180053711 C-30.135000228881836,62.33700180053711 30.135000228881836,62.33700180053711 30.135000228881836,62.33700180053711 C46.547000885009766,62.33700180053711 59.85200119018555,49.03200149536133 59.85200119018555,32.619998931884766z"/></g><g opacity="1" transform="matrix(1,0,0,1,-267.9200134277344,115.23400115966797)"><path fill="url(#__lottie_element_148)" fill-opacity="1" d=" M-28.757999420166016,57.55699920654297 C-43.395999908447266,57.55699920654297 -55.262001037597656,45.691001892089844 -55.262001037597656,31.05299949645996 C-55.262001037597656,31.05299949645996 -55.262001037597656,-31.05299949645996 -55.262001037597656,-31.05299949645996 C-55.262001037597656,-45.691001892089844 -43.395999908447266,-57.55699920654297 -28.757999420166016,-57.55699920654297 C-28.757999420166016,-57.55699920654297 28.757999420166016,-57.55699920654297 28.757999420166016,-57.55699920654297 C43.395999908447266,-57.55699920654297 55.262001037597656,-45.691001892089844 55.262001037597656,-31.05299949645996 C55.262001037597656,-31.05299949645996 55.262001037597656,31.05299949645996 55.262001037597656,31.05299949645996 C55.262001037597656,45.691001892089844 43.395999908447266,57.55699920654297 28.757999420166016,57.55699920654297 C28.757999420166016,57.55699920654297 -28.757999420166016,57.55699920654297 -28.757999420166016,57.55699920654297z"/></g><g opacity="1" transform="matrix(1,0,0,1,-226.21400451660156,143.67100524902344)"><path fill="rgb(22,22,21)" fill-opacity="1" d=" M1.5099999904632568,0 C1.5099999904632568,0.8339999914169312 0.8339999914169312,1.5099999904632568 0,1.5099999904632568 C-0.8339999914169312,1.5099999904632568 -1.5099999904632568,0.8339999914169312 -1.5099999904632568,0 C-1.5099999904632568,-0.8339999914169312 -0.8339999914169312,-1.5099999904632568 0,-1.5099999904632568 C0.8339999914169312,-1.5099999904632568 1.5099999904632568,-0.8339999914169312 1.5099999904632568,0z"/></g><g opacity="1" transform="matrix(1,0,0,1,-293.9750061035156,86.63099670410156)"><g opacity="1" transform="matrix(1,0,0,1,0,0)"><path fill="rgb(3,7,3)" fill-opacity="1" d=" M22.047000885009766,0 C22.047000885009766,12.175999641418457 12.175999641418457,22.047000885009766 0,22.047000885009766 C-12.175999641418457,22.047000885009766 -22.047000885009766,12.175999641418457 -22.047000885009766,0 C-22.047000885009766,-12.175999641418457 -12.175999641418457,-22.047000885009766 0,-22.047000885009766 C12.175999641418457,-22.047000885009766 22.047000885009766,-12.175999641418457 22.047000885009766,0z"/></g></g><g opacity="1" transform="matrix(1,0,0,1,-293.9750061035156,143.13299560546875)"><g opacity="1" transform="matrix(1,0,0,1,0,0)"><path fill="rgb(3,7,3)" fill-opacity="1" d=" M22.047000885009766,0 C22.047000885009766,12.175999641418457 12.175999641418457,22.047000885009766 0,22.047000885009766 C-12.175999641418457,22.047000885009766 -22.047000885009766,12.175999641418457 -22.047000885009766,0 C-22.047000885009766,-12.175999641418457 -12.175999641418457,-22.047000885009766 0,-22.047000885009766 C12.175999641418457,-22.047000885009766 22.047000885009766,-12.175999641418457 22.047000885009766,0z"/></g></g><g opacity="1" transform="matrix(1,0,0,1,-241.36000061035156,114.88200378417969)"><g opacity="1" transform="matrix(1,0,0,1,0,0)"><path fill="rgb(3,7,3)" fill-opacity="1" d=" M22.047000885009766,0 C22.047000885009766,12.175999641418457 12.175999641418457,22.047000885009766 0,22.047000885009766 C-12.175999641418457,22.047000885009766 -22.047000885009766,12.175999641418457 -22.047000885009766,0 C-22.047000885009766,-12.175999641418457 -12.175999641418457,-22.047000885009766 0,-22.047000885009766 C12.175999641418457,-22.047000885009766 22.047000885009766,-12.175999641418457 22.047000885009766,0z"/></g></g><g opacity="1" transform="matrix(1,0,0,1,-241.36000061035156,74.52300262451172)"><path fill="rgb(189,178,182)" fill-opacity="1" d=" M9.303999900817871,0 C9.303999900817871,5.138000011444092 5.138000011444092,9.303999900817871 0,9.303999900817871 C-5.138000011444092,9.303999900817871 -9.303999900817871,5.138000011444092 -9.303999900817871,0 C-9.303999900817871,-5.138000011444092 -5.138000011444092,-9.303999900817871 0,-9.303999900817871 C5.138000011444092,-9.303999900817871 9.303999900817871,-5.138000011444092 9.303999900817871,0z"/></g><g opacity="1" transform="matrix(1,0,0,1,-241.36000061035156,71.19300079345703)"><path fill="rgb(255,255,255)" fill-opacity="1" d=" M3.763000011444092,0 C3.763000011444092,2.0789999961853027 2.0789999961853027,3.763000011444092 0,3.763000011444092 C-2.0789999961853027,3.763000011444092 -3.763000011444092,2.0789999961853027 -3.763000011444092,0 C-3.763000011444092,-2.0789999961853027 -2.0789999961853027,-3.763000011444092 0,-3.763000011444092 C2.0789999961853027,-3.763000011444092 3.763000011444092,-2.0789999961853027 3.763000011444092,0z"/></g><g opacity="1" transform="matrix(1,0,0,1,-241.36000061035156,155.24000549316406)"><path fill="rgb(22,22,21)" fill-opacity="1" d=" M9.303999900817871,0 C9.303999900817871,-5.138000011444092 5.138000011444092,-9.303999900817871 0,-9.303999900817871 C-5.138000011444092,-9.303999900817871 -9.303999900817871,-5.138000011444092 -9.303999900817871,0 C-9.303999900817871,5.138000011444092 -5.138000011444092,9.303999900817871 0,9.303999900817871 C5.138000011444092,9.303999900817871 9.303999900817871,5.138000011444092 9.303999900817871,0z"/></g><g opacity="1" transform="matrix(1,0,0,1,-241.36000061035156,114.88200378417969)"><path fill="rgb(21,27,40)" fill-opacity="1" d=" M7.748000144958496,0 C7.748000144958496,4.2789998054504395 4.2789998054504395,7.748000144958496 0,7.748000144958496 C-4.2789998054504395,7.748000144958496 -7.748000144958496,4.2789998054504395 -7.748000144958496,0 C-7.748000144958496,-4.2789998054504395 -4.2789998054504395,-7.748000144958496 0,-7.748000144958496 C4.2789998054504395,-7.748000144958496 7.748000144958496,-4.2789998054504395 7.748000144958496,0z"/></g><g opacity="1" transform="matrix(1,0,0,1,-293.9750061035156,86.63099670410156)"><path fill="rgb(21,27,40)" fill-opacity="1" d=" M7.748000144958496,0 C7.748000144958496,4.2789998054504395 4.2789998054504395,7.748000144958496 0,7.748000144958496 C-4.2789998054504395,7.748000144958496 -7.748000144958496,4.2789998054504395 -7.748000144958496,0 C-7.748000144958496,-4.2789998054504395 -4.2789998054504395,-7.748000144958496 0,-7.748000144958496 C4.2789998054504395,-7.748000144958496 7.748000144958496,-4.2789998054504395 7.748000144958496,0z"/></g><g opacity="1" transform="matrix(1,0,0,1,-293.9750061035156,143.13299560546875)"><path fill="rgb(21,27,40)" fill-opacity="1" d=" M7.748000144958496,0 C7.748000144958496,4.2789998054504395 4.2789998054504395,7.748000144958496 0,7.748000144958496 C-4.2789998054504395,7.748000144958496 -7.748000144958496,4.2789998054504395 -7.748000144958496,0 C-7.748000144958496,-4.2789998054504395 -4.2789998054504395,-7.748000144958496 0,-7.748000144958496 C4.2789998054504395,-7.748000144958496 7.748000144958496,-4.2789998054504395 7.748000144958496,0z"/></g><g opacity="1" transform="matrix(1,0,0,1,-293.9750061035156,143.13299560546875)"><path fill="rgb(2,11,25)" fill-opacity="1" d=" M4.118000030517578,0 C4.118000030517578,2.2739999294281006 2.2739999294281006,4.118000030517578 0,4.118000030517578 C-2.2739999294281006,4.118000030517578 -4.118000030517578,2.2739999294281006 -4.118000030517578,0 C-4.118000030517578,-2.2739999294281006 -2.2739999294281006,-4.118000030517578 0,-4.118000030517578 C2.2739999294281006,-4.118000030517578 4.118000030517578,-2.2739999294281006 4.118000030517578,0z"/></g><g opacity="1" transform="matrix(1,0,0,1,-293.9750061035156,86.63099670410156)"><path fill="rgb(2,11,25)" fill-opacity="1" d=" M4.118000030517578,0 C4.118000030517578,2.2739999294281006 2.2739999294281006,4.118000030517578 0,4.118000030517578 C-2.2739999294281006,4.118000030517578 -4.118000030517578,2.2739999294281006 -4.118000030517578,0 C-4.118000030517578,-2.2739999294281006 -2.2739999294281006,-4.118000030517578 0,-4.118000030517578 C2.2739999294281006,-4.118000030517578 4.118000030517578,-2.2739999294281006 4.118000030517578,0z"/></g><g opacity="1" transform="matrix(1,0,0,1,-292.1789855957031,87.90699768066406)"><path fill="rgb(255,255,255)" fill-opacity="1" d=" M1.0609999895095825,0 C1.0609999895095825,0.5860000252723694 0.5860000252723694,1.0609999895095825 0,1.0609999895095825 C-0.5860000252723694,1.0609999895095825 -1.0609999895095825,0.5860000252723694 -1.0609999895095825,0 C-1.0609999895095825,-0.5860000252723694 -0.5860000252723694,-1.0609999895095825 0,-1.0609999895095825 C0.5860000252723694,-1.0609999895095825 1.0609999895095825,-0.5860000252723694 1.0609999895095825,0z"/></g><g opacity="1" transform="matrix(1,0,0,1,-295.5409851074219,86.63099670410156)"><path fill="rgb(158,156,168)" fill-opacity="1" d=" M1.565999984741211,0 C1.565999984741211,1.3769999742507935 0.8650000095367432,2.49399995803833 0,2.49399995803833 C-0.8650000095367432,2.49399995803833 -1.565999984741211,1.3769999742507935 -1.565999984741211,0 C-1.565999984741211,-1.3769999742507935 -0.8650000095367432,-2.49399995803833 0,-2.49399995803833 C0.8650000095367432,-2.49399995803833 1.565999984741211,-1.3769999742507935 1.565999984741211,0z"/></g><g opacity="1" transform="matrix(1,0,0,1,-292.1789855957031,144.40899658203125)"><path fill="rgb(255,255,255)" fill-opacity="1" d=" M1.0609999895095825,0 C1.0609999895095825,0.5860000252723694 0.5860000252723694,1.0609999895095825 0,1.0609999895095825 C-0.5860000252723694,1.0609999895095825 -1.0609999895095825,0.5860000252723694 -1.0609999895095825,0 C-1.0609999895095825,-0.5860000252723694 -0.5860000252723694,-1.0609999895095825 0,-1.0609999895095825 C0.5860000252723694,-1.0609999895095825 1.0609999895095825,-0.5860000252723694 1.0609999895095825,0z"/></g><g opacity="1" transform="matrix(1,0,0,1,-295.5409851074219,143.13299560546875)"><path fill="rgb(158,156,168)" fill-opacity="1" d=" M1.565999984741211,0 C1.565999984741211,1.3769999742507935 0.8650000095367432,2.49399995803833 0,2.49399995803833 C-0.8650000095367432,2.49399995803833 -1.565999984741211,1.3769999742507935 -1.565999984741211,0 C-1.565999984741211,-1.3769999742507935 -0.8650000095367432,-2.49399995803833 0,-2.49399995803833 C0.8650000095367432,-2.49399995803833 1.565999984741211,-1.3769999742507935 1.565999984741211,0z"/></g><g opacity="1" transform="matrix(1,0,0,1,-241.36000061035156,114.88200378417969)"><path fill="rgb(2,11,25)" fill-opacity="1" d=" M4.118000030517578,0 C4.118000030517578,2.2739999294281006 2.2739999294281006,4.118000030517578 0,4.118000030517578 C-2.2739999294281006,4.118000030517578 -4.118000030517578,2.2739999294281006 -4.118000030517578,0 C-4.118000030517578,-2.2739999294281006 -2.2739999294281006,-4.118000030517578 0,-4.118000030517578 C2.2739999294281006,-4.118000030517578 4.118000030517578,-2.2739999294281006 4.118000030517578,0z"/></g><g opacity="1" transform="matrix(1,0,0,1,-239.56700134277344,116.15799713134766)"><path fill="rgb(255,255,255)" fill-opacity="1" d=" M1.0609999895095825,0 C1.0609999895095825,0.5860000252723694 0.5860000252723694,1.0609999895095825 0,1.0609999895095825 C-0.5860000252723694,1.0609999895095825 -1.0609999895095825,0.5860000252723694 -1.0609999895095825,0 C-1.0609999895095825,-0.5860000252723694 -0.5860000252723694,-1.0609999895095825 0,-1.0609999895095825 C0.5860000252723694,-1.0609999895095825 1.0609999895095825,-0.5860000252723694 1.0609999895095825,0z"/></g><g opacity="1" transform="matrix(1,0,0,1,-242.92799377441406,114.88200378417969)"><path fill="rgb(158,156,168)" fill-opacity="1" d=" M1.565999984741211,0 C1.565999984741211,1.3769999742507935 0.8650000095367432,2.49399995803833 0,2.49399995803833 C-0.8650000095367432,2.49399995803833 -1.565999984741211,1.3769999742507935 -1.565999984741211,0 C-1.565999984741211,-1.3769999742507935 -0.8650000095367432,-2.49399995803833 0,-2.49399995803833 C0.8650000095367432,-2.49399995803833 1.565999984741211,-1.3769999742507935 1.565999984741211,0z"/></g><g opacity="1" transform="matrix(1,0,0,1,-293.9750061035156,86.63099670410156)"><path fill="rgb(45,39,57)" fill-opacity="1" d=" M0,25.54599952697754 C-14.086000442504883,25.54599952697754 -25.547000885009766,14.086999893188477 -25.547000885009766,0 C-25.547000885009766,-14.086000442504883 -14.086000442504883,-25.54599952697754 0,-25.54599952697754 C14.086000442504883,-25.54599952697754 25.547000885009766,-14.086000442504883 25.547000885009766,0 C25.547000885009766,14.086999893188477 14.086000442504883,25.54599952697754 0,25.54599952697754z M0,-18.54599952697754 C-10.22700023651123,-18.54599952697754 -18.547000885009766,-10.22700023651123 -18.547000885009766,0 C-18.547000885009766,10.22700023651123 -10.22700023651123,18.54599952697754 0,18.54599952697754 C10.22700023651123,18.54599952697754 18.547000885009766,10.22700023651123 18.547000885009766,0 C18.547000885009766,-10.22700023651123 10.22700023651123,-18.54599952697754 0,-18.54599952697754z"/></g><g opacity="1" transform="matrix(1,0,0,1,-293.9750061035156,143.13299560546875)"><path fill="rgb(45,39,57)" fill-opacity="1" d=" M0,25.54599952697754 C-14.086000442504883,25.54599952697754 -25.547000885009766,14.086000442504883 -25.547000885009766,0 C-25.547000885009766,-14.086999893188477 -14.086000442504883,-25.54599952697754 0,-25.54599952697754 C14.086000442504883,-25.54599952697754 25.547000885009766,-14.086999893188477 25.547000885009766,0 C25.547000885009766,14.086000442504883 14.086000442504883,25.54599952697754 0,25.54599952697754z M0,-18.54599952697754 C-10.22700023651123,-18.54599952697754 -18.547000885009766,-10.22700023651123 -18.547000885009766,0 C-18.547000885009766,10.22700023651123 -10.22700023651123,18.54599952697754 0,18.54599952697754 C10.22700023651123,18.54599952697754 18.547000885009766,10.22700023651123 18.547000885009766,0 C18.547000885009766,-10.22700023651123 10.22700023651123,-18.54599952697754 0,-18.54599952697754z"/></g><g opacity="1" transform="matrix(1,0,0,1,-241.36000061035156,114.88200378417969)"><path fill="rgb(45,39,57)" fill-opacity="1" d=" M0,25.54599952697754 C-14.086000442504883,25.54599952697754 -25.547000885009766,14.086999893188477 -25.547000885009766,0 C-25.547000885009766,-14.086000442504883 -14.086000442504883,-25.54599952697754 0,-25.54599952697754 C14.086000442504883,-25.54599952697754 25.547000885009766,-14.086000442504883 25.547000885009766,0 C25.547000885009766,14.086999893188477 14.086000442504883,25.54599952697754 0,25.54599952697754z M0,-18.54599952697754 C-10.22700023651123,-18.54599952697754 -18.547000885009766,-10.22700023651123 -18.547000885009766,0 C-18.547000885009766,10.22700023651123 -10.22700023651123,18.54599952697754 0,18.54599952697754 C10.22700023651123,18.54599952697754 18.547000885009766,10.22700023651123 18.547000885009766,0 C18.547000885009766,-10.22700023651123 10.22700023651123,-18.54599952697754 0,-18.54599952697754z"/></g><g opacity="1" transform="matrix(1,0,0,1,-279.64898681640625,83.48999786376953)"><path fill="rgb(165,152,179)" fill-opacity="1" d=" M-11.220999717712402,-22.209999084472656 C-11.220999717712402,-22.209999084472656 -8.836999893188477,-14.576000213623047 -8.836999893188477,-14.576000213623047 C-1.281000018119812,-12.230999946594238 4.2210001945495605,-5.176000118255615 4.2210001945495605,3.1410000324249268 C4.2210001945495605,7.447999954223633 2.7320001125335693,11.406000137329102 0.25999999046325684,14.557999610900879 C0.25999999046325684,14.557999610900879 2.6500000953674316,22.209999084472656 2.6500000953674316,22.209999084472656 C7.9039998054504395,17.527999877929688 11.220999717712402,10.715999603271484 11.220999717712402,3.1410000324249268 C11.220999717712402,-9.894000053405762 1.406000018119812,-20.67300033569336 -11.220999717712402,-22.209999084472656z"/></g><g opacity="1" transform="matrix(1,0,0,1,-241.36000061035156,114.88200378417969)"><path fill="rgb(165,152,179)" fill-opacity="1" d=" M25.547000885009766,0 C25.547000885009766,-14.086000442504883 14.086000442504883,-25.54599952697754 0,-25.54599952697754 C-14.086000442504883,-25.54599952697754 -25.547000885009766,-14.086000442504883 -25.547000885009766,0 C-25.547000885009766,14.086999893188477 -14.086000442504883,25.54599952697754 0,25.54599952697754 C14.086000442504883,25.54599952697754 25.547000885009766,14.086999893188477 25.547000885009766,0z M-18.547000885009766,0 C-18.547000885009766,-10.22700023651123 -10.22700023651123,-18.54599952697754 0,-18.54599952697754 C10.22700023651123,-18.54599952697754 18.547000885009766,-10.22700023651123 18.547000885009766,0 C18.547000885009766,10.22700023651123 10.22700023651123,18.54599952697754 0,18.54599952697754 C-10.22700023651123,18.54599952697754 -18.547000885009766,10.22700023651123 -18.547000885009766,0z"/></g><g opacity="1" transform="matrix(1,0,0,1,-252.32699584960938,115.23400115966797)"><path fill="url(#__lottie_element_149)" mask="url(#__lottie_element_151)" fill-opacity="1" d="M0 0 M13.164999961853027,-57.55699920654297 C13.164999961853027,-57.55699920654297 -39.66899871826172,-57.55699920654297 -39.66899871826172,-57.55699920654297 C-39.66899871826172,-57.55699920654297 -3.7219998836517334,57.55699920654297 -3.7219998836517334,57.55699920654297 C-3.7219998836517334,57.55699920654297 13.164999961853027,57.55699920654297 13.164999961853027,57.55699920654297 C27.80299949645996,57.55699920654297 39.66899871826172,45.691001892089844 39.66899871826172,31.05299949645996 C39.66899871826172,31.05299949645996 39.66899871826172,-31.05299949645996 39.66899871826172,-31.05299949645996 C39.66899871826172,-45.691001892089844 27.80299949645996,-57.55699920654297 13.164999961853027,-57.55699920654297z"/></g></g><g style="display: block;" transform="matrix(0.9755684733390808,-0.12643785774707794,0.12643785774707794,0.9755684733390808,449.9279479980469,-23.042102813720703)" opacity="1"><g opacity="1" transform="matrix(1,0,0,1,-231.9199981689453,257.2340087890625)"><path fill="rgb(52,45,58)" fill-opacity="1" d=" M33.46900177001953,0 C33.46900177001953,18.483999252319336 18.483999252319336,33.46900177001953 0,33.46900177001953 C-18.483999252319336,33.46900177001953 -33.46900177001953,18.483999252319336 -33.46900177001953,0 C-33.46900177001953,-18.483999252319336 -18.483999252319336,-33.46900177001953 0,-33.46900177001953 C18.483999252319336,-33.46900177001953 33.46900177001953,-18.483999252319336 33.46900177001953,0z"/></g><g opacity="1" transform="matrix(1,0,0,1,-235.13800048828125,258.4330139160156)"><path fill="rgb(139,127,145)" fill-opacity="1" d=" M-16.65399932861328,-2.2239999771118164 C-6.288000106811523,-6.739999771118164 0.625,-9.718000411987305 4.084000110626221,-11.156999588012695 C13.958999633789062,-15.265000343322754 16.01099967956543,-15.977999687194824 17.347999572753906,-16.00200080871582 C17.642000198364258,-16.006999969482422 18.299999237060547,-15.934000015258789 18.72599983215332,-15.588000297546387 C19.086000442504883,-15.295999526977539 19.184999465942383,-14.902000427246094 19.23200035095215,-14.625 C19.27899932861328,-14.347999572753906 19.339000701904297,-13.718000411987305 19.29199981689453,-13.225000381469727 C18.756999969482422,-7.6020002365112305 16.44099998474121,6.041999816894531 15.262999534606934,12.34000015258789 C14.765000343322754,15.005000114440918 13.782999992370605,15.89900016784668 12.833000183105469,15.986000061035156 C10.767999649047852,16.176000595092773 9.199999809265137,14.621000289916992 7.199999809265137,13.3100004196167 C4.070000171661377,11.258000373840332 2.302000045776367,9.982000350952148 -0.7360000014305115,7.980000019073486 C-4.247000217437744,5.665999889373779 -1.9709999561309814,4.394000053405762 0.029999999329447746,2.315999984741211 C0.5540000200271606,1.7719999551773071 9.652000427246094,-6.502999782562256 9.82800006866455,-7.254000186920166 C9.850000381469727,-7.3480000495910645 9.871000289916992,-7.697999954223633 9.663000106811523,-7.882999897003174 C9.454999923706055,-8.067999839782715 9.147000312805176,-8.003999710083008 8.925999641418457,-7.953999996185303 C8.612000465393066,-7.882999897003174 3.61299991607666,-4.578000068664551 -6.072999954223633,1.9600000381469727 C-7.492000102996826,2.934999942779541 -8.777000427246094,3.4089999198913574 -9.928999900817871,3.384000062942505 C-11.199000358581543,3.3570001125335693 -13.640999794006348,2.6659998893737793 -15.456999778747559,2.0759999752044678 C-17.68400001525879,1.3519999980926514 -19.45400047302246,0.968999981880188 -19.299999237060547,-0.25999999046325684 C-19.219999313354492,-0.8999999761581421 -18.336999893188477,-1.5549999475479126 -16.65399932861328,-2.2239999771118164z"/></g><g opacity="1" transform="matrix(1,0,0,1,-218.9290008544922,256.0419921875)"><path fill="url(#__lottie_element_143)" fill-opacity="1" d=" M-12.991000175476074,-32.277000427246094 C-15.565999984741211,-32.277000427246094 -18.070999145507812,-31.97599983215332 -20.479000091552734,-31.424999237060547 C-20.479000091552734,-31.424999237060547 -0.5860000252723694,32.277000427246094 -0.5860000252723694,32.277000427246094 C11.755000114440918,27.347999572753906 20.479000091552734,15.291999816894531 20.479000091552734,1.1920000314712524 C20.479000091552734,-17.29199981689453 5.49399995803833,-32.277000427246094 -12.991000175476074,-32.277000427246094z"/></g></g><g style="display: block;" transform="matrix(0.9755684733390808,-0.12643785774707794,0.12643785774707794,0.9755684733390808,-26.392526626586914,38.69010543823242)" opacity="1"><g opacity="1" transform="matrix(1,0,0,1,146.5,132.89999389648438)"><path fill="rgb(206,188,214)" fill-opacity="1" d=" M221.6320037841797,5.730999946594238 C221.6320037841797,5.730999946594238 221.6320037841797,5.730999946594238 221.6320037841797,5.730999946594238 C221.7740020751953,5.730999946594238 221.88900756835938,5.650000095367432 221.88900756835938,4.255000114440918 C221.88900756835938,4.255000114440918 221.88900756835938,-4.254000186920166 221.88900756835938,-4.254000186920166 C221.88900756835938,-5.64900016784668 221.7740020751953,-5.730999946594238 221.6320037841797,-5.730999946594238 C221.6320037841797,-5.730999946594238 221.6320037841797,-5.730999946594238 221.6320037841797,-5.730999946594238 C221.49000549316406,-5.730999946594238 221.37399291992188,-5.64900016784668 221.37399291992188,-4.254000186920166 C221.37399291992188,-4.254000186920166 221.37399291992188,4.255000114440918 221.37399291992188,4.255000114440918 C221.37399291992188,5.650000095367432 221.49000549316406,5.730999946594238 221.6320037841797,5.730999946594238z"/><path stroke-linecap="round" stroke-linejoin="round" fill-opacity="0" stroke="rgb(151,140,164)" stroke-opacity="1" stroke-width="8" d=" M221.6320037841797,5.730999946594238 C221.6320037841797,5.730999946594238 221.6320037841797,5.730999946594238 221.6320037841797,5.730999946594238 C221.7740020751953,5.730999946594238 221.88900756835938,5.650000095367432 221.88900756835938,4.255000114440918 C221.88900756835938,4.255000114440918 221.88900756835938,-4.254000186920166 221.88900756835938,-4.254000186920166 C221.88900756835938,-5.64900016784668 221.7740020751953,-5.730999946594238 221.6320037841797,-5.730999946594238 C221.6320037841797,-5.730999946594238 221.6320037841797,-5.730999946594238 221.6320037841797,-5.730999946594238 C221.49000549316406,-5.730999946594238 221.37399291992188,-5.64900016784668 221.37399291992188,-4.254000186920166 C221.37399291992188,-4.254000186920166 221.37399291992188,4.255000114440918 221.37399291992188,4.255000114440918 C221.37399291992188,5.650000095367432 221.49000549316406,5.730999946594238 221.6320037841797,5.730999946594238z" fill="none"/></g><g opacity="1" transform="matrix(1,0,0,1,146.5,215.34100341796875)"><path fill="rgb(206,188,214)" fill-opacity="1" d=" M221.68699645996094,14.704999923706055 C221.68699645996094,14.704999923706055 221.68699645996094,14.704999923706055 221.68699645996094,14.704999923706055 C221.9980010986328,14.704999923706055 222.25,14.218999862670898 222.25,10.336000442504883 C222.25,10.336000442504883 222.25,-10.333000183105469 222.25,-10.333000183105469 C222.25,-14.215999603271484 221.9980010986328,-14.70199966430664 221.68699645996094,-14.70199966430664 C221.68699645996094,-14.70199966430664 221.68699645996094,-14.70199966430664 221.68699645996094,-14.70199966430664 C221.37600708007812,-14.70199966430664 221.125,-14.279999732971191 221.125,-10.378999710083008 C221.125,-10.378999710083008 221.125,10.383000373840332 221.125,10.383000373840332 C221.125,14.284000396728516 221.37600708007812,14.704999923706055 221.68699645996094,14.704999923706055z"/><path stroke-linecap="round" stroke-linejoin="round" fill-opacity="0" stroke="rgb(151,140,164)" stroke-opacity="1" stroke-width="8" d=" M221.68699645996094,14.704999923706055 C221.68699645996094,14.704999923706055 221.68699645996094,14.704999923706055 221.68699645996094,14.704999923706055 C221.9980010986328,14.704999923706055 222.25,14.218999862670898 222.25,10.336000442504883 C222.25,10.336000442504883 222.25,-10.333000183105469 222.25,-10.333000183105469 C222.25,-14.215999603271484 221.9980010986328,-14.70199966430664 221.68699645996094,-14.70199966430664 C221.68699645996094,-14.70199966430664 221.68699645996094,-14.70199966430664 221.68699645996094,-14.70199966430664 C221.37600708007812,-14.70199966430664 221.125,-14.279999732971191 221.125,-10.378999710083008 C221.125,-10.378999710083008 221.125,10.383000373840332 221.125,10.383000373840332 C221.125,14.284000396728516 221.37600708007812,14.704999923706055 221.68699645996094,14.704999923706055z" fill="none"/></g><g opacity="1" transform="matrix(1,0,0,1,146.5,173.0449981689453)"><path fill="rgb(206,188,214)" fill-opacity="1" d=" M221.68699645996094,14.704999923706055 C221.68699645996094,14.704999923706055 221.68699645996094,14.704999923706055 221.68699645996094,14.704999923706055 C221.9980010986328,14.704999923706055 222.25,13.923999786376953 222.25,10.121000289916992 C222.25,10.121000289916992 222.25,-10.118000030517578 222.25,-10.118000030517578 C222.25,-13.920999526977539 221.9980010986328,-14.70199966430664 221.68699645996094,-14.70199966430664 C221.68699645996094,-14.70199966430664 221.68699645996094,-14.70199966430664 221.68699645996094,-14.70199966430664 C221.37600708007812,-14.70199966430664 221.125,-13.920999526977539 221.125,-10.118000030517578 C221.125,-10.118000030517578 221.125,10.121000289916992 221.125,10.121000289916992 C221.125,13.923999786376953 221.37600708007812,14.704999923706055 221.68699645996094,14.704999923706055z"/><path stroke-linecap="round" stroke-linejoin="round" fill-opacity="0" stroke="rgb(151,140,164)" stroke-opacity="1" stroke-width="8" d=" M221.68699645996094,14.704999923706055 C221.68699645996094,14.704999923706055 221.68699645996094,14.704999923706055 221.68699645996094,14.704999923706055 C221.9980010986328,14.704999923706055 222.25,13.923999786376953 222.25,10.121000289916992 C222.25,10.121000289916992 222.25,-10.118000030517578 222.25,-10.118000030517578 C222.25,-13.920999526977539 221.9980010986328,-14.70199966430664 221.68699645996094,-14.70199966430664 C221.68699645996094,-14.70199966430664 221.68699645996094,-14.70199966430664 221.68699645996094,-14.70199966430664 C221.37600708007812,-14.70199966430664 221.125,-13.920999526977539 221.125,-10.118000030517578 C221.125,-10.118000030517578 221.125,10.121000289916992 221.125,10.121000289916992 C221.125,13.923999786376953 221.37600708007812,14.704999923706055 221.68699645996094,14.704999923706055z" fill="none"/></g></g><g style="display: block;" transform="matrix(0.9755684733390808,-0.12643785774707794,0.12643785774707794,0.9755684733390808,-26.392526626586914,38.69010543823242)" opacity="1"><g opacity="1" transform="matrix(1,0,0,1,146.5,132.89999389648438)"><path stroke-linecap="round" stroke-linejoin="round" fill-opacity="0" stroke="rgb(255,255,255)" stroke-opacity="1" stroke-width="8" d="M0 0" fill="none"/></g><g opacity="1" transform="matrix(1,0,0,1,146.5,215.34100341796875)"><path stroke-linecap="round" stroke-linejoin="round" fill-opacity="0" stroke="rgb(255,255,255)" stroke-opacity="1" stroke-width="8" d="M0 0" fill="none"/></g><g opacity="1" transform="matrix(1,0,0,1,146.5,173.0449981689453)"><path stroke-linecap="round" stroke-linejoin="round" fill-opacity="0" stroke="rgb(255,255,255)" stroke-opacity="1" stroke-width="8" d="M0 0" fill="none"/></g></g><g style="display: block;" transform="matrix(0.9755684733390808,-0.12643785774707794,0.12643785774707794,0.9755684733390808,355.8622741699219,188.96969604492188)" opacity="1"><g opacity="1" transform="matrix(1,0,0,1,0,0)"><path fill="rgb(206,188,214)" fill-opacity="1" d=" M-219.68800354003906,21.233999252319336 C-219.68800354003906,21.233999252319336 -219.68800354003906,21.233999252319336 -219.68800354003906,21.233999252319336 C-221.2570037841797,21.233999252319336 -222.5290069580078,20.31599998474121 -222.5290069580078,16.7189998626709 C-222.5290069580078,16.7189998626709 -222.5290069580078,-16.7189998626709 -222.5290069580078,-16.7189998626709 C-222.5290069580078,-20.31599998474121 -221.2570037841797,-21.233999252319336 -219.68800354003906,-21.233999252319336 C-219.68800354003906,-21.233999252319336 -219.68800354003906,-21.233999252319336 -219.68800354003906,-21.233999252319336 C-218.11900329589844,-21.233999252319336 -216.8459930419922,-20.31599998474121 -216.8459930419922,-16.7189998626709 C-216.8459930419922,-16.7189998626709 -216.8459930419922,16.7189998626709 -216.8459930419922,16.7189998626709 C-216.8459930419922,20.31599998474121 -218.11900329589844,21.233999252319336 -219.68800354003906,21.233999252319336z"/><path stroke-linecap="round" stroke-linejoin="round" fill-opacity="0" stroke="rgb(151,140,164)" stroke-opacity="1" stroke-width="6" d=" M-219.68800354003906,21.233999252319336 C-219.68800354003906,21.233999252319336 -219.68800354003906,21.233999252319336 -219.68800354003906,21.233999252319336 C-221.2570037841797,21.233999252319336 -222.5290069580078,20.31599998474121 -222.5290069580078,16.7189998626709 C-222.5290069580078,16.7189998626709 -222.5290069580078,-16.7189998626709 -222.5290069580078,-16.7189998626709 C-222.5290069580078,-20.31599998474121 -221.2570037841797,-21.233999252319336 -219.68800354003906,-21.233999252319336 C-219.68800354003906,-21.233999252319336 -219.68800354003906,-21.233999252319336 -219.68800354003906,-21.233999252319336 C-218.11900329589844,-21.233999252319336 -216.8459930419922,-20.31599998474121 -216.8459930419922,-16.7189998626709 C-216.8459930419922,-16.7189998626709 -216.8459930419922,16.7189998626709 -216.8459930419922,16.7189998626709 C-216.8459930419922,20.31599998474121 -218.11900329589844,21.233999252319336 -219.68800354003906,21.233999252319336z" fill="none"/></g></g><g style="display: none;" transform="matrix(0,0,-0.11869025975465775,1.0024926662445068,270.4703674316406,-2.572404146194458)" opacity="1"><g opacity="1" transform="matrix(1,0,0,1,256.1109924316406,257.2340087890625)"><path fill="rgb(0,0,0)" fill-opacity="1" d=" M72.62200164794922,216.5570068359375 C72.62200164794922,216.5570068359375 -72.62200164794922,216.5570068359375 -72.62200164794922,216.5570068359375 C-92.30599975585938,216.5570068359375 -108.26200103759766,200.6009979248047 -108.26200103759766,180.91700744628906 C-108.26200103759766,180.91700744628906 -108.26200103759766,-180.91700744628906 -108.26200103759766,-180.91700744628906 C-108.26200103759766,-200.6009979248047 -92.30599975585938,-216.5570068359375 -72.62200164794922,-216.5570068359375 C-72.62200164794922,-216.5570068359375 72.62200164794922,-216.5570068359375 72.62200164794922,-216.5570068359375 C92.30599975585938,-216.5570068359375 108.26200103759766,-200.6009979248047 108.26200103759766,-180.91700744628906 C108.26200103759766,-180.91700744628906 108.26200103759766,180.91700744628906 108.26200103759766,180.91700744628906 C108.26200103759766,200.6009979248047 92.30599975585938,216.5570068359375 72.62200164794922,216.5570068359375z"/><path stroke-linecap="round" stroke-linejoin="round" fill-opacity="0" stroke="rgb(162,153,174)" stroke-opacity="1" stroke-width="8" d=" M72.62200164794922,216.5570068359375 C72.62200164794922,216.5570068359375 -72.62200164794922,216.5570068359375 -72.62200164794922,216.5570068359375 C-92.30599975585938,216.5570068359375 -108.26200103759766,200.6009979248047 -108.26200103759766,180.91700744628906 C-108.26200103759766,180.91700744628906 -108.26200103759766,-180.91700744628906 -108.26200103759766,-180.91700744628906 C-108.26200103759766,-200.6009979248047 -92.30599975585938,-216.5570068359375 -72.62200164794922,-216.5570068359375 C-72.62200164794922,-216.5570068359375 72.62200164794922,-216.5570068359375 72.62200164794922,-216.5570068359375 C92.30599975585938,-216.5570068359375 108.26200103759766,-200.6009979248047 108.26200103759766,-180.91700744628906 C108.26200103759766,-180.91700744628906 108.26200103759766,180.91700744628906 108.26200103759766,180.91700744628906 C108.26200103759766,200.6009979248047 92.30599975585938,216.5570068359375 72.62200164794922,216.5570068359375z" fill="none"/></g><g opacity="1" transform="matrix(1,0,0,1,256.1109924316406,257.2340087890625)"><path fill="rgb(29,29,29)" fill-opacity="1" d=" M-71.11900329589844,204.5570068359375 C-85.00499725341797,204.5570068359375 -96.26200103759766,193.3000030517578 -96.26200103759766,179.41400146484375 C-96.26200103759766,179.41400146484375 -96.26200103759766,-179.41400146484375 -96.26200103759766,-179.41400146484375 C-96.26200103759766,-193.3000030517578 -85.00499725341797,-204.5570068359375 -71.11900329589844,-204.5570068359375 C-71.11900329589844,-204.5570068359375 71.11900329589844,-204.5570068359375 71.11900329589844,-204.5570068359375 C85.00499725341797,-204.5570068359375 96.26200103759766,-193.3000030517578 96.26200103759766,-179.41400146484375 C96.26200103759766,-179.41400146484375 96.26200103759766,179.41400146484375 96.26200103759766,179.41400146484375 C96.26200103759766,193.3000030517578 85.00499725341797,204.5570068359375 71.11900329589844,204.5570068359375 C71.11900329589844,204.5570068359375 -71.11900329589844,204.5570068359375 -71.11900329589844,204.5570068359375z"/></g></g><g style="display: block;" mask="url(#__lottie_element_51_1)"><g clip-path="url(#__lottie_element_55)" transform="matrix(-0.00003703017137013376,-0.0002857171930372715,0.12480426579713821,0.9629640579223633,226.13116455078125,9.34697437286377)" opacity="0"><g style="display: block;" transform="matrix(1,0,0,1,186.71099853515625,108.93000030517578)" opacity="1"><g opacity="1" transform="matrix(1,0,0,1,0,0)"><path fill="rgb(0,241,56)" fill-opacity="1" d=" M7.784999847412109,14.208999633789062 C7.784999847412109,14.208999633789062 -7.784999847412109,14.208999633789062 -7.784999847412109,14.208999633789062 C-11.333000183105469,14.208999633789062 -14.208999633789062,11.333000183105469 -14.208999633789062,7.784999847412109 C-14.208999633789062,7.784999847412109 -14.208999633789062,-7.784999847412109 -14.208999633789062,-7.784999847412109 C-14.208999633789062,-11.333000183105469 -11.333000183105469,-14.208999633789062 -7.784999847412109,-14.208999633789062 C-7.784999847412109,-14.208999633789062 7.784999847412109,-14.208999633789062 7.784999847412109,-14.208999633789062 C11.333000183105469,-14.208999633789062 14.208999633789062,-11.333000183105469 14.208999633789062,-7.784999847412109 C14.208999633789062,-7.784999847412109 14.208999633789062,7.784999847412109 14.208999633789062,7.784999847412109 C14.208999633789062,11.333000183105469 11.333000183105469,14.208999633789062 7.784999847412109,14.208999633789062z"/></g></g><g style="display: block;" transform="matrix(1,0,0,1,232.9770050048828,108.93000030517578)" opacity="1"><g opacity="1" transform="matrix(1,0,0,1,0,0)"><path fill="rgb(255,255,255)" fill-opacity="1" d=" M7.784999847412109,14.208999633789062 C7.784999847412109,14.208999633789062 -7.784999847412109,14.208999633789062 -7.784999847412109,14.208999633789062 C-11.333000183105469,14.208999633789062 -14.208999633789062,11.333000183105469 -14.208999633789062,7.784999847412109 C-14.208999633789062,7.784999847412109 -14.208999633789062,-7.784999847412109 -14.208999633789062,-7.784999847412109 C-14.208999633789062,-11.333000183105469 -11.333000183105469,-14.208999633789062 -7.784999847412109,-14.208999633789062 C-7.784999847412109,-14.208999633789062 7.784999847412109,-14.208999633789062 7.784999847412109,-14.208999633789062 C11.333000183105469,-14.208999633789062 14.208999633789062,-11.333000183105469 14.208999633789062,-7.784999847412109 C14.208999633789062,-7.784999847412109 14.208999633789062,7.784999847412109 14.208999633789062,7.784999847412109 C14.208999633789062,11.333000183105469 11.333000183105469,14.208999633789062 7.784999847412109,14.208999633789062z"/></g></g><g style="display: block;" transform="matrix(1,0,0,1,279.2439880371094,108.93000030517578)" opacity="1"><g opacity="1" transform="matrix(1,0,0,1,0,0)"><path fill="rgb(244,155,238)" fill-opacity="1" d=" M7.784999847412109,14.208999633789062 C7.784999847412109,14.208999633789062 -7.784999847412109,14.208999633789062 -7.784999847412109,14.208999633789062 C-11.333000183105469,14.208999633789062 -14.208999633789062,11.333000183105469 -14.208999633789062,7.784999847412109 C-14.208999633789062,7.784999847412109 -14.208999633789062,-7.784999847412109 -14.208999633789062,-7.784999847412109 C-14.208999633789062,-11.333000183105469 -11.333000183105469,-14.208999633789062 -7.784999847412109,-14.208999633789062 C-7.784999847412109,-14.208999633789062 7.784999847412109,-14.208999633789062 7.784999847412109,-14.208999633789062 C11.333000183105469,-14.208999633789062 14.208999633789062,-11.333000183105469 14.208999633789062,-7.784999847412109 C14.208999633789062,-7.784999847412109 14.208999633789062,7.784999847412109 14.208999633789062,7.784999847412109 C14.208999633789062,11.333000183105469 11.333000183105469,14.208999633789062 7.784999847412109,14.208999633789062z"/></g></g><g style="display: block;" transform="matrix(1,0,0,1,325.510009765625,108.93000030517578)" opacity="1"><g opacity="1" transform="matrix(1,0,0,1,0,0)"><path fill="rgb(166,161,151)" fill-opacity="1" d=" M7.784999847412109,14.208999633789062 C7.784999847412109,14.208999633789062 -7.784999847412109,14.208999633789062 -7.784999847412109,14.208999633789062 C-11.333000183105469,14.208999633789062 -14.208999633789062,11.333000183105469 -14.208999633789062,7.784999847412109 C-14.208999633789062,7.784999847412109 -14.208999633789062,-7.784999847412109 -14.208999633789062,-7.784999847412109 C-14.208999633789062,-11.333000183105469 -11.333000183105469,-14.208999633789062 -7.784999847412109,-14.208999633789062 C-7.784999847412109,-14.208999633789062 7.784999847412109,-14.208999633789062 7.784999847412109,-14.208999633789062 C11.333000183105469,-14.208999633789062 14.208999633789062,-11.333000183105469 14.208999633789062,-7.784999847412109 C14.208999633789062,-7.784999847412109 14.208999633789062,7.784999847412109 14.208999633789062,7.784999847412109 C14.208999633789062,11.333000183105469 11.333000183105469,14.208999633789062 7.784999847412109,14.208999633789062z"/></g></g><g style="display: block;" transform="matrix(1,0,0,1,186.71099853515625,159.4409942626953)" opacity="1"><g opacity="1" transform="matrix(1,0,0,1,0,0)"><path fill="rgb(0,198,255)" fill-opacity="1" d=" M7.784999847412109,14.208999633789062 C7.784999847412109,14.208999633789062 -7.784999847412109,14.208999633789062 -7.784999847412109,14.208999633789062 C-11.333000183105469,14.208999633789062 -14.208999633789062,11.333000183105469 -14.208999633789062,7.784999847412109 C-14.208999633789062,7.784999847412109 -14.208999633789062,-7.784999847412109 -14.208999633789062,-7.784999847412109 C-14.208999633789062,-11.333000183105469 -11.333000183105469,-14.208999633789062 -7.784999847412109,-14.208999633789062 C-7.784999847412109,-14.208999633789062 7.784999847412109,-14.208999633789062 7.784999847412109,-14.208999633789062 C11.333000183105469,-14.208999633789062 14.208999633789062,-11.333000183105469 14.208999633789062,-7.784999847412109 C14.208999633789062,-7.784999847412109 14.208999633789062,7.784999847412109 14.208999633789062,7.784999847412109 C14.208999633789062,11.333000183105469 11.333000183105469,14.208999633789062 7.784999847412109,14.208999633789062z"/></g></g><g style="display: block;" transform="matrix(1,0,0,1,232.9770050048828,159.4409942626953)" opacity="1"><g opacity="1" transform="matrix(1,0,0,1,0,0)"><path fill="rgb(122,122,122)" fill-opacity="1" d=" M7.784999847412109,14.208999633789062 C7.784999847412109,14.208999633789062 -7.784999847412109,14.208999633789062 -7.784999847412109,14.208999633789062 C-11.333000183105469,14.208999633789062 -14.208999633789062,11.333000183105469 -14.208999633789062,7.784999847412109 C-14.208999633789062,7.784999847412109 -14.208999633789062,-7.784999847412109 -14.208999633789062,-7.784999847412109 C-14.208999633789062,-11.333000183105469 -11.333000183105469,-14.208999633789062 -7.784999847412109,-14.208999633789062 C-7.784999847412109,-14.208999633789062 7.784999847412109,-14.208999633789062 7.784999847412109,-14.208999633789062 C11.333000183105469,-14.208999633789062 14.208999633789062,-11.333000183105469 14.208999633789062,-7.784999847412109 C14.208999633789062,-7.784999847412109 14.208999633789062,7.784999847412109 14.208999633789062,7.784999847412109 C14.208999633789062,11.333000183105469 11.333000183105469,14.208999633789062 7.784999847412109,14.208999633789062z"/></g></g><g style="display: block;" transform="matrix(1,0,0,1,279.2439880371094,159.4409942626953)" opacity="1"><g opacity="1" transform="matrix(1,0,0,1,0,0)"><path fill="rgb(228,193,159)" fill-opacity="1" d=" M7.784999847412109,14.208999633789062 C7.784999847412109,14.208999633789062 -7.784999847412109,14.208999633789062 -7.784999847412109,14.208999633789062 C-11.333000183105469,14.208999633789062 -14.208999633789062,11.333000183105469 -14.208999633789062,7.784999847412109 C-14.208999633789062,7.784999847412109 -14.208999633789062,-7.784999847412109 -14.208999633789062,-7.784999847412109 C-14.208999633789062,-11.333000183105469 -11.333000183105469,-14.208999633789062 -7.784999847412109,-14.208999633789062 C-7.784999847412109,-14.208999633789062 7.784999847412109,-14.208999633789062 7.784999847412109,-14.208999633789062 C11.333000183105469,-14.208999633789062 14.208999633789062,-11.333000183105469 14.208999633789062,-7.784999847412109 C14.208999633789062,-7.784999847412109 14.208999633789062,7.784999847412109 14.208999633789062,7.784999847412109 C14.208999633789062,11.333000183105469 11.333000183105469,14.208999633789062 7.784999847412109,14.208999633789062z"/></g></g><g style="display: block;" transform="matrix(1,0,0,1,325.510009765625,159.4409942626953)" opacity="1"><g opacity="1" transform="matrix(1,0,0,1,0,0)"><path fill="rgb(0,242,255)" fill-opacity="1" d=" M7.784999847412109,14.208999633789062 C7.784999847412109,14.208999633789062 -7.784999847412109,14.208999633789062 -7.784999847412109,14.208999633789062 C-11.333000183105469,14.208999633789062 -14.208999633789062,11.333000183105469 -14.208999633789062,7.784999847412109 C-14.208999633789062,7.784999847412109 -14.208999633789062,-7.784999847412109 -14.208999633789062,-7.784999847412109 C-14.208999633789062,-11.333000183105469 -11.333000183105469,-14.208999633789062 -7.784999847412109,-14.208999633789062 C-7.784999847412109,-14.208999633789062 7.784999847412109,-14.208999633789062 7.784999847412109,-14.208999633789062 C11.333000183105469,-14.208999633789062 14.208999633789062,-11.333000183105469 14.208999633789062,-7.784999847412109 C14.208999633789062,-7.784999847412109 14.208999633789062,7.784999847412109 14.208999633789062,7.784999847412109 C14.208999633789062,11.333000183105469 11.333000183105469,14.208999633789062 7.784999847412109,14.208999633789062z"/></g></g><g style="display: block;" transform="matrix(1,0,0,1,186.71099853515625,209.95199584960938)" opacity="1"><g opacity="1" transform="matrix(1,0,0,1,0,0)"><path fill="rgb(255,248,0)" fill-opacity="1" d=" M7.784999847412109,14.208999633789062 C7.784999847412109,14.208999633789062 -7.784999847412109,14.208999633789062 -7.784999847412109,14.208999633789062 C-11.333000183105469,14.208999633789062 -14.208999633789062,11.333000183105469 -14.208999633789062,7.784999847412109 C-14.208999633789062,7.784999847412109 -14.208999633789062,-7.784999847412109 -14.208999633789062,-7.784999847412109 C-14.208999633789062,-11.333000183105469 -11.333000183105469,-14.208999633789062 -7.784999847412109,-14.208999633789062 C-7.784999847412109,-14.208999633789062 7.784999847412109,-14.208999633789062 7.784999847412109,-14.208999633789062 C11.333000183105469,-14.208999633789062 14.208999633789062,-11.333000183105469 14.208999633789062,-7.784999847412109 C14.208999633789062,-7.784999847412109 14.208999633789062,7.784999847412109 14.208999633789062,7.784999847412109 C14.208999633789062,11.333000183105469 11.333000183105469,14.208999633789062 7.784999847412109,14.208999633789062z"/></g></g><g style="display: block;" transform="matrix(1,0,0,1,232.9770050048828,209.95199584960938)" opacity="1"><g opacity="1" transform="matrix(1,0,0,1,0,0)"><path fill="rgb(255,255,255)" fill-opacity="1" d=" M7.784999847412109,14.208999633789062 C7.784999847412109,14.208999633789062 -7.784999847412109,14.208999633789062 -7.784999847412109,14.208999633789062 C-11.333000183105469,14.208999633789062 -14.208999633789062,11.333000183105469 -14.208999633789062,7.784999847412109 C-14.208999633789062,7.784999847412109 -14.208999633789062,-7.784999847412109 -14.208999633789062,-7.784999847412109 C-14.208999633789062,-11.333000183105469 -11.333000183105469,-14.208999633789062 -7.784999847412109,-14.208999633789062 C-7.784999847412109,-14.208999633789062 7.784999847412109,-14.208999633789062 7.784999847412109,-14.208999633789062 C11.333000183105469,-14.208999633789062 14.208999633789062,-11.333000183105469 14.208999633789062,-7.784999847412109 C14.208999633789062,-7.784999847412109 14.208999633789062,7.784999847412109 14.208999633789062,7.784999847412109 C14.208999633789062,11.333000183105469 11.333000183105469,14.208999633789062 7.784999847412109,14.208999633789062z"/></g></g><g style="display: block;" transform="matrix(1,0,0,1,279.2439880371094,209.95199584960938)" opacity="1"><g opacity="1" transform="matrix(1,0,0,1,0,0)"><path fill="rgb(255,72,77)" fill-opacity="1" d=" M7.784999847412109,14.208999633789062 C7.784999847412109,14.208999633789062 -7.784999847412109,14.208999633789062 -7.784999847412109,14.208999633789062 C-11.333000183105469,14.208999633789062 -14.208999633789062,11.333000183105469 -14.208999633789062,7.784999847412109 C-14.208999633789062,7.784999847412109 -14.208999633789062,-7.784999847412109 -14.208999633789062,-7.784999847412109 C-14.208999633789062,-11.333000183105469 -11.333000183105469,-14.208999633789062 -7.784999847412109,-14.208999633789062 C-7.784999847412109,-14.208999633789062 7.784999847412109,-14.208999633789062 7.784999847412109,-14.208999633789062 C11.333000183105469,-14.208999633789062 14.208999633789062,-11.333000183105469 14.208999633789062,-7.784999847412109 C14.208999633789062,-7.784999847412109 14.208999633789062,7.784999847412109 14.208999633789062,7.784999847412109 C14.208999633789062,11.333000183105469 11.333000183105469,14.208999633789062 7.784999847412109,14.208999633789062z"/></g></g><g style="display: block;" transform="matrix(1,0,0,1,325.510009765625,209.95199584960938)" opacity="1"><g opacity="1" transform="matrix(1,0,0,1,0,0)"><path fill="rgb(122,122,122)" fill-opacity="1" d=" M7.784999847412109,14.208999633789062 C7.784999847412109,14.208999633789062 -7.784999847412109,14.208999633789062 -7.784999847412109,14.208999633789062 C-11.333000183105469,14.208999633789062 -14.208999633789062,11.333000183105469 -14.208999633789062,7.784999847412109 C-14.208999633789062,7.784999847412109 -14.208999633789062,-7.784999847412109 -14.208999633789062,-7.784999847412109 C-14.208999633789062,-11.333000183105469 -11.333000183105469,-14.208999633789062 -7.784999847412109,-14.208999633789062 C-7.784999847412109,-14.208999633789062 7.784999847412109,-14.208999633789062 7.784999847412109,-14.208999633789062 C11.333000183105469,-14.208999633789062 14.208999633789062,-11.333000183105469 14.208999633789062,-7.784999847412109 C14.208999633789062,-7.784999847412109 14.208999633789062,7.784999847412109 14.208999633789062,7.784999847412109 C14.208999633789062,11.333000183105469 11.333000183105469,14.208999633789062 7.784999847412109,14.208999633789062z"/></g></g><g style="display: block;" transform="matrix(1,0,0,1,186.71099853515625,260.4639892578125)" opacity="1"><g opacity="1" transform="matrix(1,0,0,1,0,0)"><path fill="rgb(0,242,255)" fill-opacity="1" d=" M7.784999847412109,14.208999633789062 C7.784999847412109,14.208999633789062 -7.784999847412109,14.208999633789062 -7.784999847412109,14.208999633789062 C-11.333000183105469,14.208999633789062 -14.208999633789062,11.333000183105469 -14.208999633789062,7.784999847412109 C-14.208999633789062,7.784999847412109 -14.208999633789062,-7.784999847412109 -14.208999633789062,-7.784999847412109 C-14.208999633789062,-11.333000183105469 -11.333000183105469,-14.208999633789062 -7.784999847412109,-14.208999633789062 C-7.784999847412109,-14.208999633789062 7.784999847412109,-14.208999633789062 7.784999847412109,-14.208999633789062 C11.333000183105469,-14.208999633789062 14.208999633789062,-11.333000183105469 14.208999633789062,-7.784999847412109 C14.208999633789062,-7.784999847412109 14.208999633789062,7.784999847412109 14.208999633789062,7.784999847412109 C14.208999633789062,11.333000183105469 11.333000183105469,14.208999633789062 7.784999847412109,14.208999633789062z"/></g></g><g style="display: block;" transform="matrix(1,0,0,1,232.9770050048828,260.4639892578125)" opacity="1"><g opacity="1" transform="matrix(1,0,0,1,0,0)"><path fill="rgb(255,57,255)" fill-opacity="1" d=" M7.784999847412109,14.208999633789062 C7.784999847412109,14.208999633789062 -7.784999847412109,14.208999633789062 -7.784999847412109,14.208999633789062 C-11.333000183105469,14.208999633789062 -14.208999633789062,11.333000183105469 -14.208999633789062,7.784999847412109 C-14.208999633789062,7.784999847412109 -14.208999633789062,-7.784999847412109 -14.208999633789062,-7.784999847412109 C-14.208999633789062,-11.333000183105469 -11.333000183105469,-14.208999633789062 -7.784999847412109,-14.208999633789062 C-7.784999847412109,-14.208999633789062 7.784999847412109,-14.208999633789062 7.784999847412109,-14.208999633789062 C11.333000183105469,-14.208999633789062 14.208999633789062,-11.333000183105469 14.208999633789062,-7.784999847412109 C14.208999633789062,-7.784999847412109 14.208999633789062,7.784999847412109 14.208999633789062,7.784999847412109 C14.208999633789062,11.333000183105469 11.333000183105469,14.208999633789062 7.784999847412109,14.208999633789062z"/></g></g><g style="display: block;" transform="matrix(1,0,0,1,279.2439880371094,260.4639892578125)" opacity="1"><g opacity="1" transform="matrix(1,0,0,1,0,0)"><path fill="rgb(0,194,255)" fill-opacity="1" d=" M7.784999847412109,14.208999633789062 C7.784999847412109,14.208999633789062 -7.784999847412109,14.208999633789062 -7.784999847412109,14.208999633789062 C-11.333000183105469,14.208999633789062 -14.208999633789062,11.333000183105469 -14.208999633789062,7.784999847412109 C-14.208999633789062,7.784999847412109 -14.208999633789062,-7.784999847412109 -14.208999633789062,-7.784999847412109 C-14.208999633789062,-11.333000183105469 -11.333000183105469,-14.208999633789062 -7.784999847412109,-14.208999633789062 C-7.784999847412109,-14.208999633789062 7.784999847412109,-14.208999633789062 7.784999847412109,-14.208999633789062 C11.333000183105469,-14.208999633789062 14.208999633789062,-11.333000183105469 14.208999633789062,-7.784999847412109 C14.208999633789062,-7.784999847412109 14.208999633789062,7.784999847412109 14.208999633789062,7.784999847412109 C14.208999633789062,11.333000183105469 11.333000183105469,14.208999633789062 7.784999847412109,14.208999633789062z"/></g></g><g style="display: block;" transform="matrix(1,0,0,1,325.510009765625,260.4639892578125)" opacity="1"><g opacity="1" transform="matrix(1,0,0,1,0,0)"><path fill="rgb(0,241,56)" fill-opacity="1" d=" M7.784999847412109,14.208999633789062 C7.784999847412109,14.208999633789062 -7.784999847412109,14.208999633789062 -7.784999847412109,14.208999633789062 C-11.333000183105469,14.208999633789062 -14.208999633789062,11.333000183105469 -14.208999633789062,7.784999847412109 C-14.208999633789062,7.784999847412109 -14.208999633789062,-7.784999847412109 -14.208999633789062,-7.784999847412109 C-14.208999633789062,-11.333000183105469 -11.333000183105469,-14.208999633789062 -7.784999847412109,-14.208999633789062 C-7.784999847412109,-14.208999633789062 7.784999847412109,-14.208999633789062 7.784999847412109,-14.208999633789062 C11.333000183105469,-14.208999633789062 14.208999633789062,-11.333000183105469 14.208999633789062,-7.784999847412109 C14.208999633789062,-7.784999847412109 14.208999633789062,7.784999847412109 14.208999633789062,7.784999847412109 C14.208999633789062,11.333000183105469 11.333000183105469,14.208999633789062 7.784999847412109,14.208999633789062z"/></g></g><g style="display: block;" transform="matrix(1,0,0,1,186.71099853515625,310.9750061035156)" opacity="1"><g opacity="1" transform="matrix(1,0,0,1,0,0)"><path fill="rgb(255,255,255)" fill-opacity="1" d=" M7.784999847412109,14.208999633789062 C7.784999847412109,14.208999633789062 -7.784999847412109,14.208999633789062 -7.784999847412109,14.208999633789062 C-11.333000183105469,14.208999633789062 -14.208999633789062,11.333000183105469 -14.208999633789062,7.784999847412109 C-14.208999633789062,7.784999847412109 -14.208999633789062,-7.784999847412109 -14.208999633789062,-7.784999847412109 C-14.208999633789062,-11.333000183105469 -11.333000183105469,-14.208999633789062 -7.784999847412109,-14.208999633789062 C-7.784999847412109,-14.208999633789062 7.784999847412109,-14.208999633789062 7.784999847412109,-14.208999633789062 C11.333000183105469,-14.208999633789062 14.208999633789062,-11.333000183105469 14.208999633789062,-7.784999847412109 C14.208999633789062,-7.784999847412109 14.208999633789062,7.784999847412109 14.208999633789062,7.784999847412109 C14.208999633789062,11.333000183105469 11.333000183105469,14.208999633789062 7.784999847412109,14.208999633789062z"/></g></g><g style="display: block;" transform="matrix(1,0,0,1,232.9770050048828,310.9750061035156)" opacity="1"><g opacity="1" transform="matrix(1,0,0,1,0,0)"><path fill="rgb(255,248,0)" fill-opacity="1" d=" M7.784999847412109,14.208999633789062 C7.784999847412109,14.208999633789062 -7.784999847412109,14.208999633789062 -7.784999847412109,14.208999633789062 C-11.333000183105469,14.208999633789062 -14.208999633789062,11.333000183105469 -14.208999633789062,7.784999847412109 C-14.208999633789062,7.784999847412109 -14.208999633789062,-7.784999847412109 -14.208999633789062,-7.784999847412109 C-14.208999633789062,-11.333000183105469 -11.333000183105469,-14.208999633789062 -7.784999847412109,-14.208999633789062 C-7.784999847412109,-14.208999633789062 7.784999847412109,-14.208999633789062 7.784999847412109,-14.208999633789062 C11.333000183105469,-14.208999633789062 14.208999633789062,-11.333000183105469 14.208999633789062,-7.784999847412109 C14.208999633789062,-7.784999847412109 14.208999633789062,7.784999847412109 14.208999633789062,7.784999847412109 C14.208999633789062,11.333000183105469 11.333000183105469,14.208999633789062 7.784999847412109,14.208999633789062z"/></g></g><g style="display: block;" transform="matrix(1,0,0,1,279.2439880371094,310.9750061035156)" opacity="1"><g opacity="1" transform="matrix(1,0,0,1,0,0)"><path fill="rgb(122,122,122)" fill-opacity="1" d=" M7.784999847412109,14.208999633789062 C7.784999847412109,14.208999633789062 -7.784999847412109,14.208999633789062 -7.784999847412109,14.208999633789062 C-11.333000183105469,14.208999633789062 -14.208999633789062,11.333000183105469 -14.208999633789062,7.784999847412109 C-14.208999633789062,7.784999847412109 -14.208999633789062,-7.784999847412109 -14.208999633789062,-7.784999847412109 C-14.208999633789062,-11.333000183105469 -11.333000183105469,-14.208999633789062 -7.784999847412109,-14.208999633789062 C-7.784999847412109,-14.208999633789062 7.784999847412109,-14.208999633789062 7.784999847412109,-14.208999633789062 C11.333000183105469,-14.208999633789062 14.208999633789062,-11.333000183105469 14.208999633789062,-7.784999847412109 C14.208999633789062,-7.784999847412109 14.208999633789062,7.784999847412109 14.208999633789062,7.784999847412109 C14.208999633789062,11.333000183105469 11.333000183105469,14.208999633789062 7.784999847412109,14.208999633789062z"/></g></g><g style="display: block;" transform="matrix(1,0,0,1,325.510009765625,310.9750061035156)" opacity="1"><g opacity="1" transform="matrix(1,0,0,1,0,0)"><path fill="rgb(166,161,151)" fill-opacity="1" d=" M7.784999847412109,14.208999633789062 C7.784999847412109,14.208999633789062 -7.784999847412109,14.208999633789062 -7.784999847412109,14.208999633789062 C-11.333000183105469,14.208999633789062 -14.208999633789062,11.333000183105469 -14.208999633789062,7.784999847412109 C-14.208999633789062,7.784999847412109 -14.208999633789062,-7.784999847412109 -14.208999633789062,-7.784999847412109 C-14.208999633789062,-11.333000183105469 -11.333000183105469,-14.208999633789062 -7.784999847412109,-14.208999633789062 C-7.784999847412109,-14.208999633789062 7.784999847412109,-14.208999633789062 7.784999847412109,-14.208999633789062 C11.333000183105469,-14.208999633789062 14.208999633789062,-11.333000183105469 14.208999633789062,-7.784999847412109 C14.208999633789062,-7.784999847412109 14.208999633789062,7.784999847412109 14.208999633789062,7.784999847412109 C14.208999633789062,11.333000183105469 11.333000183105469,14.208999633789062 7.784999847412109,14.208999633789062z"/></g></g><g style="display: block;" transform="matrix(1,0,0,1,186.71099853515625,361.4859924316406)" opacity="1"><g opacity="1" transform="matrix(1,0,0,1,0,0)"><path fill="rgb(0,194,255)" fill-opacity="1" d=" M7.784999847412109,14.208999633789062 C7.784999847412109,14.208999633789062 -7.784999847412109,14.208999633789062 -7.784999847412109,14.208999633789062 C-11.333000183105469,14.208999633789062 -14.208999633789062,11.333000183105469 -14.208999633789062,7.784999847412109 C-14.208999633789062,7.784999847412109 -14.208999633789062,-7.784999847412109 -14.208999633789062,-7.784999847412109 C-14.208999633789062,-11.333000183105469 -11.333000183105469,-14.208999633789062 -7.784999847412109,-14.208999633789062 C-7.784999847412109,-14.208999633789062 7.784999847412109,-14.208999633789062 7.784999847412109,-14.208999633789062 C11.333000183105469,-14.208999633789062 14.208999633789062,-11.333000183105469 14.208999633789062,-7.784999847412109 C14.208999633789062,-7.784999847412109 14.208999633789062,7.784999847412109 14.208999633789062,7.784999847412109 C14.208999633789062,11.333000183105469 11.333000183105469,14.208999633789062 7.784999847412109,14.208999633789062z"/></g></g><g style="display: block;" transform="matrix(1,0,0,1,232.9770050048828,361.4859924316406)" opacity="1"><g opacity="1" transform="matrix(1,0,0,1,0,0)"><path fill="rgb(255,72,77)" fill-opacity="1" d=" M7.784999847412109,14.208999633789062 C7.784999847412109,14.208999633789062 -7.784999847412109,14.208999633789062 -7.784999847412109,14.208999633789062 C-11.333000183105469,14.208999633789062 -14.208999633789062,11.333000183105469 -14.208999633789062,7.784999847412109 C-14.208999633789062,7.784999847412109 -14.208999633789062,-7.784999847412109 -14.208999633789062,-7.784999847412109 C-14.208999633789062,-11.333000183105469 -11.333000183105469,-14.208999633789062 -7.784999847412109,-14.208999633789062 C-7.784999847412109,-14.208999633789062 7.784999847412109,-14.208999633789062 7.784999847412109,-14.208999633789062 C11.333000183105469,-14.208999633789062 14.208999633789062,-11.333000183105469 14.208999633789062,-7.784999847412109 C14.208999633789062,-7.784999847412109 14.208999633789062,7.784999847412109 14.208999633789062,7.784999847412109 C14.208999633789062,11.333000183105469 11.333000183105469,14.208999633789062 7.784999847412109,14.208999633789062z"/></g></g><g style="display: block;" transform="matrix(1,0,0,1,279.2439880371094,361.4859924316406)" opacity="1"><g opacity="1" transform="matrix(1,0,0,1,0,0)"><path fill="rgb(255,255,255)" fill-opacity="1" d=" M7.784999847412109,14.208999633789062 C7.784999847412109,14.208999633789062 -7.784999847412109,14.208999633789062 -7.784999847412109,14.208999633789062 C-11.333000183105469,14.208999633789062 -14.208999633789062,11.333000183105469 -14.208999633789062,7.784999847412109 C-14.208999633789062,7.784999847412109 -14.208999633789062,-7.784999847412109 -14.208999633789062,-7.784999847412109 C-14.208999633789062,-11.333000183105469 -11.333000183105469,-14.208999633789062 -7.784999847412109,-14.208999633789062 C-7.784999847412109,-14.208999633789062 7.784999847412109,-14.208999633789062 7.784999847412109,-14.208999633789062 C11.333000183105469,-14.208999633789062 14.208999633789062,-11.333000183105469 14.208999633789062,-7.784999847412109 C14.208999633789062,-7.784999847412109 14.208999633789062,7.784999847412109 14.208999633789062,7.784999847412109 C14.208999633789062,11.333000183105469 11.333000183105469,14.208999633789062 7.784999847412109,14.208999633789062z"/></g></g></g></g><g style="display: none;" transform="matrix(0,0,0,0,216.31982421875,454.798828125)" opacity="1"><g opacity="1" transform="matrix(1,0,0,1,0,0)"><path fill="rgb(90,77,101)" fill-opacity="1" d=" M-74.03399658203125,23.05699920654297 C-83.53399658203125,23.05699920654297 -91.26200103759766,15.329000473022461 -91.26200103759766,5.828999996185303 C-91.26200103759766,5.828999996185303 -91.26200103759766,-5.828999996185303 -91.26200103759766,-5.828999996185303 C-91.26200103759766,-15.329000473022461 -83.53399658203125,-23.05699920654297 -74.03399658203125,-23.05699920654297 C-74.03399658203125,-23.05699920654297 74.03399658203125,-23.05699920654297 74.03399658203125,-23.05699920654297 C83.53399658203125,-23.05699920654297 91.26200103759766,-15.329000473022461 91.26200103759766,-5.828999996185303 C91.26200103759766,-5.828999996185303 91.26200103759766,5.828999996185303 91.26200103759766,5.828999996185303 C91.26200103759766,15.329000473022461 83.53399658203125,23.05699920654297 74.03399658203125,23.05699920654297 C74.03399658203125,23.05699920654297 -74.03399658203125,23.05699920654297 -74.03399658203125,23.05699920654297z"/></g></g><g style="display: none;" transform="matrix(0,0,0,0,216.31982421875,454.798828125)" opacity="1"><g opacity="1" transform="matrix(1,0,0,1,186.71099853515625,433.7340087890625)"><path fill="rgb(0,241,56)" fill-opacity="1" d=" M7.784999847412109,14.208999633789062 C7.784999847412109,14.208999633789062 -7.784999847412109,14.208999633789062 -7.784999847412109,14.208999633789062 C-11.333000183105469,14.208999633789062 -14.208999633789062,11.333000183105469 -14.208999633789062,7.784999847412109 C-14.208999633789062,7.784999847412109 -14.208999633789062,-7.784999847412109 -14.208999633789062,-7.784999847412109 C-14.208999633789062,-11.333000183105469 -11.333000183105469,-14.208999633789062 -7.784999847412109,-14.208999633789062 C-7.784999847412109,-14.208999633789062 7.784999847412109,-14.208999633789062 7.784999847412109,-14.208999633789062 C11.333000183105469,-14.208999633789062 14.208999633789062,-11.333000183105469 14.208999633789062,-7.784999847412109 C14.208999633789062,-7.784999847412109 14.208999633789062,7.784999847412109 14.208999633789062,7.784999847412109 C14.208999633789062,11.333000183105469 11.333000183105469,14.208999633789062 7.784999847412109,14.208999633789062z"/></g><g opacity="1" transform="matrix(1,0,0,1,232.9770050048828,433.7340087890625)"><path fill="rgb(0,242,255)" fill-opacity="1" d=" M7.784999847412109,14.208999633789062 C7.784999847412109,14.208999633789062 -7.784999847412109,14.208999633789062 -7.784999847412109,14.208999633789062 C-11.333000183105469,14.208999633789062 -14.208999633789062,11.333000183105469 -14.208999633789062,7.784999847412109 C-14.208999633789062,7.784999847412109 -14.208999633789062,-7.784999847412109 -14.208999633789062,-7.784999847412109 C-14.208999633789062,-11.333000183105469 -11.333000183105469,-14.208999633789062 -7.784999847412109,-14.208999633789062 C-7.784999847412109,-14.208999633789062 7.784999847412109,-14.208999633789062 7.784999847412109,-14.208999633789062 C11.333000183105469,-14.208999633789062 14.208999633789062,-11.333000183105469 14.208999633789062,-7.784999847412109 C14.208999633789062,-7.784999847412109 14.208999633789062,7.784999847412109 14.208999633789062,7.784999847412109 C14.208999633789062,11.333000183105469 11.333000183105469,14.208999633789062 7.784999847412109,14.208999633789062z"/></g><g opacity="1" transform="matrix(1,0,0,1,279.2439880371094,433.7340087890625)"><path fill="rgb(0,241,56)" fill-opacity="1" d=" M7.784999847412109,14.208999633789062 C7.784999847412109,14.208999633789062 -7.784999847412109,14.208999633789062 -7.784999847412109,14.208999633789062 C-11.333000183105469,14.208999633789062 -14.208999633789062,11.333000183105469 -14.208999633789062,7.784999847412109 C-14.208999633789062,7.784999847412109 -14.208999633789062,-7.784999847412109 -14.208999633789062,-7.784999847412109 C-14.208999633789062,-11.333000183105469 -11.333000183105469,-14.208999633789062 -7.784999847412109,-14.208999633789062 C-7.784999847412109,-14.208999633789062 7.784999847412109,-14.208999633789062 7.784999847412109,-14.208999633789062 C11.333000183105469,-14.208999633789062 14.208999633789062,-11.333000183105469 14.208999633789062,-7.784999847412109 C14.208999633789062,-7.784999847412109 14.208999633789062,7.784999847412109 14.208999633789062,7.784999847412109 C14.208999633789062,11.333000183105469 11.333000183105469,14.208999633789062 7.784999847412109,14.208999633789062z"/></g><g opacity="1" transform="matrix(1,0,0,1,325.510009765625,433.7340087890625)"><path fill="rgb(255,255,255)" fill-opacity="1" d=" M7.784999847412109,14.208999633789062 C7.784999847412109,14.208999633789062 -7.784999847412109,14.208999633789062 -7.784999847412109,14.208999633789062 C-11.333000183105469,14.208999633789062 -14.208999633789062,11.333000183105469 -14.208999633789062,7.784999847412109 C-14.208999633789062,7.784999847412109 -14.208999633789062,-7.784999847412109 -14.208999633789062,-7.784999847412109 C-14.208999633789062,-11.333000183105469 -11.333000183105469,-14.208999633789062 -7.784999847412109,-14.208999633789062 C-7.784999847412109,-14.208999633789062 7.784999847412109,-14.208999633789062 7.784999847412109,-14.208999633789062 C11.333000183105469,-14.208999633789062 14.208999633789062,-11.333000183105469 14.208999633789062,-7.784999847412109 C14.208999633789062,-7.784999847412109 14.208999633789062,7.784999847412109 14.208999633789062,7.784999847412109 C14.208999633789062,11.333000183105469 11.333000183105469,14.208999633789062 7.784999847412109,14.208999633789062z"/></g></g><g style="display: block;" transform="matrix(0,0,0.12643785774707794,0.9755684733390808,225.69981384277344,6.018816947937012)" opacity="1"><g opacity="1" transform="matrix(1,0,0,1,256.1109924316406,257.2340087890625)"><path fill="url(#__lottie_element_41)" mask="url(#__lottie_element_43)" fill-opacity="1" d="M0 0 M-71.11900329589844,204.5570068359375 C-85.00499725341797,204.5570068359375 -96.26200103759766,193.3000030517578 -96.26200103759766,179.41400146484375 C-96.26200103759766,179.41400146484375 -96.26200103759766,-179.41400146484375 -96.26200103759766,-179.41400146484375 C-96.26200103759766,-193.3000030517578 -85.00499725341797,-204.5570068359375 -71.11900329589844,-204.5570068359375 C-71.11900329589844,-204.5570068359375 71.11900329589844,-204.5570068359375 71.11900329589844,-204.5570068359375 C85.00499725341797,-204.5570068359375 96.26200103759766,-193.3000030517578 96.26200103759766,-179.41400146484375 C96.26200103759766,-179.41400146484375 96.26200103759766,179.41400146484375 96.26200103759766,179.41400146484375 C96.26200103759766,193.3000030517578 85.00499725341797,204.5570068359375 71.11900329589844,204.5570068359375 C71.11900329589844,204.5570068359375 -71.11900329589844,204.5570068359375 -71.11900329589844,204.5570068359375z"/></g></g><g style="display: none;" transform="matrix(0,0,-0.11869025975465775,1.0024926662445068,270.4703674316406,-2.572404146194458)" opacity="1"><g opacity="1" transform="matrix(1,0,0,1,256.40301513671875,65.1969985961914)"><path fill="rgb(0,0,0)" fill-opacity="1" d=" M22.19700050354004,8.520999908447266 C22.19700050354004,8.520999908447266 -22.19700050354004,8.520999908447266 -22.19700050354004,8.520999908447266 C-26.902999877929688,8.520999908447266 -30.718000411987305,4.705999851226807 -30.718000411987305,0 C-30.718000411987305,0 -30.718000411987305,0 -30.718000411987305,0 C-30.718000411987305,-4.705999851226807 -26.902999877929688,-8.520999908447266 -22.19700050354004,-8.520999908447266 C-22.19700050354004,-8.520999908447266 22.19700050354004,-8.520999908447266 22.19700050354004,-8.520999908447266 C26.902999877929688,-8.520999908447266 30.718000411987305,-4.705999851226807 30.718000411987305,0 C30.718000411987305,0 30.718000411987305,0 30.718000411987305,0 C30.718000411987305,4.705999851226807 26.902999877929688,8.520999908447266 22.19700050354004,8.520999908447266z"/></g><g opacity="1" transform="matrix(1,0,0,1,278.5989990234375,65.1969985961914)"><path fill="rgb(3,32,63)" fill-opacity="1" d=" M3.1640000343322754,0 C3.1640000343322754,1.7480000257492065 1.7480000257492065,3.1640000343322754 0,3.1640000343322754 C-1.7480000257492065,3.1640000343322754 -3.1640000343322754,1.7480000257492065 -3.1640000343322754,0 C-3.1640000343322754,-1.7480000257492065 -1.7480000257492065,-3.1640000343322754 0,-3.1640000343322754 C1.7480000257492065,-3.1640000343322754 3.1640000343322754,-1.7480000257492065 3.1640000343322754,0z"/></g><g opacity="1" transform="matrix(1,0,0,1,278.67999267578125,66.99299621582031)"><path fill="rgb(255,255,255)" fill-opacity="1" d=" M0.8149999976158142,0 C0.8149999976158142,0.44999998807907104 0.44999998807907104,0.8149999976158142 0,0.8149999976158142 C-0.44999998807907104,0.8149999976158142 -0.8149999976158142,0.44999998807907104 -0.8149999976158142,0 C-0.8149999976158142,-0.44999998807907104 -0.44999998807907104,-0.8149999976158142 0,-0.8149999976158142 C0.44999998807907104,-0.8149999976158142 0.8149999976158142,-0.44999998807907104 0.8149999976158142,0z"/></g><g opacity="1" transform="matrix(1,0,0,1,278.5989990234375,63.99300003051758)"><path fill="rgb(146,77,153)" fill-opacity="1" d=" M0,1.2039999961853027 C-0.9390000104904175,1.2039999961853027 -1.7009999752044678,0.6650000214576721 -1.7009999752044678,0 C-1.7009999752044678,-0.6650000214576721 -0.9390000104904175,-1.2039999961853027 0,-1.2039999961853027 C0.9390000104904175,-1.2039999961853027 1.7009999752044678,-0.6650000214576721 1.7009999752044678,0 C1.7009999752044678,0.6650000214576721 0.9390000104904175,1.2039999961853027 0,1.2039999961853027z"/></g></g></g></svg>