<svg xmlns="http://www.w3.org/2000/svg" xmlns:xlink="http://www.w3.org/1999/xlink" viewBox="0 0 512 512" width="512" height="512" style="width: 100%; height: 100%; transform: translate3d(0px, 0px, 0px); content-visibility: visible;" preserveAspectRatio="xMidYMid meet"><defs><clipPath id="__lottie_element_29"><rect width="512" height="512" x="0" y="0"/></clipPath><linearGradient id="__lottie_element_36" spreadMethod="pad" gradientUnits="userSpaceOnUse" x1="-120.33200073242188" y1="-0.3889999985694885" x2="120.13600158691406" y2="-0.3889999985694885"><stop offset="0%" stop-color="rgb(255,104,97)"/><stop offset="38%" stop-color="rgb(238,85,78)"/><stop offset="76%" stop-color="rgb(221,66,58)"/></linearGradient><linearGradient id="__lottie_element_37" spreadMethod="pad" gradientUnits="userSpaceOnUse" x1="-10.375" y1="2.930000066757202" x2="-119.11100006103516" y2="-22.35700035095215"><stop offset="0%" stop-color="rgb(212,221,232)"/><stop offset="50%" stop-color="rgb(227,238,241)"/><stop offset="100%" stop-color="rgb(242,255,250)"/></linearGradient><radialGradient id="__lottie_element_38" spreadMethod="pad" gradientUnits="userSpaceOnUse" cx="-11.074000358581543" cy="50.5890007019043" r="100.22617739766157" fx="-11.074000358581543" fy="50.5890007019043"><stop offset="55%" stop-color="rgb(212,221,232)"/><stop offset="70%" stop-color="rgb(189,198,210)"/><stop offset="85%" stop-color="rgb(166,176,188)"/></radialGradient><radialGradient id="__lottie_element_39" spreadMethod="pad" gradientUnits="userSpaceOnUse" cx="-16.881000518798828" cy="57.09199905395508" r="109.2248889743423" fx="-16.881000518798828" fy="57.09199905395508"><stop offset="31%" stop-color="rgb(212,221,232)"/><stop offset="51%" stop-color="rgb(189,198,210)"/><stop offset="71%" stop-color="rgb(166,176,188)"/></radialGradient><linearGradient id="__lottie_element_40" spreadMethod="pad" gradientUnits="userSpaceOnUse" x1="4.563000202178955" y1="-17.069000244140625" x2="20.823999404907227" y2="57.73500061035156"><stop offset="0%" stop-color="rgb(255,104,97)"/><stop offset="47%" stop-color="rgb(224,71,68)"/><stop offset="95%" stop-color="rgb(193,39,39)"/></linearGradient><linearGradient id="__lottie_element_55" spreadMethod="pad" gradientUnits="userSpaceOnUse" x1="-14.0649995803833" y1="34.387001037597656" x2="16.763999938964844" y2="-38.874000549316406"><stop offset="3%" stop-color="rgb(244,122,122)" stop-opacity="0"/><stop offset="15%" stop-color="rgb(244,122,122)" stop-opacity="0.5"/><stop offset="27%" stop-color="rgb(244,122,122)" stop-opacity="1"/><stop offset="51%" stop-color="rgb(244,133,135)" stop-opacity="1"/><stop offset="75%" stop-color="rgb(244,143,149)" stop-opacity="1"/><stop offset="88%" stop-color="rgb(244,133,135)" stop-opacity="0.5"/><stop offset="100%" stop-color="rgb(244,122,122)" stop-opacity="0"/></linearGradient><radialGradient id="__lottie_element_56" spreadMethod="pad" gradientUnits="userSpaceOnUse" cx="26.569000244140625" cy="44.2869987487793" r="72.25712742737755" fx="26.569000244140625" fy="44.2869987487793"><stop offset="87%" stop-color="rgb(255,104,97)" stop-opacity="1"/><stop offset="95%" stop-color="rgb(255,104,97)" stop-opacity="0.5"/><stop offset="100%" stop-color="rgb(255,104,97)" stop-opacity="0"/></radialGradient><linearGradient id="__lottie_element_57" spreadMethod="pad" gradientUnits="userSpaceOnUse" x1="49.82400131225586" y1="27.465999603271484" x2="116.2770004272461" y2="70.41400146484375"><stop offset="22%" stop-color="rgb(193,39,39)" stop-opacity="0"/><stop offset="48%" stop-color="rgb(193,39,39)" stop-opacity="0.5"/><stop offset="75%" stop-color="rgb(193,39,39)" stop-opacity="1"/></linearGradient><linearGradient id="__lottie_element_58" spreadMethod="pad" gradientUnits="userSpaceOnUse" x1="23.69300079345703" y1="-41.534000396728516" x2="34.00600051879883" y2="-64.54000091552734"><stop offset="0%" stop-color="rgb(193,39,39)" stop-opacity="0"/><stop offset="50%" stop-color="rgb(193,39,39)" stop-opacity="0.5"/><stop offset="100%" stop-color="rgb(193,39,39)" stop-opacity="1"/></linearGradient><linearGradient id="__lottie_element_59" spreadMethod="pad" gradientUnits="userSpaceOnUse" x1="-35.63999938964844" y1="70.072998046875" x2="11.14799976348877" y2="-49.5369987487793"><stop offset="0%" stop-color="rgb(255,255,255)" stop-opacity="1"/><stop offset="59%" stop-color="rgb(255,255,255)" stop-opacity="0.5"/><stop offset="100%" stop-color="rgb(255,255,255)" stop-opacity="0"/></linearGradient><linearGradient id="__lottie_element_60" spreadMethod="pad" gradientUnits="userSpaceOnUse" x1="61.81700134277344" y1="-87.43199920654297" x2="71.5999984741211" y2="-105.76100158691406"><stop offset="0%" stop-color="rgb(255,255,255)" stop-opacity="0"/><stop offset="26%" stop-color="rgb(255,255,255)" stop-opacity="0.20000000298023224"/><stop offset="52%" stop-color="rgb(255,255,255)" stop-opacity="0.4000000059604645"/><stop offset="80%" stop-color="rgb(255,255,255)" stop-opacity="0.20000000298023224"/><stop offset="100%" stop-color="rgb(255,255,255)" stop-opacity="0"/></linearGradient><linearGradient id="__lottie_element_61" spreadMethod="pad" gradientUnits="userSpaceOnUse" x1="11.859000205993652" y1="-112.052001953125" x2="44.39799880981445" y2="-97.91000366210938"><stop offset="1%" stop-color="rgb(255,104,97)" stop-opacity="1"/><stop offset="60%" stop-color="rgb(255,104,97)" stop-opacity="0.5"/><stop offset="100%" stop-color="rgb(255,104,97)" stop-opacity="0"/></linearGradient><radialGradient id="__lottie_element_62" spreadMethod="pad" gradientUnits="userSpaceOnUse" cx="88.80699920654297" cy="44.465999603271484" r="105.56851400482621" fx="88.80699920654297" fy="44.465999603271484"><stop offset="5%" stop-color="rgb(193,39,39)" stop-opacity="1"/><stop offset="46%" stop-color="rgb(193,39,39)" stop-opacity="0.5"/><stop offset="87%" stop-color="rgb(193,39,39)" stop-opacity="0"/></radialGradient><radialGradient id="__lottie_element_63" spreadMethod="pad" gradientUnits="userSpaceOnUse" cx="-83.29499816894531" cy="-8.336000442504883" r="122.69215042578675" fx="-83.29499816894531" fy="-8.336000442504883"><stop offset="72%" stop-color="rgb(186,76,67)" stop-opacity="0"/><stop offset="82%" stop-color="rgb(199,83,79)" stop-opacity="0.5"/><stop offset="92%" stop-color="rgb(213,91,91)" stop-opacity="1"/><stop offset="95%" stop-color="rgb(213,91,91)" stop-opacity="0.5"/><stop offset="98%" stop-color="rgb(213,91,91)" stop-opacity="0"/></radialGradient><radialGradient id="__lottie_element_73" spreadMethod="pad" gradientUnits="userSpaceOnUse" cx="-22.6560001373291" cy="-82.31400299072266" r="112.79457904668982" fx="-22.6560001373291" fy="-82.31400299072266"><stop offset="74%" stop-color="rgb(240,244,247)"/><stop offset="81%" stop-color="rgb(228,234,237)"/><stop offset="88%" stop-color="rgb(217,223,227)"/></radialGradient><linearGradient id="__lottie_element_74" spreadMethod="pad" gradientUnits="userSpaceOnUse" x1="-10.980999946594238" y1="-0.9369999766349792" x2="10.592000007629395" y2="-0.9369999766349792"><stop offset="0%" stop-color="rgb(166,180,190)" stop-opacity="1"/><stop offset="50%" stop-color="rgb(166,180,190)" stop-opacity="0.5"/><stop offset="100%" stop-color="rgb(166,180,190)" stop-opacity="0"/></linearGradient><linearGradient id="__lottie_element_75" spreadMethod="pad" gradientUnits="userSpaceOnUse" x1="-0.656000018119812" y1="-66.31400299072266" x2="-0.656000018119812" y2="65.47899627685547"><stop offset="22%" stop-color="rgb(166,176,188)"/><stop offset="34%" stop-color="rgb(154,167,178)"/><stop offset="45%" stop-color="rgb(142,158,168)"/></linearGradient><radialGradient id="__lottie_element_76" spreadMethod="pad" gradientUnits="userSpaceOnUse" cx="-0.3610000014305115" cy="-0.15000000596046448" r="16.61700052022934" fx="-0.3610000014305115" fy="-0.15000000596046448"><stop offset="60%" stop-color="rgb(212,221,232)"/><stop offset="78%" stop-color="rgb(189,198,210)"/><stop offset="95%" stop-color="rgb(166,176,188)"/></radialGradient><radialGradient id="__lottie_element_81" spreadMethod="pad" gradientUnits="userSpaceOnUse" cx="-5.730999946594238" cy="-56.505001068115234" r="97.03792145596445" fx="-5.730999946594238" fy="-56.505001068115234"><stop offset="65%" stop-color="rgb(240,244,247)"/><stop offset="73%" stop-color="rgb(228,234,237)"/><stop offset="80%" stop-color="rgb(217,223,227)"/></radialGradient><linearGradient id="__lottie_element_82" spreadMethod="pad" gradientUnits="userSpaceOnUse" x1="-39.152000427246094" y1="4.841000080108643" x2="-46.1510009765625" y2="107.39099884033203"><stop offset="22%" stop-color="rgb(166,176,188)"/><stop offset="43%" stop-color="rgb(154,167,178)"/><stop offset="61%" stop-color="rgb(142,158,168)"/></linearGradient><linearGradient id="__lottie_element_83" spreadMethod="pad" gradientUnits="userSpaceOnUse" x1="-1.4359999895095825" y1="-15.35099983215332" x2="-4.105000019073486" y2="-32.16600036621094"><stop offset="0%" stop-color="rgb(255,255,255)" stop-opacity="1"/><stop offset="59%" stop-color="rgb(255,255,255)" stop-opacity="0.5"/><stop offset="100%" stop-color="rgb(255,255,255)" stop-opacity="0"/></linearGradient><radialGradient id="__lottie_element_86" spreadMethod="pad" gradientUnits="userSpaceOnUse" cx="-0.3610000014305115" cy="-0.15000000596046448" r="16.61700052022934" fx="-0.3610000014305115" fy="-0.15000000596046448"><stop offset="60%" stop-color="rgb(212,221,232)"/><stop offset="78%" stop-color="rgb(189,198,210)"/><stop offset="95%" stop-color="rgb(166,176,188)"/></radialGradient><linearGradient id="__lottie_element_91" spreadMethod="pad" gradientUnits="userSpaceOnUse" x1="-136.45799255371094" y1="-0.9350000023841858" x2="134.927001953125" y2="-0.9350000023841858"><stop offset="0%" stop-color="rgb(255,104,97)"/><stop offset="38%" stop-color="rgb(238,85,78)"/><stop offset="76%" stop-color="rgb(221,66,58)"/></linearGradient><linearGradient id="__lottie_element_92" spreadMethod="pad" gradientUnits="userSpaceOnUse" x1="41.61199951171875" y1="18.5" x2="-66.95899963378906" y2="-6.748000144958496"><stop offset="0%" stop-color="rgb(212,221,232)"/><stop offset="50%" stop-color="rgb(229,236,241)"/><stop offset="100%" stop-color="rgb(247,251,250)"/></linearGradient><radialGradient id="__lottie_element_93" spreadMethod="pad" gradientUnits="userSpaceOnUse" cx="-37.016998291015625" cy="40.867000579833984" r="72.91059065598257" fx="-37.016998291015625" fy="40.867000579833984"><stop offset="54%" stop-color="rgb(220,226,231)"/><stop offset="77%" stop-color="rgb(198,207,214)"/><stop offset="100%" stop-color="rgb(177,187,197)"/></radialGradient><radialGradient id="__lottie_element_94" spreadMethod="pad" gradientUnits="userSpaceOnUse" cx="-24.98699951171875" cy="55.11199951171875" r="98.7078957601276" fx="-24.98699951171875" fy="55.11199951171875"><stop offset="54%" stop-color="rgb(220,226,231)"/><stop offset="77%" stop-color="rgb(198,207,214)"/><stop offset="100%" stop-color="rgb(177,187,197)"/></radialGradient><linearGradient id="__lottie_element_100" spreadMethod="pad" gradientUnits="userSpaceOnUse" x1="-13.458000183105469" y1="0.6880000233650208" x2="58.077999114990234" y2="3.7230000495910645"><stop offset="0%" stop-color="rgb(255,104,97)"/><stop offset="47%" stop-color="rgb(224,71,68)"/><stop offset="95%" stop-color="rgb(193,39,39)"/></linearGradient><linearGradient id="__lottie_element_101" spreadMethod="pad" gradientUnits="userSpaceOnUse" x1="-50.45800018310547" y1="44.6879997253418" x2="-62.06100082397461" y2="64.11699676513672"><stop offset="0%" stop-color="rgb(221,66,58)" stop-opacity="0"/><stop offset="50%" stop-color="rgb(201,55,48)" stop-opacity="0.5"/><stop offset="100%" stop-color="rgb(181,44,39)" stop-opacity="1"/></linearGradient><linearGradient id="__lottie_element_102" spreadMethod="pad" gradientUnits="userSpaceOnUse" x1="-3.2060000896453857" y1="-2.257999897003174" x2="-13.574999809265137" y2="13.114999771118164"><stop offset="57%" stop-color="rgb(255,255,255)" stop-opacity="0"/><stop offset="78%" stop-color="rgb(255,255,255)" stop-opacity="0.15000000596046448"/><stop offset="100%" stop-color="rgb(255,255,255)" stop-opacity="0.30000001192092896"/></linearGradient><linearGradient id="__lottie_element_103" spreadMethod="pad" gradientUnits="userSpaceOnUse" x1="-25.062000274658203" y1="-2.5139999389648438" x2="20.18400001525879" y2="0.6499999761581421"><stop offset="0%" stop-color="rgb(186,76,67)" stop-opacity="0"/><stop offset="43%" stop-color="rgb(199,83,79)" stop-opacity="0.5"/><stop offset="85%" stop-color="rgb(213,91,91)" stop-opacity="1"/><stop offset="93%" stop-color="rgb(213,91,91)" stop-opacity="0.5"/><stop offset="100%" stop-color="rgb(213,91,91)" stop-opacity="0"/></linearGradient><linearGradient id="__lottie_element_104" spreadMethod="pad" gradientUnits="userSpaceOnUse" x1="0.14800000190734863" y1="31.42099952697754" x2="3.117000102996826" y2="119.38999938964844"><stop offset="0%" stop-color="rgb(255,255,255)" stop-opacity="1"/><stop offset="59%" stop-color="rgb(255,255,255)" stop-opacity="0.5"/><stop offset="100%" stop-color="rgb(255,255,255)" stop-opacity="0"/></linearGradient><linearGradient id="__lottie_element_105" spreadMethod="pad" gradientUnits="userSpaceOnUse" x1="-2.6429998874664307" y1="-55.82699966430664" x2="0.32499998807907104" y2="32.141998291015625"><stop offset="0%" stop-color="rgb(255,255,255)" stop-opacity="1"/><stop offset="59%" stop-color="rgb(255,255,255)" stop-opacity="0.5"/><stop offset="100%" stop-color="rgb(255,255,255)" stop-opacity="0"/></linearGradient></defs><g clip-path="url(#__lottie_element_29)"><g style="display: block;" transform="matrix(1.0700000524520874,0,0,1.0700000524520874,-15.365018844604492,-16.357587814331055)" opacity="1"><g opacity="1" transform="matrix(1,0,0,1,0,0)"><g opacity="1" transform="matrix(1,0,0,1,296.3320007324219,144.38900756835938)"><path fill="url(#__lottie_element_36)" fill-opacity="1" d=" M61.12699890136719,96.43900299072266 C53.71500015258789,96.43900299072266 46.48699951171875,94.7770004272461 39.64500045776367,91.49600219726562 C39.64500045776367,91.49600219726562 -86.75199890136719,31.461000442504883 -86.75199890136719,31.461000442504883 C-86.75199890136719,31.461000442504883 -86.86199951171875,31.40399932861328 -86.86199951171875,31.40399932861328 C-107.13400268554688,20.957000732421875 -119.8784408569336,-2.3818888664245605 -119.8784408569336,-29.1558895111084 C-119.8784408569336,-65.8638916015625 -95.23344421386719,-95.72789001464844 -64.94144439697266,-95.72789001464844 C-61.09644317626953,-95.72789001464844 -57.25444412231445,-95.24588775634766 -53.52244567871094,-94.29389190673828 C-53.52244567871094,-94.29389190673828 -53.13944625854492,-94.19689178466797 -53.13944625854492,-94.19689178466797 C-53.13944625854492,-94.19689178466797 79.59455871582031,-45.35588836669922 79.59455871582031,-45.35588836669922 C104.11455535888672,-35.67189025878906 120.58955383300781,-7.734889030456543 120.58955383300781,24.16111183166504 C120.58955383300781,64.40711212158203 93.71900177001953,96.43900299072266 61.12699890136719,96.43900299072266z"/><path stroke-linecap="round" stroke-linejoin="round" fill-opacity="0" stroke="rgb(204,10,0)" stroke-opacity="1" stroke-width="8" d=" M61.12699890136719,96.43900299072266 C53.71500015258789,96.43900299072266 46.48699951171875,94.7770004272461 39.64500045776367,91.49600219726562 C39.64500045776367,91.49600219726562 -86.75199890136719,31.461000442504883 -86.75199890136719,31.461000442504883 C-86.75199890136719,31.461000442504883 -86.86199951171875,31.40399932861328 -86.86199951171875,31.40399932861328 C-107.13400268554688,20.957000732421875 -119.8784408569336,-2.3818888664245605 -119.8784408569336,-29.1558895111084 C-119.8784408569336,-65.8638916015625 -95.23344421386719,-95.72789001464844 -64.94144439697266,-95.72789001464844 C-61.09644317626953,-95.72789001464844 -57.25444412231445,-95.24588775634766 -53.52244567871094,-94.29389190673828 C-53.52244567871094,-94.29389190673828 -53.13944625854492,-94.19689178466797 -53.13944625854492,-94.19689178466797 C-53.13944625854492,-94.19689178466797 79.59455871582031,-45.35588836669922 79.59455871582031,-45.35588836669922 C104.11455535888672,-35.67189025878906 120.58955383300781,-7.734889030456543 120.58955383300781,24.16111183166504 C120.58955383300781,64.40711212158203 93.71900177001953,96.43900299072266 61.12699890136719,96.43900299072266z" fill="none"/></g><g opacity="1" transform="matrix(1,0,0,1,322.375,144.07000732421875)"><path fill="url(#__lottie_element_37)" fill-opacity="1" d=" M30.033000946044922,88.1969985961914 C32.62300109863281,88.51000213623047 35.61555480957031,89.38211059570312 38.289554595947266,89.38211059570312 C74.26455688476562,89.38211059570312 103.42855834960938,60.21811294555664 103.42855834960938,24.24311065673828 C103.42855834960938,-3.843888998031616 85.65155792236328,-27.778888702392578 60.73555374145508,-36.924888610839844 C60.73555374145508,-36.924888610839844 -69.59544372558594,-85.68189239501953 -69.59544372558594,-85.68189239501953 C-78.20244598388672,-88.21888732910156 -89.64744567871094,-89.44689178466797 -102.71744537353516,-84.97389221191406 C-102.71744537353516,-84.97389221191406 30.033000946044922,88.1969985961914 30.033000946044922,88.1969985961914z"/><path stroke-linecap="round" stroke-linejoin="round" fill-opacity="0" stroke="rgb(166,176,188)" stroke-opacity="1" stroke-width="8" d=" M30.033000946044922,88.1969985961914 C32.62300109863281,88.51000213623047 35.61555480957031,89.38211059570312 38.289554595947266,89.38211059570312 C74.26455688476562,89.38211059570312 103.42855834960938,60.21811294555664 103.42855834960938,24.24311065673828 C103.42855834960938,-3.843888998031616 85.65155792236328,-27.778888702392578 60.73555374145508,-36.924888610839844 C60.73555374145508,-36.924888610839844 -69.59544372558594,-85.68189239501953 -69.59544372558594,-85.68189239501953 C-78.20244598388672,-88.21888732910156 -89.64744567871094,-89.44689178466797 -102.71744537353516,-84.97389221191406 C-102.71744537353516,-84.97389221191406 30.033000946044922,88.1969985961914 30.033000946044922,88.1969985961914z" fill="none"/></g><g opacity="1" transform="matrix(1,0,0,1,296.39599609375,144.38699340820312)"><path fill="rgb(240,244,247)" fill-opacity="1" d=" M-82.74800109863281,24.422000885009766 C-99.7770004272461,15.645999908447266 -111.4034423828125,-4.54788875579834 -111.4034423828125,-28.938888549804688 C-111.4034423828125,-61.24188995361328 -90.38844299316406,-87.42788696289062 -64.46544647216797,-87.42788696289062 C-61.22544479370117,-87.42788696289062 -58.062442779541016,-87.01789093017578 -55.00644302368164,-86.2388916015625 C-55.00644302368164,-86.2388916015625 76.22555541992188,-37.95288848876953 76.22555541992188,-37.95288848876953 C97.0175552368164,-29.740888595581055 112.11455535888672,-5.114888668060303 112.11455535888672,23.990110397338867 C112.11455535888672,59.81111145019531 88.89099884033203,88.13899993896484 60.680999755859375,88.13899993896484 C54.33000183105469,88.13899993896484 48.249000549316406,86.66699981689453 42.638999938964844,83.97699737548828 C42.638999938964844,83.97699737548828 -82.74800109863281,24.422000885009766 -82.74800109863281,24.422000885009766z"/><path stroke-linecap="round" stroke-linejoin="round" fill-opacity="0" stroke="rgb(166,176,188)" stroke-opacity="1" stroke-width="8" d=" M-82.74800109863281,24.422000885009766 C-99.7770004272461,15.645999908447266 -111.4034423828125,-4.54788875579834 -111.4034423828125,-28.938888549804688 C-111.4034423828125,-61.24188995361328 -90.38844299316406,-87.42788696289062 -64.46544647216797,-87.42788696289062 C-61.22544479370117,-87.42788696289062 -58.062442779541016,-87.01789093017578 -55.00644302368164,-86.2388916015625 C-55.00644302368164,-86.2388916015625 76.22555541992188,-37.95288848876953 76.22555541992188,-37.95288848876953 C97.0175552368164,-29.740888595581055 112.11455535888672,-5.114888668060303 112.11455535888672,23.990110397338867 C112.11455535888672,59.81111145019531 88.89099884033203,88.13899993896484 60.680999755859375,88.13899993896484 C54.33000183105469,88.13899993896484 48.249000549316406,86.66699981689453 42.638999938964844,83.97699737548828 C42.638999938964844,83.97699737548828 -82.74800109863281,24.422000885009766 -82.74800109863281,24.422000885009766z" fill="none"/></g><g opacity="1" transform="matrix(1,0,0,1,235.07400512695312,123.41100311279297)"><path fill="url(#__lottie_element_38)" fill-opacity="1" d=" M38.139556884765625,-12.58666706085205 C38.48755645751953,-17.374666213989258 37.562557220458984,-22.601667404174805 35.18055725097656,-27.533666610717773 C29.931554794311523,-38.40266799926758 19.527555465698242,-44.02866744995117 10.957555770874023,-41.115665435791016 C10.957555770874023,-41.115665435791016 -26.171443939208984,-29.271888732910156 -26.171443939208984,-29.271888732910156 C-27.074443817138672,-29.005887985229492 -27.958444595336914,-28.64488983154297 -28.81244468688965,-28.172889709472656 C-37.027442932128906,-23.63188934326172 -39.408443450927734,-11.093889236450195 -34.13144302368164,-0.16688889265060425 C-32.165443420410156,3.90411114692688 -29.412445068359375,7.176111221313477 -26.307443618774414,9.446110725402832 C-26.307443618774414,9.446110725402832 10.723555564880371,38.839111328125 10.723555564880371,38.839111328125 C16.359556198120117,43.87710952758789 23.5445556640625,45.4741096496582 29.381555557250977,42.248111724853516 C35.09955596923828,39.088111877441406 38.036556243896484,32.12211227416992 37.60855484008789,24.47711181640625 C37.60855484008789,24.47711181640625 38.139556884765625,-12.58666706085205 38.139556884765625,-12.58666706085205z"/></g><g opacity="1" transform="matrix(1,0,0,1,338.8810119628906,156.9080047607422)"><path fill="url(#__lottie_element_39)" fill-opacity="1" d=" M44.20255661010742,14.61211109161377 C42.905555725097656,11.81511116027832 41.293556213378906,9.353111267089844 39.47455596923828,7.270111083984375 C39.47455596923828,7.270111083984375 1.7095555067062378,-38.01566696166992 1.7095555067062378,-38.01566696166992 C-5.011444568634033,-45.73566818237305 -14.400444030761719,-48.580665588378906 -21.869443893432617,-44.28166580200195 C-25.27744483947754,-42.31966781616211 -27.824443817138672,-39.13066482543945 -29.423444747924805,-35.24166488647461 C-29.423444747924805,-35.24166488647461 -43.71244430541992,-2.7578887939453125 -43.71244430541992,-2.7578887939453125 C-43.71244430541992,-2.7578887939453125 -43.71144485473633,-2.7568888664245605 -43.71144485473633,-2.7568888664245605 C-47.473445892333984,4.141110897064209 -47.62844467163086,14.142110824584961 -43.43144607543945,23.19211196899414 C-39.403446197509766,31.878110885620117 -32.41444396972656,37.426109313964844 -25.469444274902344,38.364112854003906 C-24.927444458007812,38.437110900878906 27.83855628967285,47.92011260986328 27.83855628967285,47.92011260986328 C31.455554962158203,48.75611114501953 35.12155532836914,48.3491096496582 38.392555236816406,46.46611022949219 C47.36455535888672,41.3021125793457 49.966556549072266,27.040111541748047 44.20255661010742,14.61211109161377z"/></g><g opacity="1" transform="matrix(1,0,0,1,0,0)"><g opacity="1" transform="matrix(1,0,0,1,328.43701171875,144.07000732421875)"><path fill="url(#__lottie_element_40)" fill-opacity="1" d=" M57.92555618286133,-44.36988830566406 C57.92555618286133,-44.36988830566406 -73.61944580078125,-93.58088684082031 -73.61944580078125,-93.58088684082031 C-73.61944580078125,-93.58088684082031 -73.88044738769531,-93.65888977050781 -73.88044738769531,-93.65888977050781 C-79.75044250488281,-95.38788604736328 -85.7314453125,-96.264892578125 -91.6594467163086,-96.264892578125 C-93.69644165039062,-96.264892578125 -95.73444366455078,-96.160888671875 -97.76944732666016,-95.95488739013672 C-100.27444458007812,-95.70088958740234 -102.75244140625,-95.26388549804688 -105.19344329833984,-94.67189025878906 C-102.5344467163086,-95.15288543701172 -99.81544494628906,-95.40789031982422 -97.04744720458984,-95.40789031982422 C-93.20244598388672,-95.40789031982422 -89.35944366455078,-94.92588806152344 -85.62744140625,-93.97389221191406 C-85.62744140625,-93.97389221191406 -85.24544525146484,-93.87689208984375 -85.24544525146484,-93.87689208984375 C-85.24544525146484,-93.87689208984375 47.488555908203125,-45.035888671875 47.488555908203125,-45.035888671875 C72.00855255126953,-35.351890563964844 88.48355865478516,-7.414888858795166 88.48355865478516,24.481111526489258 C88.48355865478516,64.72711181640625 61.612998962402344,96.75900268554688 29.020999908447266,96.75900268554688 C26.011999130249023,96.75900268554688 23.03499984741211,96.47100067138672 20.100000381469727,95.9260025024414 C20.100000381469727,95.9260025024414 20.20199966430664,96.05799865722656 20.20199966430664,96.05799865722656 C20.20199966430664,96.05799865722656 23.402000427246094,96.44400024414062 23.402000427246094,96.44400024414062 C26.329999923706055,96.7969970703125 29.67155647277832,97.6871109008789 32.6325569152832,97.6871109008789 C73.03455352783203,97.6871109008789 105.90455627441406,64.81810760498047 105.90455627441406,24.41611099243164 C105.90455627441406,-6.1928887367248535 86.60455322265625,-33.84088897705078 57.92555618286133,-44.36988830566406z"/><path stroke-linecap="round" stroke-linejoin="round" fill-opacity="0" stroke="rgb(204,10,0)" stroke-opacity="1" stroke-width="8" d=" M57.92555618286133,-44.36988830566406 C57.92555618286133,-44.36988830566406 -73.61944580078125,-93.58088684082031 -73.61944580078125,-93.58088684082031 C-73.61944580078125,-93.58088684082031 -73.88044738769531,-93.65888977050781 -73.88044738769531,-93.65888977050781 C-79.75044250488281,-95.38788604736328 -85.7314453125,-96.264892578125 -91.6594467163086,-96.264892578125 C-93.69644165039062,-96.264892578125 -95.73444366455078,-96.160888671875 -97.76944732666016,-95.95488739013672 C-100.27444458007812,-95.70088958740234 -102.75244140625,-95.26388549804688 -105.19344329833984,-94.67189025878906 C-102.5344467163086,-95.15288543701172 -99.81544494628906,-95.40789031982422 -97.04744720458984,-95.40789031982422 C-93.20244598388672,-95.40789031982422 -89.35944366455078,-94.92588806152344 -85.62744140625,-93.97389221191406 C-85.62744140625,-93.97389221191406 -85.24544525146484,-93.87689208984375 -85.24544525146484,-93.87689208984375 C-85.24544525146484,-93.87689208984375 47.488555908203125,-45.035888671875 47.488555908203125,-45.035888671875 C72.00855255126953,-35.351890563964844 88.48355865478516,-7.414888858795166 88.48355865478516,24.481111526489258 C88.48355865478516,64.72711181640625 61.612998962402344,96.75900268554688 29.020999908447266,96.75900268554688 C26.011999130249023,96.75900268554688 23.03499984741211,96.47100067138672 20.100000381469727,95.9260025024414 C20.100000381469727,95.9260025024414 20.20199966430664,96.05799865722656 20.20199966430664,96.05799865722656 C20.20199966430664,96.05799865722656 23.402000427246094,96.44400024414062 23.402000427246094,96.44400024414062 C26.329999923706055,96.7969970703125 29.67155647277832,97.6871109008789 32.6325569152832,97.6871109008789 C73.03455352783203,97.6871109008789 105.90455627441406,64.81810760498047 105.90455627441406,24.41611099243164 C105.90455627441406,-6.1928887367248535 86.60455322265625,-33.84088897705078 57.92555618286133,-44.36988830566406z" fill="none"/></g><g opacity="1" transform="matrix(1,0,0,1,382.552001953125,169.5760040283203)"><path stroke-linecap="round" stroke-linejoin="round" fill-opacity="0" stroke="rgb(142,9,6)" stroke-opacity="1" stroke-width="8" d=" M-6.625444412231445,-70.54188537597656 C17.894556045532227,-60.857887268066406 34.36955642700195,-32.9208869934082 34.36955642700195,-1.0248888731002808 C34.36955642700195,39.22111129760742 7.499000072479248,71.25299835205078 -25.093000411987305,71.25299835205078 C-28.101999282836914,71.25299835205078 -31.07900047302246,70.96399688720703 -34.013999938964844,70.41899871826172" fill="none"/></g></g></g></g><g style="display: block;" transform="matrix(1.0700000524520874,0,0,1.0700000524520874,406.0758972167969,206.21633911132812)" opacity="1"><g opacity="1" transform="matrix(1,0,0,1,0,0)"><path stroke-linecap="round" stroke-linejoin="round" fill-opacity="0" stroke="rgb(142,9,6)" stroke-opacity="1" stroke-width="8" d=" M-41.02855682373047,36.191890716552734 C-38.100555419921875,36.54488754272461 -35.11455535888672,36.72488784790039 -32.15355682373047,36.72488784790039 C8.248444557189941,36.72488784790039 41.83966827392578,4.721555709838867 41.83966827392578,-35.680442810058594" fill="none"/></g></g><g style="display: block;" transform="matrix(1.0700000524520874,0,0,1.0700000524520874,-15.365018844604492,-16.357587814331055)" opacity="1"><g opacity="1" transform="matrix(1,0,0,1,0,0)"><g opacity="1" transform="matrix(1,0,0,1,224.45799255371094,253.93499755859375)"><g opacity="1" transform="matrix(1,0,0,1,0,0)"><path fill="url(#__lottie_element_91)" fill-opacity="1" d=" M135.69200134277344,16.974000930786133 C135.69200134277344,5.306000232696533 127.33899688720703,-5.289000034332275 112.1729965209961,-12.862000465393066 C112.1729965209961,-12.862000465393066 -22.93600082397461,-77.39700317382812 -22.93600082397461,-77.39700317382812 C-35.082000732421875,-82.54299926757812 -50.56800079345703,-85.37699890136719 -66.54100036621094,-85.37699890136719 C-105.96399688720703,-85.37699890136719 -135.69200134277344,-69.36599731445312 -135.69200134277344,-48.132999420166016 C-135.69200134277344,-48.132999420166016 -130.2220001220703,21.28700065612793 -130.2220001220703,21.28700065612793 C-130.2220001220703,21.28700065612793 89.25199890136719,85.37699890136719 89.25199890136719,85.37699890136719 C89.25199890136719,85.37699890136719 131.49000549316406,54.87300109863281 131.49000549316406,54.87300109863281 C131.49000549316406,54.87300109863281 135.69200134277344,16.974000930786133 135.69200134277344,16.974000930786133z"/><path stroke-linecap="round" stroke-linejoin="round" fill-opacity="0" stroke="rgb(204,10,0)" stroke-opacity="1" stroke-width="8" d=" M135.69200134277344,16.974000930786133 C135.69200134277344,5.306000232696533 127.33899688720703,-5.289000034332275 112.1729965209961,-12.862000465393066 C112.1729965209961,-12.862000465393066 -22.93600082397461,-77.39700317382812 -22.93600082397461,-77.39700317382812 C-35.082000732421875,-82.54299926757812 -50.56800079345703,-85.37699890136719 -66.54100036621094,-85.37699890136719 C-105.96399688720703,-85.37699890136719 -135.69200134277344,-69.36599731445312 -135.69200134277344,-48.132999420166016 C-135.69200134277344,-48.132999420166016 -130.2220001220703,21.28700065612793 -130.2220001220703,21.28700065612793 C-130.2220001220703,21.28700065612793 89.25199890136719,85.37699890136719 89.25199890136719,85.37699890136719 C89.25199890136719,85.37699890136719 131.49000549316406,54.87300109863281 131.49000549316406,54.87300109863281 C131.49000549316406,54.87300109863281 135.69200134277344,16.974000930786133 135.69200134277344,16.974000930786133z" fill="none"/></g></g><g opacity="1" transform="matrix(1,0,0,1,224.38800048828125,334.5)"><path fill="url(#__lottie_element_92)" fill-opacity="1" d=" M21.21500015258789,126.13500213623047 C29.927000045776367,130.8679962158203 39.90999984741211,133.55599975585938 50.52199935913086,133.55599975585938 C82.35700225830078,133.55599975585938 108.54100036621094,109.36199951171875 111.69000244140625,78.35800170898438 C111.69000244140625,78.35800170898438 127.07099914550781,-63.810001373291016 127.07099914550781,-63.810001373291016 C127.07099914550781,-63.810001373291016 -127.07099914550781,-133.55599975585938 -127.07099914550781,-133.55599975585938 C-127.07099914550781,-133.55599975585938 -115.95999908447266,6.053999900817871 -115.95999908447266,6.053999900817871 C-114.44100189208984,21.011999130249023 -107.55999755859375,34.38600158691406 -97.26899719238281,44.22200012207031 C-97.26899719238281,44.22200012207031 21.21500015258789,126.13500213623047 21.21500015258789,126.13500213623047z"/><path stroke-linecap="round" stroke-linejoin="round" fill-opacity="0" stroke="rgb(192,204,216)" stroke-opacity="1" stroke-width="8" d=" M21.21500015258789,126.13500213623047 C29.927000045776367,130.8679962158203 39.90999984741211,133.55599975585938 50.52199935913086,133.55599975585938 C82.35700225830078,133.55599975585938 108.54100036621094,109.36199951171875 111.69000244140625,78.35800170898438 C111.69000244140625,78.35800170898438 127.07099914550781,-63.810001373291016 127.07099914550781,-63.810001373291016 C127.07099914550781,-63.810001373291016 -127.07099914550781,-133.55599975585938 -127.07099914550781,-133.55599975585938 C-127.07099914550781,-133.55599975585938 -115.95999908447266,6.053999900817871 -115.95999908447266,6.053999900817871 C-114.44100189208984,21.011999130249023 -107.55999755859375,34.38600158691406 -97.26899719238281,44.22200012207031 C-97.26899719238281,44.22200012207031 21.21500015258789,126.13500213623047 21.21500015258789,126.13500213623047z" fill="none"/></g><g opacity="1" transform="matrix(1,0,0,1,224.78399658203125,235.22500610351562)"><path fill="rgb(252,252,252)" fill-opacity="1" d=" M108.072998046875,7.269000053405762 C120.08200073242188,13.265999794006348 127.46600341796875,21.422000885009766 127.46600341796875,30.409000396728516 C127.46600341796875,48.82600021362305 96.44999694824219,63.75600051879883 58.18899917602539,63.75600051879883 C41.30699920654297,63.75600051879883 25.834999084472656,60.8489990234375 13.815999984741211,56.01900100708008 C13.815999984741211,56.01900100708008 -113.73200225830078,-15.678000450134277 -113.73200225830078,-15.678000450134277 C-122.31900024414062,-20.75200080871582 -127.46700286865234,-27.226999282836914 -127.46700286865234,-34.28099822998047 C-127.46700286865234,-50.558998107910156 -100.0510025024414,-63.75600051879883 -66.23300170898438,-63.75600051879883 C-50.73400115966797,-63.75600051879883 -36.58000183105469,-60.98500061035156 -25.79400062561035,-56.415000915527344 C-25.79400062561035,-56.415000915527344 108.072998046875,7.269000053405762 108.072998046875,7.269000053405762z"/><path stroke-linecap="round" stroke-linejoin="round" fill-opacity="0" stroke="rgb(192,204,216)" stroke-opacity="1" stroke-width="8" d=" M108.072998046875,7.269000053405762 C120.08200073242188,13.265999794006348 127.46600341796875,21.422000885009766 127.46600341796875,30.409000396728516 C127.46600341796875,48.82600021362305 96.44999694824219,63.75600051879883 58.18899917602539,63.75600051879883 C41.30699920654297,63.75600051879883 25.834999084472656,60.8489990234375 13.815999984741211,56.01900100708008 C13.815999984741211,56.01900100708008 -113.73200225830078,-15.678000450134277 -113.73200225830078,-15.678000450134277 C-122.31900024414062,-20.75200080871582 -127.46700286865234,-27.226999282836914 -127.46700286865234,-34.28099822998047 C-127.46700286865234,-50.558998107910156 -100.0510025024414,-63.75600051879883 -66.23300170898438,-63.75600051879883 C-50.73400115966797,-63.75600051879883 -36.58000183105469,-60.98500061035156 -25.79400062561035,-56.415000915527344 C-25.79400062561035,-56.415000915527344 108.072998046875,7.269000053405762 108.072998046875,7.269000053405762z" fill="none"/></g><g opacity="1" transform="matrix(1,0,0,1,179.01699829101562,209.13299560546875)"><path fill="url(#__lottie_element_93)" fill-opacity="1" d=" M40.290000915527344,6.373000144958496 C43.70800018310547,4.311999797821045 45.768001556396484,1.6490000486373901 45.768001556396484,-1.2569999694824219 C45.768001556396484,-5.826000213623047 40.67499923706055,-9.788000106811523 33.220001220703125,-11.767000198364258 C33.220001220703125,-11.767000198364258 -12.373000144958496,-25.875999450683594 -12.373000144958496,-25.875999450683594 C-16.017000198364258,-27.117000579833984 -20.400999069213867,-27.840999603271484 -25.118000030517578,-27.840999603271484 C-29.06999969482422,-27.840999603271484 -32.78799819946289,-27.333999633789062 -36.03300094604492,-26.43899917602539 C-43.79199981689453,-24.299999237060547 -47.86399841308594,-15.795000076293945 -44.67599868774414,-8.404999732971191 C-40.45199966430664,1.3869999647140503 -33.74800109863281,16.927000045776367 -33.74800109863281,16.92799949645996 C-32.08000183105469,23.091999053955078 -21.67799949645996,27.840999603271484 -9.086000442504883,27.840999603271484 C-3.368000030517578,27.840999603271484 1.8960000276565552,26.860000610351562 6.098999977111816,25.214000701904297 C6.098999977111816,25.214000701904297 38.444000244140625,7.486000061035156 40.290000915527344,6.373000144958496z"/></g><g opacity="1" transform="matrix(1,0,0,1,263.98699951171875,253.88800048828125)"><path fill="url(#__lottie_element_94)" fill-opacity="1" d=" M57.66299819946289,9.097000122070312 C57.66299819946289,9.097000122070312 21.48200035095215,-21.6560001373291 21.48200035095215,-21.6560001373291 C17.30699920654297,-26.437000274658203 7.888000011444092,-29.773000717163086 -3.069999933242798,-29.773000717163086 C-9.779999732971191,-29.773000717163086 -15.914999961853027,-28.52199935913086 -20.621000289916992,-26.454999923706055 C-23.341999053955078,-25.259000778198242 -57.59700012207031,-7.38700008392334 -57.59700012207031,-7.38700008392334 C-60.3390007019043,-5.175000190734863 -61.930999755859375,-2.559000015258789 -61.930999755859375,0.24799999594688416 C-61.930999755859375,6.39900016784668 -54.31100082397461,11.644000053405762 -43.606998443603516,13.6850004196167 C-43.606998443603516,13.6850004196167 26.299999237060547,28.915000915527344 26.299999237060547,28.915000915527344 C26.299999237060547,28.915000915527344 32.32400131225586,29.773000717163086 35.59700012207031,29.773000717163086 C50.14099884033203,29.773000717163086 61.930999755859375,23.783000946044922 61.930999755859375,16.395000457763672 C61.930999755859375,13.70199966430664 60.35900115966797,11.196000099182129 57.66299819946289,9.097000122070312z"/></g></g></g><g style="display: block;" transform="matrix(1.0700000524520874,0,0,1.0700000524520874,-15.365018844604492,-14.334912300109863)" opacity="1"><g opacity="1" transform="matrix(1,0,0,1,0,0)"><g opacity="1" transform="matrix(1,0,0,1,160.7310028076172,151.5050048828125)"><path fill="url(#__lottie_element_81)" fill-opacity="1" d=" M6.442999839782715,-46.922000885009766 C35.077999114990234,-42.03900146484375 55.01300048828125,-15.984999656677246 49.9370002746582,11.829000473022461 C49.83599853515625,12.392999649047852 49.72700119018555,12.951000213623047 49.61000061035156,13.501999855041504 C43.44499969482422,43.12900161743164 9.746000289916992,57.042999267578125 -15.602999687194824,41.03200149536133 C-39.70100021362305,25.922000885009766 -51.90599822998047,8.387999534606934 -50.63800048828125,-10.192000389099121 C-48.75600051879883,-37.770999908447266 -19.77899932861328,-51.393001556396484 6.442999839782715,-46.922000885009766z"/></g><g opacity="1" transform="matrix(1,0,0,1,160.60400390625,130.79299926757812)"><path fill="rgb(255,255,255)" fill-opacity="1" d=" M-47.43000030517578,24.042999267578125 C-45.54800033569336,-3.5360000133514404 -16.570999145507812,-17.158000946044922 9.651000022888184,-12.687000274658203 C28.96500015258789,-9.394000053405762 44.30699920654297,3.5360000133514404 50.70000076293945,20.13599967956543 C48.915000915527344,-2.6540000438690186 30.882999420166016,-22.06399917602539 6.570000171661377,-26.209999084472656 C-19.652000427246094,-30.680999755859375 -48.62900161743164,-17.059999465942383 -50.51100158691406,10.519000053405762 C-50.91299819946289,16.402000427246094 -50.858001708984375,21.280000686645508 -48.47100067138672,27.047000885009766 C-48.52799987792969,25.71299934387207 -47.520999908447266,25.378999710083008 -47.43000030517578,24.042999267578125z"/></g><g opacity="1" transform="matrix(1,0,0,1,160.7310028076172,151.5050048828125)"><path stroke="url(#__lottie_element_82)" stroke-linecap="round" stroke-linejoin="round" fill-opacity="0" stroke-opacity="1" stroke-width="8" d=" M6.442999839782715,-46.922000885009766 C35.077999114990234,-42.03900146484375 55.01300048828125,-15.984999656677246 49.9370002746582,11.829000473022461 C49.83599853515625,12.392999649047852 49.72700119018555,12.951000213623047 49.61000061035156,13.501999855041504 C43.44499969482422,43.12900161743164 9.746000289916992,57.042999267578125 -15.602999687194824,41.03200149536133 C-39.70100021362305,25.922000885009766 -51.90599822998047,8.387999534606934 -50.63800048828125,-10.192000389099121 C-48.75600051879883,-37.770999908447266 -19.77899932861328,-51.393001556396484 6.442999839782715,-46.922000885009766z" fill="none"/></g><g opacity="1" transform="matrix(1,0,0,1,173.67300415039062,207.68600463867188)"><path fill="rgb(217,223,227)" fill-opacity="1" d=" M-22.743000030517578,-34.400001525878906 C-15.592000007629395,-18.29800033569336 -15.182332992553711,0.8926666378974915 -15.636333465576172,31.243667602539062 C-15.636333465576172,31.243667602539062 19.380332946777344,32.279998779296875 19.380332946777344,32.279998779296875 C19.343334197998047,5.297999858856201 21.21299934387207,-25.1560001373291 22.743000030517578,-38.57699966430664"/><path stroke-linecap="round" stroke-linejoin="round" fill-opacity="0" stroke="rgb(142,158,168)" stroke-opacity="1" stroke-width="8" d=" M-22.743000030517578,-34.400001525878906 C-15.592000007629395,-18.29800033569336 -15.182332992553711,0.8926666378974915 -15.636333465576172,31.243667602539062 C-15.636333465576172,31.243667602539062 19.380332946777344,32.279998779296875 19.380332946777344,32.279998779296875 C19.343334197998047,5.297999858856201 21.21299934387207,-25.1560001373291 22.743000030517578,-38.57699966430664" fill="none"/></g><g opacity="1" transform="matrix(1,0,0,1,161.43600463867188,209.3509979248047)"><path fill="url(#__lottie_element_83)" fill-opacity="1" d=" M9.03085708618164,30.16185760498047 C9.285857200622559,1.9678571224212646 8.048999786376953,-20.878999710083008 1.7300000190734863,-36.9119987487793 C1.7300000190734863,-36.9119987487793 -10.505000114440918,-36.06399917602539 -10.505000114440918,-36.06399917602539 C-3.3540000915527344,-19.961999893188477 -2.9444286823272705,-0.7721428275108337 -3.3984286785125732,29.578857421875 C-3.3984286785125732,29.578857421875 9.03085708618164,30.16185760498047 9.03085708618164,30.16185760498047z"/></g><g opacity="1" transform="matrix(1,0,0,1,173.67300415039062,207.68600463867188)"><path stroke-linecap="round" stroke-linejoin="round" fill-opacity="0" stroke="rgb(142,158,168)" stroke-opacity="1" stroke-width="8" d=" M-22.743000030517578,-34.400001525878906 C-15.592000007629395,-18.29800033569336 -15.182332992553711,0.8926666378974915 -15.636333465576172,31.243667602539062 C-15.636333465576172,31.243667602539062 19.380332946777344,32.279998779296875 19.380332946777344,32.279998779296875 C19.343334197998047,5.297999858856201 21.21299934387207,-25.1560001373291 22.743000030517578,-38.57699966430664" fill="none"/></g><g opacity="0" transform="matrix(1,0,0,1,152.3249969482422,154.7729949951172)"><path fill="rgb(53,53,63)" fill-opacity="1" d=" M-20.886999130249023,0.5540000200271606 C-21.183000564575195,4.625999927520752 -16.79599952697754,9.894000053405762 -19.65399932861328,7.103000164031982 C-22.511999130249023,4.311999797821045 -23.136999130249023,-0.7950000166893005 -21.049999237060547,-4.303999900817871 C-18.96299934387207,-7.813000202178955 -19.200000762939453,-6.795000076293945 -19.34600067138672,-6.853000164031982 C-18.575000762939453,-7.045000076293945 -20.575000762939453,-3.7320001125335693 -20.886999130249023,0.5540000200271606z"/></g><g opacity="1" transform="matrix(1,0,0,1,152.3249969482422,154.7729949951172)"><path fill="rgb(53,53,63)" fill-opacity="1" d=" M5.175000190734863,5.053999900817871 C3.0880000591278076,8.562999725341797 -0.9210000038146973,9.144000053405762 -3.7790000438690186,6.353000164031982 C-6.63700008392334,3.562000036239624 -7.26200008392334,-1.5449999570846558 -5.175000190734863,-5.053999900817871 C-3.0880000591278076,-8.562999725341797 0.9210000038146973,-9.144000053405762 3.7790000438690186,-6.353000164031982 C6.63700008392334,-3.562000036239624 7.26200008392334,1.5449999570846558 5.175000190734863,5.053999900817871z"/></g></g></g><g style="display: block;" transform="matrix(1.0700000524520874,0,0,1.0700000524520874,-15.365018844604492,-16.357587814331055)" opacity="1"><g opacity="1" transform="matrix(1,0,0,1,0,0)"><g opacity="1" transform="matrix(1,0,0,1,181.07000732421875,240.78500366210938)"><path fill="rgb(252,252,252)" fill-opacity="1" d=" M-35.80099868774414,-14.723999977111816 C-34.132999420166016,-8.5600004196167 -23.731000900268555,-3.811000108718872 -11.138999938964844,-3.811000108718872 C-5.421000003814697,-3.811000108718872 -0.15700000524520874,-4.791999816894531 4.046000003814697,-6.438000202178955 C4.046000003814697,-6.438000202178955 25.7810001373291,-18.391000747680664 35.52399826049805,-23.753000259399414 C35.52399826049805,-23.753000259399414 37.78200149536133,-10.60099983215332 37.78200149536133,-10.60099983215332 C37.78200149536133,-10.60099983215332 13.564000129699707,6.465000152587891 13.564000129699707,6.465000152587891 C13.564000129699707,6.465000152587891 13.71399974822998,23.753000259399414 13.71399974822998,23.753000259399414 C13.71399974822998,23.753000259399414 -37.78200149536133,-4.260000228881836 -37.78200149536133,-4.260000228881836 C-37.78200149536133,-4.260000228881836 -35.80099868774414,-14.725000381469727 -35.80099868774414,-14.723999977111816z"/></g><g opacity="1" transform="matrix(1,0,0,1,224.45799255371094,339.31201171875)"><path fill="url(#__lottie_element_100)" fill-opacity="1" d=" M-135.69200134277344,-133.50900268554688 C-135.69200134277344,-123.90599822998047 -129.4600067138672,-114.93599700927734 -118.14299774169922,-108.2490005493164 C-118.14299774169922,-108.2490005493164 10.574000358581543,-35.893001556396484 10.574000358581543,-35.893001556396484 C10.574000358581543,-35.893001556396484 11.034000396728516,-35.70800018310547 11.034000396728516,-35.70800018310547 C24.392000198364258,-30.34000015258789 41.23400115966797,-27.384000778198242 58.45899963378906,-27.384000778198242 C78.1729965209961,-27.384000778198242 96.8270034790039,-31.13599967956543 110.98400115966797,-37.95100021362305 C126.91699981689453,-45.62099838256836 135.69200134277344,-56.47700119018555 135.69200134277344,-68.51899719238281 C135.69200134277344,-68.51899719238281 135.54100036621094,-67.94999694824219 135.54100036621094,-67.94999694824219 C135.54100036621094,-67.94999694824219 120.53600311279297,70.73999786376953 120.53600311279297,70.73999786376953 C116.90499877929688,106.50299835205078 86.98200225830078,133.50900268554688 50.93899917602539,133.50900268554688 C39.29399871826172,133.50900268554688 27.76099967956543,130.58700561523438 17.586000442504883,125.05999755859375 C17.586000442504883,125.05999755859375 17.222999572753906,124.86399841308594 17.222999572753906,124.86399841308594 C17.222999572753906,124.86399841308594 -103.61399841308594,41.32400131225586 -103.61399841308594,41.32400131225586 C-103.61399841308594,41.32400131225586 -104.05400085449219,40.90299987792969 -104.05400085449219,40.90299987792969 C-116.09300231933594,29.395999908447266 -123.6449966430664,13.970000267028809 -125.3219985961914,-2.5360000133514404 C-125.3219985961914,-2.5360000133514404 -135.69200134277344,-132.81399536132812 -135.69200134277344,-132.81399536132812 C-135.69200134277344,-132.81399536132812 -135.69200134277344,-133.50900268554688 -135.69200134277344,-133.50900268554688z"/></g><g opacity="1" transform="matrix(1,0,0,1,224.45799255371094,339.31201171875)"><path fill="url(#__lottie_element_101)" fill-opacity="1" d=" M-135.69200134277344,-133.50900268554688 C-135.69200134277344,-123.90599822998047 -129.4600067138672,-114.93599700927734 -118.14299774169922,-108.2490005493164 C-118.14299774169922,-108.2490005493164 10.574000358581543,-35.893001556396484 10.574000358581543,-35.893001556396484 C10.574000358581543,-35.893001556396484 11.034000396728516,-35.70800018310547 11.034000396728516,-35.70800018310547 C24.392000198364258,-30.34000015258789 41.23400115966797,-27.384000778198242 58.45899963378906,-27.384000778198242 C78.1729965209961,-27.384000778198242 96.8270034790039,-31.13599967956543 110.98400115966797,-37.95100021362305 C126.91699981689453,-45.62099838256836 135.69200134277344,-56.47700119018555 135.69200134277344,-68.51899719238281 C135.69200134277344,-68.51899719238281 135.54100036621094,-67.94999694824219 135.54100036621094,-67.94999694824219 C135.54100036621094,-67.94999694824219 120.53600311279297,70.73999786376953 120.53600311279297,70.73999786376953 C116.90499877929688,106.50299835205078 86.98200225830078,133.50900268554688 50.93899917602539,133.50900268554688 C39.29399871826172,133.50900268554688 27.76099967956543,130.58700561523438 17.586000442504883,125.05999755859375 C17.586000442504883,125.05999755859375 17.222999572753906,124.86399841308594 17.222999572753906,124.86399841308594 C17.222999572753906,124.86399841308594 -103.61399841308594,41.32400131225586 -103.61399841308594,41.32400131225586 C-103.61399841308594,41.32400131225586 -104.05400085449219,40.90299987792969 -104.05400085449219,40.90299987792969 C-116.09300231933594,29.395999908447266 -123.6449966430664,13.970000267028809 -125.3219985961914,-2.5360000133514404 C-125.3219985961914,-2.5360000133514404 -135.69200134277344,-132.81399536132812 -135.69200134277344,-132.81399536132812 C-135.69200134277344,-132.81399536132812 -135.69200134277344,-133.50900268554688 -135.69200134277344,-133.50900268554688z"/></g><g opacity="1" transform="matrix(1,0,0,1,210.20599365234375,402.25799560546875)"><path fill="url(#__lottie_element_102)" fill-opacity="1" d=" M76.2030029296875,49.2760009765625 C64.46700286865234,49.2760009765625 52.84700012207031,46.35100173950195 42.58700180053711,40.814998626708984 C42.58700180053711,40.814998626708984 -98.26699829101562,-56.56399917602539 -98.26699829101562,-56.56399917602539 C-95.25800323486328,-47.76900100708008 -90.18399810791016,-39.72800064086914 -83.38500213623047,-33.17100143432617 C-83.38500213623047,-33.17100143432617 36.23500061035156,49.527000427246094 36.23500061035156,49.527000427246094 C44.766998291015625,54.13100051879883 54.43000030517578,56.56399917602539 64.19000244140625,56.56399917602539 C76.86100006103516,56.56399917602539 88.625,52.597999572753906 98.26699829101562,45.79399871826172 C91.31300354003906,48.04899978637695 83.89900207519531,49.2760009765625 76.2030029296875,49.2760009765625z"/></g><g opacity="1" transform="matrix(1,0,0,1,295.06201171875,389.5140075683594)"><path fill="url(#__lottie_element_103)" fill-opacity="1" d=" M-29.56399917602539,71.46499633789062 C-26.30299949645996,72.01899719238281 -22.990999221801758,72.30799865722656 -19.666000366210938,72.30799865722656 C-4.335999965667725,72.30799865722656 9.673999786376953,66.51399993896484 20.191999435424805,56.89400100708008 C20.191999435424805,56.89400100708008 29.56399917602539,-72.30799865722656 29.56399917602539,-72.30799865722656 C16.966999053955078,-68.58000183105469 2.6500000953674316,-66.58499908447266 -12.145000457763672,-66.58499908447266 C-15.380999565124512,-66.58499908447266 -18.607999801635742,-66.69000244140625 -21.808000564575195,-66.88300323486328 C-21.808000564575195,-66.88300323486328 -29.56399917602539,71.46499633789062 -29.56399917602539,71.46499633789062z"/></g><g opacity="1" transform="matrix(1,0,0,1,223.82899475097656,277.9580078125)"><path stroke-linecap="round" stroke-linejoin="round" fill-opacity="0" stroke="rgb(255,128,125)" stroke-opacity="1" stroke-width="8" d=" M-124.69100189208984,-41.970001220703125 C-123.69200134277344,-41.29499816894531 -122.65499877929688,-40.64099884033203 -121.58300018310547,-40.00699996948242 C-121.58300018310547,-40.00699996948242 8.197999954223633,32.875 8.197999954223633,32.875 C8.197999954223633,32.875 8.678999900817871,33.069000244140625 8.678999900817871,33.069000244140625 C22.96299934387207,38.808998107910156 40.8650016784668,41.970001220703125 59.0880012512207,41.970001220703125 C79.97899627685547,41.970001220703125 99.86499786376953,37.93600082397461 115.08300018310547,30.611000061035156 C118.58100128173828,28.927000045776367 129.79400634765625,21.090999603271484 132.69700622558594,19.124000549316406" fill="none"/></g><g opacity="1" transform="matrix(1,0,0,1,0,0)"><g opacity="1" transform="matrix(1,0,0,1,88.85199737548828,207.57899475097656)"><path fill="url(#__lottie_element_104)" fill-opacity="1" d=" M0.02800000086426735,0.3580000102519989 C0.02800000086426735,0.3580000102519989 -0.02800000086426735,-0.3580000102519989 -0.02800000086426735,-0.3580000102519989 C-0.013000000268220901,-0.11900000274181366 0.004999999888241291,0.11999999731779099 0.02800000086426735,0.3580000102519989z"/></g><g opacity="1" transform="matrix(1,0,0,1,105.64299774169922,294.8269958496094)"><path fill="url(#__lottie_element_105)" fill-opacity="1" d=" M6.958000183105469,54.632999420166016 C6.958000183105469,54.632999420166016 6.538000106811523,49.356998443603516 6.538000106811523,49.356998443603516 C6.538000106811523,49.356998443603516 -2.635999917984009,-65.89700317382812 -2.635999917984009,-65.89700317382812 C-11.079999923706055,-71.77100372314453 -16.003999710083008,-79.072998046875 -16.76300048828125,-86.88999938964844 C-16.76300048828125,-86.88999938964844 -6.507999897003174,41.94900131225586 -6.507999897003174,41.94900131225586 C-4.830999851226807,58.45500183105469 2.7219998836517334,73.88099670410156 14.76099967956543,85.38800048828125 C14.76099967956543,85.38800048828125 15.199999809265137,85.80899810791016 15.199999809265137,85.80899810791016 C15.199999809265137,85.80899810791016 16.76300048828125,86.88999938964844 16.76300048828125,86.88999938964844 C11.484000205993652,76.9280014038086 8.111000061035156,65.98699951171875 6.958000183105469,54.632999420166016z"/></g></g><g opacity="1" transform="matrix(1,0,0,1,224.45799255371094,339.31201171875)"><path stroke-linecap="round" stroke-linejoin="round" fill-opacity="0" stroke="rgb(204,10,0)" stroke-opacity="1" stroke-width="8" d=" M-135.69200134277344,-133.50900268554688 C-135.69200134277344,-123.90599822998047 -129.4600067138672,-114.93599700927734 -118.14299774169922,-108.2490005493164 C-118.14299774169922,-108.2490005493164 11.034000396728516,-35.70800018310547 11.034000396728516,-35.70800018310547 C24.392000198364258,-30.34000015258789 41.23400115966797,-27.384000778198242 58.45899963378906,-27.384000778198242 C78.1729965209961,-27.384000778198242 96.8270034790039,-31.13599967956543 110.98400115966797,-37.95100021362305 C126.91699981689453,-45.62099838256836 135.69200134277344,-56.47700119018555 135.69200134277344,-68.51899719238281 C135.69200134277344,-68.51899719238281 135.54100036621094,-67.94999694824219 135.54100036621094,-67.94999694824219 C135.54100036621094,-67.94999694824219 120.53600311279297,70.73999786376953 120.53600311279297,70.73999786376953 C116.90499877929688,106.50299835205078 86.98200225830078,133.50900268554688 50.93899917602539,133.50900268554688 C39.29399871826172,133.50900268554688 27.76099967956543,130.58700561523438 17.586000442504883,125.05999755859375 C17.586000442504883,125.05999755859375 17.222999572753906,124.86399841308594 17.222999572753906,124.86399841308594 C17.222999572753906,124.86399841308594 -103.61399841308594,41.32400131225586 -103.61399841308594,41.32400131225586 C-103.61399841308594,41.32400131225586 -104.05400085449219,40.90299987792969 -104.05400085449219,40.90299987792969 C-116.09300231933594,29.395999908447266 -123.6449966430664,13.970000267028809 -125.3219985961914,-2.5360000133514404 C-125.3219985961914,-2.5360000133514404 -135.69200134277344,-132.81399536132812 -135.69200134277344,-132.81399536132812 C-135.69200134277344,-132.81399536132812 -135.69200134277344,-133.50900268554688 -135.69200134277344,-133.50900268554688z" fill="none"/></g><g opacity="1" transform="matrix(1,0,0,1,181.44400024414062,422.5039978027344)"><path stroke-linecap="round" stroke-linejoin="round" fill-opacity="0" stroke="rgb(109,13,13)" stroke-opacity="1" stroke-width="8" d=" M60.599998474121094,41.86800003051758 C60.599998474121094,41.86800003051758 60.23699951171875,41.672000885009766 60.23699951171875,41.672000885009766 C60.23699951171875,41.672000885009766 -60.599998474121094,-41.86800003051758 -60.599998474121094,-41.86800003051758" fill="none"/></g><g opacity="1" transform="matrix(1,0,0,1,301.0220031738281,372.0920104980469)"><path stroke-linecap="round" stroke-linejoin="round" fill-opacity="0" stroke="rgb(109,13,13)" stroke-opacity="1" stroke-width="8" d=" M58.97800064086914,-100.7300033569336 C58.97800064086914,-100.7300033569336 43.97200012207031,37.959999084472656 43.97200012207031,37.959999084472656 C40.340999603271484,73.7229995727539 10.418000221252441,100.7300033569336 -25.625,100.7300033569336 C-37.27000045776367,100.7300033569336 -48.803001403808594,97.80799865722656 -58.97800064086914,92.28099822998047" fill="none"/></g><g opacity="1" transform="matrix(1,0,0,1,297.8210144042969,291.3609924316406)"><path stroke-linecap="round" stroke-linejoin="round" fill-opacity="0" stroke="rgb(109,13,13)" stroke-opacity="1" stroke-width="8" d=" M-62.32899856567383,12.244000434875488 C-48.97100067138672,17.61199951171875 -32.12900161743164,20.56800079345703 -14.904000282287598,20.56800079345703 C4.809999942779541,20.56800079345703 23.464000701904297,16.815000534057617 37.62099838256836,10 C53.55400085449219,2.3299999237060547 62.32899856567383,-8.526000022888184 62.32899856567383,-20.56800079345703 C62.32899856567383,-20.56800079345703 62.17900085449219,-19.999000549316406 62.17900085449219,-19.999000549316406" fill="none"/></g></g></g><g style="display: block;" transform="matrix(1.0918387174606323,0,0,1.0918387174606323,-66.2559814453125,-24.577922821044922)" opacity="1"><g opacity="1" transform="matrix(1,0,0,1,210.41900634765625,339.61700439453125)"><path fill="rgb(230,64,58)" fill-opacity="1" d=" M27.722000122070312,-1.878999948501587 C27.722000122070312,-1.878999948501587 10.675000190734863,-15.39799976348877 10.675000190734863,-15.39799976348877 C10.675000190734863,-15.39799976348877 2.5829999446868896,-41.095001220703125 2.5829999446868896,-41.095001220703125 C0.8769999742507935,-46.513999938964844 -3.757999897003174,-49.43899917602539 -5.089000225067139,-45.9370002746582 C-5.089000225067139,-45.9370002746582 -11.399999618530273,-29.33099937438965 -11.399999618530273,-29.33099937438965 C-11.399999618530273,-29.33099937438965 -28.208999633789062,-37.18000030517578 -28.208999633789062,-37.18000030517578 C-31.753000259399414,-38.834999084472656 -32.93199920654297,-33.70800018310547 -30.15999984741211,-28.69300079345703 C-30.15999984741211,-28.69300079345703 -24.649999618530273,-18.725000381469727 -24.649999618530273,-18.725000381469727 C-22.856000900268555,-15.479000091552734 -20.48200035095215,-13.015000343322754 -18.198999404907227,-12.027999877929688 C-18.198999404907227,-12.027999877929688 1.715999960899353,-3.4159998893737793 1.715999960899353,-3.4159998893737793 C2.4739999771118164,-3.0880000591278076 2.88100004196167,-1.4539999961853027 2.2249999046325684,-1.371999979019165 C2.2249999046325684,-1.371999979019165 -14.63700008392334,0.7379999756813049 -14.63700008392334,0.7379999756813049 C-16.56399917602539,0.9789999723434448 -17.85300064086914,2.7230000495910645 -18.159000396728516,5.498000144958496 C-18.159000396728516,5.498000144958496 -19.30900001525879,15.9350004196167 -19.30900001525879,15.9350004196167 C-19.792999267578125,20.33099937438965 -15.88700008392334,26.424999237060547 -12.843000411987305,26.023000717163086 C-12.843000411987305,26.023000717163086 1.593999981880188,24.114999771118164 1.593999981880188,24.114999771118164 C1.593999981880188,24.114999771118164 16.982999801635742,44.84700012207031 16.982999801635742,44.84700012207031 C20.22800064086914,49.21900177001953 23.820999145507812,47.85900115966797 22.93000030517578,42.595001220703125 C22.93000030517578,42.595001220703125 18.70599937438965,17.632999420166016 18.70599937438965,17.632999420166016 C18.70599937438965,17.632999420166016 30.51300048828125,9.60099983215332 30.51300048828125,9.60099983215332 C33.00299835205078,7.9070000648498535 31.316999435424805,0.972000002861023 27.722000122070312,-1.878999948501587z"/></g><g opacity="1" transform="matrix(1,0,0,1,0,0)"><g opacity="1" transform="matrix(1,0,0,1,203.32200622558594,301.2279968261719)"><path fill="rgb(163,26,26)" fill-opacity="1" d=" M-2.0190000534057617,7.611000061035156 C-2.0190000534057617,7.611000061035156 4.302999973297119,-9.027000427246094 4.302999973297119,-9.027000427246094 C3.316999912261963,-9.182999610900879 2.4660000801086426,-8.753000259399414 2.007999897003174,-7.548999786376953 C2.007999897003174,-7.548999786376953 -4.302999973297119,9.057999610900879 -4.302999973297119,9.057999610900879 C-4.302999973297119,9.057999610900879 -2.0190000534057617,7.611000061035156 -2.0190000534057617,7.611000061035156z"/></g><g opacity="1" transform="matrix(1,0,0,1,212.21099853515625,363.7439880371094)"><path fill="rgb(163,26,26)" fill-opacity="1" d=" M17.707000732421875,18.660999298095703 C17.707000732421875,18.660999298095703 2.5160000324249268,-2.005000114440918 2.5160000324249268,-2.005000114440918 C2.5160000324249268,-2.005000114440918 -12.119000434875488,-0.16300000250339508 -12.119000434875488,-0.16300000250339508 C-15.163000106811523,0.23899999260902405 -19.069000244140625,-5.855000019073486 -18.584999084472656,-10.25100040435791 C-18.584999084472656,-10.25100040435791 -17.434999465942383,-20.68899917602539 -17.434999465942383,-20.68899917602539 C-17.32200050354004,-21.7189998626709 -17.07200050354004,-22.604000091552734 -16.704999923706055,-23.326000213623047 C-18.474000930786133,-22.95599937438965 -19.660999298095703,-21.267000198364258 -19.95199966430664,-18.6299991607666 C-19.95199966430664,-18.6299991607666 -21.101999282836914,-8.192999839782715 -21.101999282836914,-8.192999839782715 C-21.586000442504883,-3.796999931335449 -17.679000854492188,2.296999931335449 -14.635000228881836,1.8949999809265137 C-14.635000228881836,1.8949999809265137 -0.19900000095367432,-0.013000000268220901 -0.19900000095367432,-0.013000000268220901 C-0.19900000095367432,-0.013000000268220901 15.190999984741211,20.719999313354492 15.190999984741211,20.719999313354492 C17.756000518798828,24.176000595092773 20.530000686645508,24.03700065612793 21.14299964904785,21.232999801635742 C20.104999542236328,21.06800079345703 18.884000778198242,20.246999740600586 17.707000732421875,18.660999298095703z"/></g></g><g opacity="1" transform="matrix(1,0,0,1,197.59100341796875,320.1440124511719)"><path fill="rgb(163,26,26)" fill-opacity="1" d=" M18.191999435424805,14.795000076293945 C18.191999435424805,14.795000076293945 -2.8540000915527344,5.38700008392334 -2.8540000915527344,5.38700008392334 C-5.13700008392334,4.400000095367432 -7.511000156402588,1.934999942779541 -9.305000305175781,-1.3109999895095825 C-9.305000305175781,-1.3109999895095825 -14.8149995803833,-11.277999877929688 -14.8149995803833,-11.277999877929688 C-16.187000274658203,-13.760000228881836 -16.589000701904297,-16.267000198364258 -16.218000411987305,-17.968000411987305 C-19.09000015258789,-18.483999252319336 -19.8700008392334,-13.812999725341797 -17.33099937438965,-9.220000267028809 C-17.33099937438965,-9.220000267028809 -11.821000099182129,0.7480000257492065 -11.821000099182129,0.7480000257492065 C-10.027000427246094,3.99399995803833 -7.6529998779296875,6.458000183105469 -5.369999885559082,7.445000171661377 C-5.369999885559082,7.445000171661377 14.543999671936035,16.05699920654297 14.543999671936035,16.05699920654297 C14.687000274658203,16.118999481201172 14.812999725341797,16.23699951171875 14.925999641418457,16.37299919128418 C14.925999641418457,16.37299919128418 14.930000305175781,16.371999740600586 14.930000305175781,16.371999740600586 C15.342000007629395,16.868000030517578 15.526000022888184,17.719999313354492 15.244000434875488,18.006000518798828 C15.244000434875488,18.006000518798828 15.244999885559082,18.007999420166016 15.244999885559082,18.007999420166016 C15.244999885559082,18.007999420166016 18.864999771118164,16.77199935913086 18.864999771118164,16.77199935913086 C18.864999771118164,16.77199935913086 18.884000778198242,15.093999862670898 18.191999435424805,14.795000076293945z"/></g></g><g style="display: none;" transform="matrix(1.0700000524520874,0,0,1.0700000524520874,-96.1500244140625,-88.16683959960938)" opacity="1"><g opacity="1" transform="matrix(1,0,0,1,0,0)"><g opacity="1" transform="matrix(1,0,0,1,0,0)"><g opacity="1" transform="matrix(1,0,0,1,314.3609924316406,213.14999389648438)"><path fill="url(#__lottie_element_86)" fill-opacity="1" d=" M-121.4800033569336,1.440000057220459 C-120.86100006103516,16.165000915527344 -119.50499725341797,22.341999053955078 -120.3740005493164,22.445999145507812 C-122.36000061035156,22.847999572753906 -128.27200317382812,19.523000717163086 -129.61300659179688,5.589000225067139 C-131.0449981689453,-9.067999839782715 -129.0970001220703,-13.027999877929688 -126.00199890136719,-13.583999633789062 C-123.71399688720703,-13.989999771118164 -122.0989990234375,-13.28499984741211 -121.4800033569336,1.440000057220459z"/></g><g opacity="1" transform="matrix(1,0,0,1,311.3529968261719,213.98500061035156)"><path fill="rgb(1,1,1)" fill-opacity="1" d=" M-122.00199890136719,1.9869999885559082 C-121.44200134277344,15.305000305175781 -117.49500274658203,19.051000595092773 -119.71900177001953,19.89299964904785 C-121.2699966430664,20.013999938964844 -126.78099822998047,18.43400001525879 -127.34100341796875,5.116000175476074 C-127.9010009765625,-8.20199966430664 -125.6449966430664,-11.277999877929688 -122.58300018310547,-12.579999923706055 C-120.32599639892578,-13.5600004196167 -122.56199645996094,-11.331000328063965 -122.00199890136719,1.9869999885559082z"/></g></g></g></g><g style="display: block;" transform="matrix(1.0700000524520874,0,0,1.0700000524520874,-15.365018844604492,-8.8675537109375)" opacity="1"><g opacity="1" transform="matrix(1,0,0,1,0,0)"><g opacity="1" transform="matrix(1,0,0,1,272.656005859375,214.31399536132812)"><path fill="url(#__lottie_element_73)" fill-opacity="1" d=" M-17.058000564575195,-56.60200119018555 C-20.906999588012695,-54.7400016784668 -29.832000732421875,-48.143001556396484 -37.54100036621094,-40.849998474121094 C-42.564998626708984,-36.09700012207031 -47.071998596191406,-31.048999786376953 -49.321998596191406,-26.82200050354004 C-65.56300354003906,3.694000005722046 -63.39555740356445,-8.213444709777832 -63.39555740356445,46.98055648803711 C-63.39555740356445,46.98055648803711 -51.91133499145508,59.290000915527344 -40.39011001586914,59.11977767944336 C-24.600444793701172,59.03044509887695 -23.207111358642578,66.16577911376953 -23.207111358642578,66.16577911376953 C-23.207111358642578,52.873779296875 -21.481000900268555,34.14799880981445 -21.481000900268555,21.27899932861328 C-20.892000198364258,21.677000045776367 -20.30299949645996,22.076000213623047 -19.68899917602539,22.451000213623047 C5.205999851226807,37.77299880981445 29.617000579833984,39.67588806152344 46.167999267578125,30.47888946533203 C55.165000915527344,25.444889068603516 59.659000396728516,17.07699966430664 61.54800033569336,5.734000205993652 C63.87799835205078,-8.032999992370605 60.266998291015625,-23.926000595092773 49.54399871826172,-38.858001708984375 C34.22200012207031,-60.194000244140625 6.791999816894531,-68.13899993896484 -17.058000564575195,-56.60200119018555z"/></g><g opacity="1" transform="matrix(1,0,0,1,257.9809875488281,229.93699645996094)"><path fill="url(#__lottie_element_74)" fill-opacity="1" d=" M-10.786999702453613,5.276000022888184 C-5.507999897003174,-11.906000137329102 10.786999702453613,-16.840999603271484 10.786999702453613,-16.840999603271484 C10.786999702453613,-16.840999603271484 10.786999702453613,16.840999603271484 10.786999702453613,16.840999603271484 C10.786999702453613,16.840999603271484 -10.786999702453613,5.276000022888184 -10.786999702453613,5.276000022888184"/></g><g opacity="1" transform="matrix(1,0,0,1,269.4750061035156,211.447998046875)"><path fill="rgb(255,255,255)" fill-opacity="1" d=" M-7.685999870300293,-40.481998443603516 C15.833999633789062,-51.85900115966797 42.683998107910156,-45.058998107910156 59.04399871826172,-25.469999313354492 C57.305999755859375,-29.003000259399414 55.215999603271484,-32.52399826049805 52.724998474121094,-35.992000579833984 C37.40299987792969,-57.327999114990234 9.972999572753906,-65.27300262451172 -13.876999855041504,-53.736000061035156 C-21.850000381469727,-49.87900161743164 -31.28499984741211,-43.60900115966797 -39.525001525878906,-33.224998474121094 C-45.64400100708008,-25.513999938964844 -51.10300064086914,-15.532999992370605 -54.816001892089844,-2.5880000591278076 C-61.44499969482422,20.527000427246094 -61.46555709838867,19.372554779052734 -61.46555709838867,51.596553802490234 C-61.46555709838867,51.596553802490234 -50.73933410644531,58.43377685546875 -50.73933410644531,58.43377685546875 C-50.21033477783203,46.94811248779297 -49.4109992980957,45.26900100708008 -49.268001556396484,43.09700012207031 C-47.555999755859375,17.006000518798828 -44.28799819946289,0.21699999272823334 -39.56100082397461,-11.223999977111816 C-32.277000427246094,-28.856000900268555 -21.530000686645508,-33.78499984741211 -7.685999870300293,-40.481998443603516z"/></g><g opacity="1" transform="matrix(1,0,0,1,272.656005859375,214.31399536132812)"><path stroke="url(#__lottie_element_75)" stroke-linecap="round" stroke-linejoin="round" fill-opacity="0" stroke-opacity="1" stroke-width="8" d=" M-17.058000564575195,-56.60200119018555 C-26.56599998474121,-52.00199890136719 -35.50600051879883,-45.83100128173828 -42.882999420166016,-35.62799835205078 C-48.882999420166016,-27.32900047302246 -53.8489990234375,-16.363000869750977 -57.24599838256836,-1.4049999713897705 C-60.25400161743164,11.836999893188477 -62.03200149536133,28.20800018310547 -62.209999084472656,48.625 C-62.220001220703125,49.75299835205078 -63.015445709228516,38.305667877197266 -63.60388946533203,48.84166717529297 C-63.60388946533203,48.84166717529297 -59.82622146606445,53.3120002746582 -40.641998291015625,58.50477600097656 C-19.89577865600586,61.229331970214844 -22.707111358642578,64.16577911376953 -22.707111358642578,64.16577911376953 C-22.707111358642578,50.873779296875 -21.481000900268555,34.14799880981445 -21.481000900268555,21.27899932861328 C-20.892000198364258,21.677000045776367 -20.30299949645996,22.076000213623047 -19.68899917602539,22.451000213623047 C5.205999851226807,37.77299880981445 29.617000579833984,39.67499923706055 46.167999267578125,30.47800064086914 C55.165000915527344,25.444000244140625 59.659000396728516,17.07699966430664 61.54800033569336,5.734000205993652 C63.87799835205078,-8.032999992370605 60.266998291015625,-23.926000595092773 49.54399871826172,-38.858001708984375 C34.22200012207031,-60.194000244140625 6.791999816894531,-68.13899993896484 -17.058000564575195,-56.60200119018555z" fill="none"/></g><g opacity="1" transform="matrix(1,0,0,1,0,0)"><g opacity="1" transform="matrix(1,0,0,1,314.3609924316406,213.14999389648438)"><path fill="url(#__lottie_element_76)" fill-opacity="1" d=" M11.836999893188477,-4.144000053405762 C12.456000328063965,10.581000328063965 7.520999908447266,20.652999877929688 0.984000027179718,22.363000869750977 C-5.552999973297119,24.072999954223633 -11.218999862670898,16.77199935913086 -11.838000297546387,2.046999931335449 C-12.456999778747559,-12.678000450134277 -7.431000232696533,-20.58300018310547 -0.8939999938011169,-22.292999267578125 C5.64300012588501,-24.003000259399414 11.218000411987305,-18.868999481201172 11.836999893188477,-4.144000053405762z"/></g><g opacity="1" transform="matrix(1,0,0,1,311.3529968261719,213.98500061035156)"><path fill="rgb(1,1,1)" fill-opacity="1" d=" M10.0649995803833,-3.7219998836517334 C10.625,9.595999717712402 6.448999881744385,18.694000244140625 0.8899999856948853,20.22599983215332 C-4.669000148773193,21.757999420166016 -9.505999565124512,15.142000198364258 -10.065999984741211,1.8240000009536743 C-10.62600040435791,-11.494000434875488 -6.367000102996826,-18.631000518798828 -0.8080000281333923,-20.163000106811523 C4.750999927520752,-21.69499969482422 9.505000114440918,-17.040000915527344 10.0649995803833,-3.7219998836517334z"/></g></g><g opacity="1" transform="matrix(1,0,0,1,261.06298828125,200.96800231933594)"><path fill="rgb(53,53,63)" fill-opacity="1" d=" M6.73199987411499,3.114000082015991 C5.322999954223633,7.151000022888184 1.1660000085830688,9.029999732971191 -2.552000045776367,7.309999942779541 C-6.269999980926514,5.590000152587891 -8.140999794006348,0.9229999780654907 -6.73199987411499,-3.114000082015991 C-5.322999954223633,-7.151000022888184 -1.1660000085830688,-9.029999732971191 2.552000045776367,-7.309999942779541 C6.269999980926514,-5.590000152587891 8.140999794006348,-0.9229999780654907 6.73199987411499,3.114000082015991z"/></g></g></g><g style="display: block;" transform="matrix(1.0700000524520874,0,0,1.0700000524520874,-15.363958358764648,-16.357587814331055)" opacity="1"><g opacity="1" transform="matrix(1,0,0,1,0,0)"><g opacity="1" transform="matrix(1,0,0,1,240.0399932861328,273.2409973144531)"><path fill="rgb(252,252,252)" fill-opacity="1" d=" M-37.98400115966797,-19.104000091552734 C-37.98400115966797,-12.95300006866455 -30.36400032043457,-7.708000183105469 -19.65999984741211,-5.666999816894531 C-19.65999984741211,-5.666999816894531 50.24700164794922,9.562000274658203 50.24700164794922,9.562000274658203 C50.24700164794922,9.562000274658203 8.031000137329102,19.104000091552734 8.031000137329102,19.104000091552734 C8.031000137329102,19.104000091552734 -50.24700164794922,-11.305999755859375 -50.24700164794922,-11.305999755859375 C-50.24700164794922,-11.305999755859375 -37.98400115966797,-19.104000091552734 -37.98400115966797,-19.104000091552734z"/></g><g opacity="1" transform="matrix(1,0,0,1,190.14500427246094,249.96200561523438)"><path stroke-linecap="round" stroke-linejoin="round" fill-opacity="0" stroke="rgb(192,204,216)" stroke-opacity="1" stroke-width="8" d=" M92.8280029296875,49.01900100708008 C75.94599914550781,49.01900100708008 60.4739990234375,46.11199951171875 48.45500183105469,41.28200149536133 C48.45500183105469,41.28200149536133 -79.09300231933594,-30.416000366210938 -79.09300231933594,-30.416000366210938 C-87.68000030517578,-35.4900016784668 -92.8280029296875,-41.96500015258789 -92.8280029296875,-49.01900100708008" fill="none"/></g></g></g><g style="display: none;" transform="matrix(1.0708239078521729,0,0,1.0708239078521729,260.20257568359375,237.19711303710938)" opacity="1"><g opacity="1" transform="matrix(1,0,0,1,0,0)"><g opacity="1" transform="matrix(1,0,0,1,265.38299560546875,207.53399658203125)"><path fill="rgb(239,87,82)" fill-opacity="1" d=" M-263.3380126953125,-394.760986328125 C-300.2969970703125,-407.1659851074219 -338.7650146484375,-385.7619934082031 -332.74700927734375,-385.3970031738281 C-287.38299560546875,-383.14801025390625 -225.93099975585938,-350.6839904785156 -196.822998046875,-339.760986328125 C-137.88400268554688,-317.6449890136719 -131.13299560546875,-310.0220031738281 -117.83000183105469,-289.9200134277344 C-118.78500366210938,-312.7850036621094 -114.88300323486328,-337.7720031738281 -178.4980010986328,-363.5119934082031 C-203.6739959716797,-373.1629943847656 -247.4709930419922,-389.0169982910156 -263.3380126953125,-394.760986328125z"/></g></g></g><g style="display: none;" transform="matrix(1.0708239078521729,0,0,1.0708239078521729,-59.43833923339844,-36.996036529541016)" opacity="0.15384615384615388"><g opacity="1" transform="matrix(1,0,0,1,0,0)"><g opacity="1" transform="matrix(1,0,0,1,265.27301025390625,175.61300659179688)"><path fill="url(#__lottie_element_55)" fill-opacity="1" d=" M1.8300000429153442,-99.67900085449219 C-30.111000061035156,-90.08699798583984 -36.513999938964844,-102.01599884033203 -64.70600128173828,-83.25599670410156 C-64.70600128173828,-83.25599670410156 107.93499755859375,-40.659000396728516 107.93499755859375,-40.659000396728516 C107.93499755859375,-40.659000396728516 114.70999908447266,-31.054000854492188 159.63299560546875,-21.632999420166016 C159.63299560546875,-21.632999420166016 129.12399291992188,-50.066001892089844 129.12399291992188,-50.066001892089844 C129.12399291992188,-50.066001892089844 1.8300000429153442,-99.67900085449219 1.8300000429153442,-99.67900085449219z"/></g><g opacity="1" transform="matrix(1,0,0,1,0,0)"><g opacity="1" transform="matrix(1,0,0,1,350.6390075683594,216.71299743652344)"><path fill="url(#__lottie_element_56)" fill-opacity="1" d=" M18.128000259399414,-85.08100128173828 C26.31800079345703,-116.33000183105469 44.52899932861328,-86.30599975585938 67.86799621582031,-72.51000213623047 C67.86799621582031,-72.51000213623047 73.302001953125,-60.152000427246094 73.302001953125,-60.152000427246094 C28.509000778198242,-51.39899826049805 30.266000747680664,-76.2979965209961 30.266000747680664,-76.2979965209961 C30.266000747680664,-76.2979965209961 18.128000259399414,-85.08100128173828 18.128000259399414,-85.08100128173828z"/></g><g opacity="1" transform="matrix(1,0,0,1,265.38299560546875,207.53399658203125)"><path fill="url(#__lottie_element_57)" fill-opacity="1" d=" M109.31999969482422,-90.5270004272461 C109.31999969482422,-90.5270004272461 18.847000122070312,-127.23699951171875 18.847000122070312,-127.23699951171875 C10.092000007629395,-130.5469970703125 0.5189999938011169,-133.531005859375 -9.343999862670898,-132.36000061035156 C-50.98500061035156,-127.41400146484375 -68.28099822998047,-113.85800170898438 -79.25299835205078,-100.93900299072266 C-79.25299835205078,-100.93900299072266 -71.26000213623047,-103.13800048828125 -71.26000213623047,-103.13800048828125 C-71.43900299072266,-101.99500274658203 -71.54499816894531,-100.83699798583984 -71.54499816894531,-99.66100311279297 C-71.54499816894531,-99.66000366210938 -44.34600067138672,-109.50700378417969 -25.51799964904785,-98.38200378417969 C-25.51799964904785,-98.38200378417969 90.66899871826172,-45.32600021362305 90.66899871826172,-45.32600021362305 C118.44499969482422,-46.138999938964844 135.91900634765625,-9.76099967956543 155.14700317382812,3.8910000324249268 C168.75999450683594,13.555999755859375 168.66200256347656,21.833999633789062 170.1009979248047,11.854000091552734 C170.50799560546875,9.029000282287598 170.61099243164062,-1.7510000467300415 170.968994140625,-18.253000259399414 C171.72300720214844,-53.07099914550781 142.0019989013672,-77.50700378417969 109.31999969482422,-90.5270004272461z"/></g><g opacity="1" transform="matrix(1,0,0,1,264.5150146484375,207.53399658203125)"><path fill="url(#__lottie_element_58)" fill-opacity="1" d=" M109.31999969482422,-90.5270004272461 C109.31999969482422,-90.5270004272461 18.847000122070312,-127.23699951171875 18.847000122070312,-127.23699951171875 C10.092000007629395,-130.5469970703125 0.4620000123977661,-133.93600463867188 -9.343999862670898,-132.36000061035156 C-49.154998779296875,-125.96399688720703 -65.86199951171875,-105.80999755859375 -79.25299835205078,-100.93900299072266 C-79.25299835205078,-100.93900299072266 -71.26000213623047,-103.13800048828125 -71.26000213623047,-103.13800048828125 C-71.43900299072266,-101.99500274658203 -71.54499816894531,-100.83699798583984 -71.54499816894531,-99.66100311279297 C-71.54499816894531,-99.66000366210938 -44.34600067138672,-109.50700378417969 -25.51799964904785,-98.38200378417969 C-25.51799964904785,-98.38200378417969 90.66899871826172,-45.32600021362305 90.66899871826172,-45.32600021362305 C119.73500061035156,-46.007999420166016 147.5240020751953,-10.545000076293945 155.14700317382812,3.8910000324249268 C162.9429931640625,18.65399932861328 168.66200256347656,21.833999633789062 170.1009979248047,11.854000091552734 C170.50799560546875,9.029000282287598 170.61099243164062,-1.7510000467300415 170.968994140625,-18.253000259399414 C171.72300720214844,-53.07099914550781 142.0019989013672,-77.50700378417969 109.31999969482422,-90.5270004272461z"/></g><g opacity="1" transform="matrix(1,0,0,1,184.84800720214844,165.927001953125)"><path fill="url(#__lottie_element_59)" fill-opacity="1" d=" M89.92400360107422,-85.20600128173828 C94.35099792480469,-85.24299621582031 98.69499969482422,-84.85700225830078 102.94200134277344,-84.21800231933594 C102.94200134277344,-84.21800231933594 99.38200378417969,-85.63099670410156 99.38200378417969,-85.63099670410156 C90.62699890136719,-88.94100189208984 81.00900268554688,-92.25599670410156 71.19100189208984,-90.75399780273438 C23.180999755859375,-83.40799713134766 8.989999771118164,-67.01300048828125 8.989999771118164,-58.05500030517578 C8.989999771118164,-58.05400085449219 36.37099838256836,-69.7959976196289 51.39099884033203,-59.13100051879883 C51.39099884033203,-59.13100051879883 -0.5680000185966492,-54.529998779296875 19.323999404907227,-73.66899871826172 C32.67399978637695,-86.51399993896484 42.41400146484375,-84.81099700927734 89.92400360107422,-85.20600128173828z"/></g><g opacity="1" transform="matrix(1,0,0,1,231.3350067138672,211.00999450683594)"><path fill="url(#__lottie_element_60)" fill-opacity="1" d=" M-18.760000228881836,-122.53500366210938 C-21.572999954223633,-118.25800323486328 -25.01300048828125,-123.64399719238281 -27.163999557495117,-118.7509994506836 C-30.67799949645996,-110.75599670410156 -26.81100082397461,-115.8550033569336 -27.39900016784668,-107.43399810791016 C-27.39900016784668,-107.43399810791016 134.8939971923828,-42.8390007019043 134.8939971923828,-42.8390007019043 C138.2480010986328,-56.30799865722656 143.85400390625,-68.85199737548828 151.3040008544922,-80.09600067138672 C151.3040008544922,-80.09600067138672 -18.760000228881836,-122.53500366210938 -18.760000228881836,-122.53500366210938z"/></g><g opacity="1" transform="matrix(1,0,0,1,308.59100341796875,253.88800048828125)"><path fill="url(#__lottie_element_61)" fill-opacity="1" d=" M38.81100082397461,-88.5469970703125 C38.81100082397461,-88.5469970703125 62.97700119018555,-76.51300048828125 62.97700119018555,-76.51300048828125 C67.08899688720703,-93.0250015258789 73.96099853515625,-108.40499877929688 83.09500122070312,-122.18900299072266 C83.09500122070312,-122.18900299072266 58.744998931884766,-134.3249969482422 58.744998931884766,-134.3249969482422 C49.87900161743164,-120.36399841308594 43.10100173950195,-104.97699737548828 38.81100082397461,-88.5469970703125z"/></g><g opacity="1" transform="matrix(1,0,0,1,265.4010009765625,207.53399658203125)"><path fill="url(#__lottie_element_62)" fill-opacity="1" d=" M109.31999969482422,-90.5270004272461 C109.31999969482422,-90.5270004272461 18.847000122070312,-127.23699951171875 18.847000122070312,-127.23699951171875 C10.092000007629395,-130.5469970703125 0.49399998784065247,-133.72799682617188 -9.343999862670898,-132.36000061035156 C-50.15999984741211,-126.68499755859375 -63.72800064086914,-112.29399871826172 -79.25299835205078,-100.93900299072266 C-79.25299835205078,-100.93900299072266 -71.26000213623047,-103.13800048828125 -71.26000213623047,-103.13800048828125 C-71.43900299072266,-101.99500274658203 -71.54499816894531,-100.83699798583984 -71.54499816894531,-99.66100311279297 C-71.54499816894531,-99.66000366210938 -44.34600067138672,-109.50700378417969 -25.51799964904785,-98.38200378417969 C-25.51799964904785,-98.38200378417969 90.66899871826172,-45.32600021362305 90.66899871826172,-45.32600021362305 C113.75900268554688,-36.04800033569336 135.4810028076172,-12.208000183105469 155.14700317382812,-1.6050000190734863 C169.8419952392578,6.317999839782715 171.46400451660156,1.8630000352859497 170.1009979248047,11.854000091552734 C168.4969940185547,23.614999771118164 167.2740020751953,22.445999145507812 170.968994140625,-18.253000259399414 C174.1179962158203,-52.9370002746582 142.0019989013672,-77.50700378417969 109.31999969482422,-90.5270004272461z"/></g><g opacity="1" transform="matrix(1,0,0,1,342.9800109863281,257.8630065917969)"><g opacity="1" transform="matrix(1,0,0,1,0,0)"><path fill="url(#__lottie_element_63)" fill-opacity="1" d=" M44.87900161743164,-135.93800354003906 C49.59600067138672,-121.1969985961914 67.99600219726562,-95.28800201416016 65.3219985961914,-76.91500091552734 C76.9990005493164,-75.72699737548828 54.95600128173828,-47.74399948120117 67.5780029296875,-50.457000732421875 C68.46700286865234,-66.63099670410156 66.97799682617188,-76.89299774169922 66.55400085449219,-80.25800323486328 C60.69200134277344,-126.80599975585938 35.354000091552734,-167.81100463867188 44.87900161743164,-135.93800354003906z"/></g></g></g></g></g><g style="display: none;" transform="matrix(1.0700000524520874,0,0,1.0700000524520874,258.55499267578125,238.4342041015625)" opacity="1"><g opacity="1" transform="matrix(1,0,0,1,0,0)"><path stroke-linecap="butt" stroke-linejoin="round" fill-opacity="0" stroke="rgb(204,10,0)" stroke-opacity="1" stroke-width="8" d=" M2.0450000762939453,-187.2270050048828 C-34.91400146484375,-199.6320037841797 -73.38200378417969,-178.22900390625 -67.36399841308594,-177.86399841308594 C-54.7869987487793,-177.24099731445312 -41.05099868774414,-174.4290008544922 -27.143999099731445,-170.45799255371094 C9.109999656677246,-160.1060028076172 46.52299880981445,-141.87100219726562 67.56099700927734,-133.9770050048828 C126.5,-111.86100006103516 136.75,-100.98799896240234 150.05299377441406,-80.88600158691406 C150,-104.98799896240234 150.5,-130.23800659179688 86.88500213623047,-155.97799682617188 C61.70899963378906,-165.62899780273438 17.91200065612793,-181.48300170898438 2.0450000762939453,-187.2270050048828z" fill="none"/></g></g><g style="display: none;" transform="matrix(1.0700000524520874,0,0,1.0700000524520874,258.55499267578125,238.43418884277344)" opacity="1"><g opacity="1" transform="matrix(1,0,0,1,0,0)"><path stroke-linecap="round" stroke-linejoin="miter" fill-opacity="0" stroke-miterlimit="4" stroke="rgb(142,9,6)" stroke-opacity="1" stroke-width="8" d=" M122.33300018310547,-137.625 C122.33300018310547,-137.625 139.5,-128.98800659179688 145.30599975585938,-111.0780029296875 C150.94200134277344,-97.072998046875 152.70700073242188,-87.85399627685547 153.10899353027344,-78.49299621582031" fill="none"/></g></g><g style="display: none;" transform="matrix(1.0708239078521729,0,0,1.0708239078521729,157.66253662109375,231.4915313720703)" opacity="1"><g opacity="1" transform="matrix(1,0,0,1,0,0)"><path stroke-linecap="round" stroke-linejoin="round" fill-opacity="0" stroke="rgb(140,0,0)" stroke-opacity="1" stroke-width="8" d=" M-4.811999797821045,-96.11100006103516 C47.400001525878906,-73.49700164794922 148.31500244140625,-29.788999557495117 148.31500244140625,-29.788999557495117" fill="none"/></g></g><g style="display: none;" transform="matrix(1.0708239078521729,0,0,1.0708239078521729,303.36981201171875,269.4748840332031)" opacity="1"><g opacity="1" transform="matrix(1,0,0,1,0,0)"><path stroke-linecap="round" stroke-linejoin="round" fill-opacity="0" stroke="rgb(142,9,6)" stroke-opacity="1" stroke-width="8" d=" M77.19499969482422,-140.16600036621094 C139.01100158691406,-98.9219970703125 91.2969970703125,-48.459999084472656 75.7229995727539,-42.486000061035156 C70.30799865722656,-40.409000396728516 56.82400131225586,-39.832000732421875 52.95600128173828,-41.766998291015625" fill="none"/></g></g></g></svg>