<svg xmlns="http://www.w3.org/2000/svg" xmlns:xlink="http://www.w3.org/1999/xlink" viewBox="0 0 512 512" width="512" height="512" style="width: 100%; height: 100%; transform: translate3d(0px, 0px, 0px); content-visibility: visible;" preserveAspectRatio="xMidYMid meet"><defs><clipPath id="__lottie_element_29"><rect width="512" height="512" x="0" y="0"/></clipPath></defs><g clip-path="url(#__lottie_element_29)"><g style="display: block;" transform="matrix(0.8039792776107788,-0.00021111249225214124,-0.0006021118606440723,0.7960803508758545,266.0066833496094,275.40631103515625)" opacity="1"><g opacity="1" transform="matrix(1,0,0,1,0,0)"><g opacity="1" transform="matrix(1,0,0,1,0,0)"><path fill="rgb(255,93,31)" fill-opacity="1" d=" M40.45000076293945,137.25399780273438 C81.93199920654297,133.51699829101562 149.569091796875,160.93685913085938 181.70809936523438,175.51187133789062 C213.8470916748047,190.0868682861328 216.72254943847656,169.2189178466797 224.20205688476562,98.87676239013672 C230.42626953125,40.294979095458984 194.9530487060547,46.00075912475586 184.58905029296875,73.46475982666016 C177.11505126953125,93.27175903320312 178.28997802734375,132.045166015625 178.28997802734375,132.045166015625 C124.10198211669922,103.6431655883789 50.15675354003906,109.92977142333984 50.15675354003906,109.92977142333984"/><path stroke-linecap="round" stroke-linejoin="round" fill-opacity="0" stroke="rgb(207,53,2)" stroke-opacity="1" stroke-width="12.5" d=" M40.45000076293945,137.25399780273438 C81.93199920654297,133.51699829101562 149.569091796875,160.93685913085938 181.70809936523438,175.51187133789062 C213.8470916748047,190.0868682861328 216.72254943847656,169.2189178466797 224.20205688476562,98.87676239013672 C230.42626953125,40.294979095458984 194.9530487060547,46.00075912475586 184.58905029296875,73.46475982666016 C177.11505126953125,93.27175903320312 178.28997802734375,132.045166015625 178.28997802734375,132.045166015625 C124.10198211669922,103.6431655883789 50.15675354003906,109.92977142333984 50.15675354003906,109.92977142333984" fill="none"/><path stroke-linecap="round" stroke-linejoin="round" fill-opacity="0" stroke-dasharray=" 2 7" stroke-dashoffset="0" stroke="rgb(207,53,2)" stroke-opacity="1" stroke-width="12.5" d=" M40.45000076293945,137.25399780273438 C81.93199920654297,133.51699829101562 149.569091796875,160.93685913085938 181.70809936523438,175.51187133789062 C213.8470916748047,190.0868682861328 216.72254943847656,169.2189178466797 224.20205688476562,98.87676239013672 C230.42626953125,40.294979095458984 194.9530487060547,46.00075912475586 184.58905029296875,73.46475982666016 C177.11505126953125,93.27175903320312 178.28997802734375,132.045166015625 178.28997802734375,132.045166015625 C124.10198211669922,103.6431655883789 50.15675354003906,109.92977142333984 50.15675354003906,109.92977142333984" fill="none"/></g></g></g><g style="display: block;" transform="matrix(1.0037040710449219,-0.05102129280567169,0.0505136176943779,0.9937169551849365,211.85903930664062,321.5644836425781)" opacity="1"><g opacity="1" transform="matrix(1,0,0,1,0,0)"><path fill="rgb(255,213,39)" fill-opacity="1" d=" M-95.57611846923828,-101.33079528808594 C-117.37751007080078,-71.87831115722656 -135.14083862304688,-5.039622783660889 -138.09983825683594,24.671377182006836 C-146.67698669433594,23.07084083557129 -153.55532836914062,27.765092849731445 -156.54432678222656,36.62709426879883 C-160.92031860351562,49.60209274291992 -152.802001953125,88.31099700927734 -85.86499786376953,101.51399993896484 C26.790000915527344,123.73500061035156 116.64662170410156,117.53128814697266 144.94761657714844,67.53828430175781 C156.5206298828125,47.09428405761719 156.1699981689453,17.445999145507812 146.57899475097656,-11.802000045776367 C132.46099853515625,-54.856998443603516 108.83000183105469,-90.88899993896484 88.74600219726562,-112.44400024414062"/><path stroke-linecap="round" stroke-linejoin="round" fill-opacity="0" stroke="rgb(250,144,22)" stroke-opacity="1" stroke-width="10" d=" M-95.57611846923828,-101.33079528808594 C-117.37751007080078,-71.87831115722656 -135.14083862304688,-5.039622783660889 -138.09983825683594,24.671377182006836 C-146.67698669433594,23.07084083557129 -153.55532836914062,27.765092849731445 -156.54432678222656,36.62709426879883 C-160.92031860351562,49.60209274291992 -152.802001953125,88.31099700927734 -85.86499786376953,101.51399993896484 C26.790000915527344,123.73500061035156 116.64662170410156,117.53128814697266 144.94761657714844,67.53828430175781 C156.5206298828125,47.09428405761719 156.1699981689453,17.445999145507812 146.57899475097656,-11.802000045776367 C132.46099853515625,-54.856998443603516 108.83000183105469,-90.88899993896484 88.74600219726562,-112.44400024414062" fill="none"/></g></g><g style="display: block;" transform="matrix(0.9825750589370728,0.2081582248210907,-0.2112148553133011,0.9729626178741455,233.37850952148438,370.9096374511719)" opacity="1"><g opacity="1" transform="matrix(1,0,0,1,-105.52300262451172,-19.874000549316406)"><path stroke-linecap="round" stroke-linejoin="round" fill-opacity="0" stroke="rgb(255,255,255)" stroke-opacity="1" stroke-width="8" d=" M-39.44200134277344,-15.439000129699707 C-40.57400131225586,-7.566999912261963 -39.6879997253418,10.027999877929688 -39.643001556396484,21.301000595092773" fill="none"/></g></g><g style="display: block;" transform="matrix(0.9580298066139221,-0.30142396688461304,0.3034845292568207,0.9482977986335754,252.44277954101562,302.7137756347656)" opacity="1"><g opacity="1" transform="matrix(1,0,0,1,0,0)"><g opacity="1" transform="matrix(1,0,0,1,0,0)"><path fill="rgb(255,213,39)" fill-opacity="1" d=" M80.5501708984375,13.160524368286133 C62.27341079711914,53.15986251831055 23.761690139770508,90.48242950439453 30.69116973876953,96.2428970336914 C48.32050704956055,110.87960052490234 83.18130493164062,92.81990814208984 99.18914031982422,51.15911102294922 C125.31875610351562,-16.539756774902344 77.61299133300781,-59.10699462890625 77.61299133300781,-59.10699462890625"/><path stroke-linecap="round" stroke-linejoin="round" fill-opacity="0" stroke="rgb(250,144,22)" stroke-opacity="1" stroke-width="10" d=" M80.5501708984375,13.160524368286133 C62.27341079711914,53.15986251831055 23.761690139770508,90.48242950439453 30.69116973876953,96.2428970336914 C48.32050704956055,110.87960052490234 83.18130493164062,92.81990814208984 99.18914031982422,51.15911102294922 C125.31875610351562,-16.539756774902344 77.61299133300781,-59.10699462890625 77.61299133300781,-59.10699462890625" fill="none"/><path stroke-linecap="round" stroke-linejoin="round" fill-opacity="0" stroke-dasharray=" 2 7" stroke-dashoffset="0" stroke="rgb(250,144,22)" stroke-opacity="1" stroke-width="10" d=" M80.5501708984375,13.160524368286133 C62.27341079711914,53.15986251831055 23.761690139770508,90.48242950439453 30.69116973876953,96.2428970336914 C48.32050704956055,110.87960052490234 83.18130493164062,92.81990814208984 99.18914031982422,51.15911102294922 C125.31875610351562,-16.539756774902344 77.61299133300781,-59.10699462890625 77.61299133300781,-59.10699462890625" fill="none"/></g></g></g><g style="display: block;" transform="matrix(1.0037040710449219,-0.05102129280567169,0.0505136176943779,0.9937169551849365,197.98043823242188,147.99685668945312)" opacity="1"><g opacity="1" transform="matrix(1,0,0,1,0,0)"><path fill="rgb(255,213,39)" fill-opacity="1" d=" M-105.22100067138672,118.86000061035156 C-133.2010040283203,100.05000305175781 -150.76300048828125,72.0739974975586 -153.39599609375,37.85300064086914 C-158.99000549316406,-34.845001220703125 -95.81700134277344,-111.77899932861328 -11.095000267028809,-118.4020004272461 C73.6259994506836,-125.0250015258789 147.81300354003906,-58.83000183105469 153.40699768066406,13.868000030517578 C156.04800415039062,48.18199920654297 142.88900756835938,78.427001953125 118.43800354003906,101.1719970703125"/><path stroke-linecap="round" stroke-linejoin="round" fill-opacity="0" stroke="rgb(250,144,22)" stroke-opacity="1" stroke-width="10" d=" M-105.22100067138672,118.86000061035156 C-133.2010040283203,100.05000305175781 -150.76300048828125,72.0739974975586 -153.39599609375,37.85300064086914 C-158.99000549316406,-34.845001220703125 -95.81700134277344,-111.77899932861328 -11.095000267028809,-118.4020004272461 C73.6259994506836,-125.0250015258789 147.81300354003906,-58.83000183105469 153.40699768066406,13.868000030517578 C156.04800415039062,48.18199920654297 142.88900756835938,78.427001953125 118.43800354003906,101.1719970703125" fill="none"/></g><g opacity="1" transform="matrix(1,0,0,1,106.01899719238281,-20.033000946044922)"><path stroke-linecap="round" stroke-linejoin="round" fill-opacity="0" stroke="rgb(252,238,33)" stroke-opacity="1" stroke-width="8" d=" M27.496000289916992,51.01599884033203 C29.04800033569336,12.496000289916992 2.125999927520752,-35.3849983215332 -22.451000213623047,-48.73699951171875" fill="none"/></g><g opacity="1" transform="matrix(1,0,0,1,-105.52300262451172,-19.874000549316406)"><path stroke-linecap="round" stroke-linejoin="round" fill-opacity="0" stroke-dasharray=" 66 15" stroke-dashoffset="0" stroke="rgb(255,255,255)" stroke-opacity="1" stroke-width="8" d=" M20.759000778198242,-41.31399917602539 C-4.993000030517578,-23.413000106811523 -23.000999450683594,18.184999465942383 -23.732999801635742,41.74800109863281" fill="none"/></g></g><g style="display: block;" transform="matrix(-0.6658379435539246,0.2318856567144394,0.3326099216938019,0.9386152625083923,304.4774475097656,114.56939697265625)" opacity="1"><g opacity="1" transform="matrix(1,0,0,1,0,0)"><path fill="rgb(0,0,0)" fill-opacity="1" d=" M28.225000381469727,1.031999945640564 C27.48900032043457,18.183000564575195 14.255000114440918,31.624000549316406 -1.3329999446868896,31.054000854492188 C-16.92099952697754,30.483999252319336 -28.961000442504883,16.118999481201172 -28.225000381469727,-1.031999945640564 C-27.48900032043457,-18.183000564575195 -14.255000114440918,-31.624000549316406 1.3329999446868896,-31.054000854492188 C16.92099952697754,-30.483999252319336 28.961000442504883,-16.118999481201172 28.225000381469727,1.031999945640564z"/><path stroke-linecap="round" stroke-linejoin="round" fill-opacity="0" stroke="rgb(0,0,0)" stroke-opacity="1" stroke-width="0" d=" M28.225000381469727,1.031999945640564 C27.48900032043457,18.183000564575195 14.255000114440918,31.624000549316406 -1.3329999446868896,31.054000854492188 C-16.92099952697754,30.483999252319336 -28.961000442504883,16.118999481201172 -28.225000381469727,-1.031999945640564 C-27.48900032043457,-18.183000564575195 -14.255000114440918,-31.624000549316406 1.3329999446868896,-31.054000854492188 C16.92099952697754,-30.483999252319336 28.961000442504883,-16.118999481201172 28.225000381469727,1.031999945640564z" fill="none"/></g><g opacity="1" transform="matrix(1,0,0,1,2.0810000896453857,-15.326000213623047)"><path fill="rgb(255,255,255)" fill-opacity="1" d=" M11.354999542236328,0.41499999165534973 C11.119000434875488,5.922999858856201 5.8429999351501465,10.201000213623047 -0.42800000309944153,9.972000122070312 C-6.698999881744385,9.743000030517578 -11.590999603271484,5.0929999351501465 -11.354999542236328,-0.41499999165534973 C-11.119000434875488,-5.922999858856201 -5.8429999351501465,-10.201000213623047 0.42800000309944153,-9.972000122070312 C6.698999881744385,-9.743000030517578 11.590999603271484,-5.0929999351501465 11.354999542236328,0.41499999165534973z"/></g></g><g style="display: block;" transform="matrix(0.9834952354431152,-0.2056068331003189,0.2066653072834015,0.9735513925552368,250.45138549804688,156.50698852539062)" opacity="1"><g opacity="1" transform="matrix(1,0,0,1,0,0)"><path fill="rgb(255,93,31)" fill-opacity="1" d=" M-55.85247802734375,12.18981647491455 C-52.533477783203125,-1.8951834440231323 -36.810001373291016,1.565000057220459 -25.179000854492188,-4.677999973297119 C-10.512999534606934,-12.550000190734863 -15.38599967956543,-31.73699951171875 0.008999999612569809,-32.40700149536133 C15.265999794006348,-33.07099914550781 13.05021858215332,-12.670964241027832 26.830219268798828,-10.083963394165039 C47.672218322753906,-6.170963764190674 68.91809844970703,-1.16482412815094 46.71061325073242,11.404821395874023 C55.19886016845703,25.28432273864746 29.20162010192871,31.178281784057617 -5.669734477996826,32.34252166748047 C-32.22686004638672,33.2296028137207 -59.569480895996094,27.96481704711914 -55.85247802734375,12.18981647491455z"/><path stroke-linecap="round" stroke-linejoin="round" fill-opacity="0" stroke="rgb(207,53,2)" stroke-opacity="1" stroke-width="8" d=" M-55.85247802734375,12.18981647491455 C-52.533477783203125,-1.8951834440231323 -36.810001373291016,1.565000057220459 -25.179000854492188,-4.677999973297119 C-10.512999534606934,-12.550000190734863 -15.38599967956543,-31.73699951171875 0.008999999612569809,-32.40700149536133 C15.265999794006348,-33.07099914550781 13.05021858215332,-12.670964241027832 26.830219268798828,-10.083963394165039 C47.672218322753906,-6.170963764190674 68.91809844970703,-1.16482412815094 46.71061325073242,11.404821395874023 C55.19886016845703,25.28432273864746 29.20162010192871,31.178281784057617 -5.669734477996826,32.34252166748047 C-32.22686004638672,33.2296028137207 -59.569480895996094,27.96481704711914 -55.85247802734375,12.18981647491455z" fill="none"/></g><g opacity="1" transform="matrix(1,0,0,1,4.25600004196167,16.17099952697754)"><path stroke-linecap="round" stroke-linejoin="round" fill-opacity="0" stroke="rgb(125,9,9)" stroke-opacity="1" stroke-width="8" d=" M-42.394561767578125,0.5561327934265137 C-23.178863525390625,7.510132789611816 25.49805450439453,6.042011260986328 42.328182220458984,-4.748988628387451" fill="none"/></g><g opacity="0.33" transform="matrix(1,0,0,1,-14.994999885559082,-4.2779998779296875)"><path stroke-linecap="round" stroke-linejoin="round" fill-opacity="0" stroke="rgb(255,255,255)" stroke-opacity="1" stroke-width="8" d=" M8.736000061035156,-8.430999755859375 C3.7920000553131104,1.1699999570846558 -1.8250000476837158,5.951000213623047 -8.736000061035156,8.430999755859375" fill="none"/></g></g><g style="display: block;" transform="matrix(0.9834952354431152,-0.2056068331003189,0.2066653072834015,0.9735513925552368,169.65353393554688,142.75640869140625)" opacity="1"><g opacity="1" transform="matrix(1,0,0,1,0,0)"><path fill="rgb(0,0,0)" fill-opacity="1" d=" M28.225000381469727,1.031999945640564 C27.48900032043457,18.183000564575195 14.255000114440918,31.624000549316406 -1.3329999446868896,31.054000854492188 C-16.92099952697754,30.483999252319336 -28.961000442504883,16.118999481201172 -28.225000381469727,-1.031999945640564 C-27.48900032043457,-18.183000564575195 -14.255000114440918,-31.624000549316406 1.3329999446868896,-31.054000854492188 C16.92099952697754,-30.483999252319336 28.961000442504883,-16.118999481201172 28.225000381469727,1.031999945640564z"/><path stroke-linecap="round" stroke-linejoin="round" fill-opacity="0" stroke="rgb(0,0,0)" stroke-opacity="1" stroke-width="0" d=" M28.225000381469727,1.031999945640564 C27.48900032043457,18.183000564575195 14.255000114440918,31.624000549316406 -1.3329999446868896,31.054000854492188 C-16.92099952697754,30.483999252319336 -28.961000442504883,16.118999481201172 -28.225000381469727,-1.031999945640564 C-27.48900032043457,-18.183000564575195 -14.255000114440918,-31.624000549316406 1.3329999446868896,-31.054000854492188 C16.92099952697754,-30.483999252319336 28.961000442504883,-16.118999481201172 28.225000381469727,1.031999945640564z" fill="none"/></g><g opacity="1" transform="matrix(1,0,0,1,2.0810000896453857,-15.326000213623047)"><path fill="rgb(255,255,255)" fill-opacity="1" d=" M11.354999542236328,0.41499999165534973 C11.119000434875488,5.922999858856201 5.8429999351501465,10.201000213623047 -0.42800000309944153,9.972000122070312 C-6.698999881744385,9.743000030517578 -11.590999603271484,5.0929999351501465 -11.354999542236328,-0.41499999165534973 C-11.119000434875488,-5.922999858856201 -5.8429999351501465,-10.201000213623047 0.42800000309944153,-9.972000122070312 C6.698999881744385,-9.743000030517578 11.590999603271484,-5.0929999351501465 11.354999542236328,0.41499999165534973z"/></g></g><g style="display: block;" transform="matrix(0.8039792776107788,-0.00021111249225214124,-0.0006021118606440723,0.7960803508758545,232.05361938476562,290.41473388671875)" opacity="1"><g opacity="1" transform="matrix(1,0,0,1,0,0)"><g opacity="1" transform="matrix(1,0,0,1,0,0)"><path fill="rgb(255,93,31)" fill-opacity="1" d=" M-141.800048828125,152.50450134277344 C-151.67034912109375,170.2019805908203 -174.72718811035156,214.4387969970703 -175.5491943359375,222.02479553222656 C-176.37118530273438,229.6107940673828 -141.31199645996094,254.7760009765625 -131.4429931640625,233.16000366210938 C-121.5739974975586,211.54400634765625 -97.00605010986328,176.9783477783203 -94.7840576171875,165.09288024902344 C-88.77407836914062,132.9538116455078 -130.1827850341797,131.6726531982422 -141.800048828125,152.50450134277344z"/><path stroke-linecap="round" stroke-linejoin="round" fill-opacity="0" stroke="rgb(207,53,2)" stroke-opacity="1" stroke-width="12.5" d=" M-141.800048828125,152.50450134277344 C-151.67034912109375,170.2019805908203 -174.72718811035156,214.4387969970703 -175.5491943359375,222.02479553222656 C-176.37118530273438,229.6107940673828 -141.31199645996094,254.7760009765625 -131.4429931640625,233.16000366210938 C-121.5739974975586,211.54400634765625 -97.00605010986328,176.9783477783203 -94.7840576171875,165.09288024902344 C-88.77407836914062,132.9538116455078 -130.1827850341797,131.6726531982422 -141.800048828125,152.50450134277344z" fill="none"/><path stroke-linecap="round" stroke-linejoin="round" fill-opacity="0" stroke-dasharray=" 2 7" stroke-dashoffset="0" stroke="rgb(207,53,2)" stroke-opacity="1" stroke-width="12.5" d=" M-141.800048828125,152.50450134277344 C-151.67034912109375,170.2019805908203 -174.72718811035156,214.4387969970703 -175.5491943359375,222.02479553222656 C-176.37118530273438,229.6107940673828 -141.31199645996094,254.7760009765625 -131.4429931640625,233.16000366210938 C-121.5739974975586,211.54400634765625 -97.00605010986328,176.9783477783203 -94.7840576171875,165.09288024902344 C-88.77407836914062,132.9538116455078 -130.1827850341797,131.6726531982422 -141.800048828125,152.50450134277344z" fill="none"/></g></g></g><g style="display: block;" transform="matrix(0.8039792776107788,-0.00021111249225214124,-0.0006021118606440723,0.7960803508758545,232.05361938476562,290.41473388671875)" opacity="1"><g opacity="1" transform="matrix(1,0,0,1,0,0)"><g opacity="1" transform="matrix(1,0,0,1,0,0)"><path fill="rgb(255,93,31)" fill-opacity="1" d=" M-137.00100708007812,188.51300048828125 C-140.76600646972656,179.9290008544922 -147.58885192871094,171.92457580566406 -154.57461547851562,165.7329864501953 C-172.56045532226562,149.79736328125 -193.917724609375,140.4182891845703 -209.65872192382812,148.11329650878906 C-231.70672607421875,158.89129638671875 -226.48069763183594,196.1649627685547 -207.18699645996094,215.03599548339844 C-190.52645874023438,231.31947326660156 -176.38600158691406,251.00399780273438 -152.10499572753906,246.6529998779297 C-139.06100463867188,244.3159942626953 -132.44900512695312,236.25999450683594 -130.51199340820312,225.5590057373047"/><path stroke-linecap="round" stroke-linejoin="round" fill-opacity="0" stroke="rgb(207,53,2)" stroke-opacity="1" stroke-width="12.5" d=" M-137.00100708007812,188.51300048828125 C-140.76600646972656,179.9290008544922 -147.58885192871094,171.92457580566406 -154.57461547851562,165.7329864501953 C-172.56045532226562,149.79736328125 -193.917724609375,140.4182891845703 -209.65872192382812,148.11329650878906 C-231.70672607421875,158.89129638671875 -226.48069763183594,196.1649627685547 -207.18699645996094,215.03599548339844 C-190.52645874023438,231.31947326660156 -176.38600158691406,251.00399780273438 -152.10499572753906,246.6529998779297 C-139.06100463867188,244.3159942626953 -132.44900512695312,236.25999450683594 -130.51199340820312,225.5590057373047" fill="none"/><path stroke-linecap="round" stroke-linejoin="round" fill-opacity="0" stroke-dasharray=" 2 7" stroke-dashoffset="0" stroke="rgb(207,53,2)" stroke-opacity="1" stroke-width="12.5" d=" M-137.00100708007812,188.51300048828125 C-140.76600646972656,179.9290008544922 -147.58885192871094,171.92457580566406 -154.57461547851562,165.7329864501953 C-172.56045532226562,149.79736328125 -193.917724609375,140.4182891845703 -209.65872192382812,148.11329650878906 C-231.70672607421875,158.89129638671875 -226.48069763183594,196.1649627685547 -207.18699645996094,215.03599548339844 C-190.52645874023438,231.31947326660156 -176.38600158691406,251.00399780273438 -152.10499572753906,246.6529998779297 C-139.06100463867188,244.3159942626953 -132.44900512695312,236.25999450683594 -130.51199340820312,225.5590057373047" fill="none"/></g><g opacity="1" transform="matrix(1,0,0,1,0,0)"><path stroke-linecap="round" stroke-linejoin="round" fill-opacity="0" stroke="rgb(207,53,2)" stroke-opacity="1" stroke-width="12.5" d=" M-202.9759979248047,219.25399780273438 C-188.04400634765625,234.49899291992188 -174.3179931640625,250.63299560546875 -152.10499572753906,246.6529998779297 C-139.06100463867188,244.3159942626953 -132.44900512695312,236.25999450683594 -130.51199340820312,225.5590057373047" fill="none"/><path stroke-linecap="round" stroke-linejoin="round" fill-opacity="0" stroke-dasharray=" 2 7" stroke-dashoffset="0" stroke="rgb(207,53,2)" stroke-opacity="1" stroke-width="12.5" d=" M-202.9759979248047,219.25399780273438 C-188.04400634765625,234.49899291992188 -174.3179931640625,250.63299560546875 -152.10499572753906,246.6529998779297 C-139.06100463867188,244.3159942626953 -132.44900512695312,236.25999450683594 -130.51199340820312,225.5590057373047" fill="none"/></g><g opacity="1" transform="matrix(1,0,0,1,0,0)"><path stroke-linecap="round" stroke-linejoin="round" fill-opacity="0" stroke="rgb(207,53,2)" stroke-opacity="1" stroke-width="12.5" d=" M-130.51199340820312,225.5590057373047 C-132.44900512695312,236.25999450683594 -139.06100463867188,244.3159942626953 -152.10499572753906,246.6529998779297 C-176.38600158691406,251.00399780273438 -190.52645874023438,231.31947326660156 -207.18699645996094,215.03599548339844 C-226.48069763183594,196.1649627685547 -231.70672607421875,158.89129638671875 -209.65872192382812,148.11329650878906 C-193.917724609375,140.4182891845703 -172.56045532226562,149.79736328125 -154.57461547851562,165.7329864501953 C-147.58885192871094,171.92457580566406 -140.76600646972656,179.9290008544922 -137.00100708007812,188.51300048828125" fill="none"/><path stroke-linecap="round" stroke-linejoin="round" fill-opacity="0" stroke-dasharray=" 10 1000" stroke-dashoffset="0" stroke="rgb(207,53,2)" stroke-opacity="1" stroke-width="12.5" d=" M-130.51199340820312,225.5590057373047 C-132.44900512695312,236.25999450683594 -139.06100463867188,244.3159942626953 -152.10499572753906,246.6529998779297 C-176.38600158691406,251.00399780273438 -190.52645874023438,231.31947326660156 -207.18699645996094,215.03599548339844 C-226.48069763183594,196.1649627685547 -231.70672607421875,158.89129638671875 -209.65872192382812,148.11329650878906 C-193.917724609375,140.4182891845703 -172.56045532226562,149.79736328125 -154.57461547851562,165.7329864501953 C-147.58885192871094,171.92457580566406 -140.76600646972656,179.9290008544922 -137.00100708007812,188.51300048828125" fill="none"/></g></g></g><g style="display: block;" transform="matrix(0.9705868363380432,0.2572915852069855,-0.26078519225120544,0.9611507058143616,214.5609588623047,483.6058349609375)" opacity="1"><g opacity="1" transform="matrix(1,0,0,1,-105.52300262451172,-19.874000549316406)"><path stroke-linecap="round" stroke-linejoin="round" fill-opacity="0" stroke="rgb(255,146,105)" stroke-opacity="1" stroke-width="8" d=" M-42.900001525878906,-7.933000087738037 C-53.42399978637695,-7.5320000648498535 -57.82699966430664,2.5179998874664307 -50.37900161743164,14.699999809265137" fill="none"/></g></g><g style="display: block;" transform="matrix(0.9497385025024414,-0.32628899812698364,0.3285883665084839,0.94000643491745,284.4026794433594,359.737548828125)" opacity="1"><g opacity="1" transform="matrix(1,0,0,1,17.927000045776367,74.88999938964844)"><path fill="rgb(0,163,84)" fill-opacity="1" d=" M-9.275784492492676,-43.550716400146484 C-12.777155876159668,-20.35749626159668 -13.861061096191406,-0.6874880790710449 -12.584734916687012,17.00249671936035 C-11.543366432189941,32.568206787109375 -2.8604280948638916,44.70305633544922 3.1692099571228027,45.22455596923828 C9.63857364654541,45.85378646850586 18.93577766418457,41.83429718017578 5.14495849609375,20.03187370300293 C2.053347110748291,-0.5743377804756165 6.567357063293457,-25.65570640563965 8.807000160217285,-39.310001373291016"/><path stroke-linecap="round" stroke-linejoin="round" fill-opacity="0" stroke="rgb(1,73,36)" stroke-opacity="1" stroke-width="8" d=" M-9.275784492492676,-43.550716400146484 C-12.777155876159668,-20.35749626159668 -13.861061096191406,-0.6874880790710449 -12.584734916687012,17.00249671936035 C-11.543366432189941,32.568206787109375 -2.8604280948638916,44.70305633544922 3.1692099571228027,45.22455596923828 C9.63857364654541,45.85378646850586 18.93577766418457,41.83429718017578 5.14495849609375,20.03187370300293 C2.053347110748291,-0.5743377804756165 6.567357063293457,-25.65570640563965 8.807000160217285,-39.310001373291016" fill="none"/></g></g><g style="display: block;" transform="matrix(0.9341462850570679,-0.3678688704967499,0.37059980630874634,0.9245263934135437,278.98492431640625,351.22100830078125)" opacity="1"><g opacity="1" transform="matrix(1,0,0,1,-20.788000106811523,81.12100219726562)"><path fill="rgb(0,163,84)" fill-opacity="1" d=" M-11.126999855041504,-43.87300109863281 C-10.557000160217285,-21.78700065612793 -10.63566780090332,7.05177640914917 -6.861701965332031,24.81852912902832 C-6.573123931884766,39.26607894897461 -1.2071503400802612,45.19053649902344 2.8936305046081543,44.848419189453125 C9.535079956054688,44.29400634765625 13.5625581741333,37.53567123413086 9.007573127746582,20.942384719848633 C9.429141998291016,-0.24314995110034943 10.342000007629395,-28.753999710083008 9.137999534606934,-38.388999938964844"/><path stroke-linecap="round" stroke-linejoin="round" fill-opacity="0" stroke="rgb(1,73,36)" stroke-opacity="1" stroke-width="8" d=" M-11.126999855041504,-43.87300109863281 C-10.557000160217285,-21.78700065612793 -10.63566780090332,7.05177640914917 -6.861701965332031,24.81852912902832 C-6.573123931884766,39.26607894897461 -1.2071503400802612,45.19053649902344 2.8936305046081543,44.848419189453125 C9.535079956054688,44.29400634765625 13.5625581741333,37.53567123413086 9.007573127746582,20.942384719848633 C9.429141998291016,-0.24314995110034943 10.342000007629395,-28.753999710083008 9.137999534606934,-38.388999938964844" fill="none"/></g></g><g style="display: block;" transform="matrix(0.9995131492614746,-0.10459572076797485,0.10462797433137894,0.9895131587982178,290.25067138671875,354.2732849121094)" opacity="1"><g opacity="1" transform="matrix(1,0,0,1,-6.046999931335449,-35.270999908447266)"><path fill="rgb(0,163,84)" fill-opacity="1" d=" M-55.068511962890625,-7.864836692810059 C-60.71051025390625,-22.57483673095703 -59.39487838745117,-35.391422271728516 -53.1248779296875,-46.90542221069336 C-49.59088134765625,-53.3944091796875 -47.328880310058594,-56.30740737915039 -47.116878509521484,-62.70840835571289 C-46.776878356933594,-72.9734115600586 -31.639930725097656,-93.3209457397461 -5.03593111038208,-77.65594482421875 C6.718068599700928,-91.68294525146484 29.39380645751953,-92.43930053710938 39.076568603515625,-74.95110321044922 C48.731353759765625,-57.51041030883789 47.382572174072266,-33.813297271728516 45.99309539794922,-27.197538375854492 C44.67564392089844,-20.726530075073242 43.01507568359375,-16.06744384765625 43.90807342529297,-10.860443115234375 C57.70341873168945,2.4959428310394287 64.07295989990234,46.288169860839844 54.36796188354492,65.21317291259766 C41.28996276855469,90.71617126464844 -20.15399169921875,96.50408935546875 -35.77599334716797,81.77508544921875 C-51.39799118041992,67.04608917236328 -56.461273193359375,40.46708297729492 -54.52727127075195,25.29108238220215 C-52.5932731628418,10.115082740783691 -50.90251159667969,2.9961631298065186 -55.068511962890625,-7.864836692810059z"/><path stroke-linecap="round" stroke-linejoin="round" fill-opacity="0" stroke="rgb(1,73,36)" stroke-opacity="1" stroke-width="8" d=" M-55.068511962890625,-7.864836692810059 C-60.71051025390625,-22.57483673095703 -59.39487838745117,-35.391422271728516 -53.1248779296875,-46.90542221069336 C-49.59088134765625,-53.3944091796875 -47.328880310058594,-56.30740737915039 -47.116878509521484,-62.70840835571289 C-46.776878356933594,-72.9734115600586 -31.639930725097656,-93.3209457397461 -5.03593111038208,-77.65594482421875 C6.718068599700928,-91.68294525146484 29.39380645751953,-92.43930053710938 39.076568603515625,-74.95110321044922 C48.731353759765625,-57.51041030883789 47.382572174072266,-33.813297271728516 45.99309539794922,-27.197538375854492 C44.67564392089844,-20.726530075073242 43.01507568359375,-16.06744384765625 43.90807342529297,-10.860443115234375 C57.70341873168945,2.4959428310394287 64.07295989990234,46.288169860839844 54.36796188354492,65.21317291259766 C41.28996276855469,90.71617126464844 -20.15399169921875,96.50408935546875 -35.77599334716797,81.77508544921875 C-51.39799118041992,67.04608917236328 -56.461273193359375,40.46708297729492 -54.52727127075195,25.29108238220215 C-52.5932731628418,10.115082740783691 -50.90251159667969,2.9961631298065186 -55.068511962890625,-7.864836692810059z" fill="none"/></g></g><g style="display: block;" transform="matrix(0.9995131492614746,-0.10459572076797485,0.10462797433137894,0.9895131587982178,290.25067138671875,354.2732849121094)" opacity="1"><g opacity="1" transform="matrix(1,0,0,1,47.98500061035156,-33.75)"><path fill="rgb(0,163,84)" fill-opacity="1" d=" M-12.276000022888184,-13.505999565124512 C7.747000217437744,-15.060999870300293 14.810999870300293,1.600000023841858 8.723999977111816,11.434000015258789 C4.420000076293945,18.38599967956543 -14.395999908447266,22.41200065612793 -14.395999908447266,22.41200065612793"/><path stroke-linecap="round" stroke-linejoin="round" fill-opacity="0" stroke="rgb(1,73,36)" stroke-opacity="1" stroke-width="8" d=" M-12.276000022888184,-13.505999565124512 C7.747000217437744,-15.060999870300293 14.810999870300293,1.600000023841858 8.723999977111816,11.434000015258789 C4.420000076293945,18.38599967956543 -14.395999908447266,22.41200065612793 -14.395999908447266,22.41200065612793" fill="none"/></g></g><g style="display: block;" transform="matrix(1.00496244430542,0.0038268952630460262,-0.004884257912635803,0.9950185418128967,282.46368408203125,359.37738037109375)" opacity="1"><g opacity="0.1" transform="matrix(1,0,0,1,28.863000869750977,10.663999557495117)"><path stroke-linecap="round" stroke-linejoin="round" fill-opacity="0" stroke="rgb(181,255,160)" stroke-opacity="1" stroke-width="3.981" d=" M-0.027278779074549675,0.011919721961021423" fill="none"/></g><g opacity="1" transform="matrix(1,0,0,1,-16.937999725341797,-81.87300109863281)"><path stroke-linecap="round" stroke-linejoin="round" fill-opacity="0" stroke="rgb(22,70,81)" stroke-opacity="1" stroke-width="15" d=" M-19.9790096282959,0.8375493288040161 C-21.10051727294922,6.842568397521973 -13.604674339294434,17.44698143005371 3.7102198600769043,15.757068634033203 C21.025114059448242,14.067155838012695 21.03687286376953,-1.544484257698059 19.337434768676758,-6.228663921356201 C17.637998580932617,-10.912843704223633 10.689188957214355,-17.58893394470215 0.6119226813316345,-15.609570503234863 C-9.465343475341797,-13.630206108093262 -18.839427947998047,-5.264444828033447 -19.9790096282959,0.8375493288040161z" fill="none"/><path fill="rgb(255,255,255)" fill-opacity="1" d=" M-19.9790096282959,0.8375493288040161 C-21.10051727294922,6.842568397521973 -13.604674339294434,17.44698143005371 3.7102198600769043,15.757068634033203 C21.025114059448242,14.067155838012695 21.03687286376953,-1.544484257698059 19.337434768676758,-6.228663921356201 C17.637998580932617,-10.912843704223633 10.689188957214355,-17.58893394470215 0.6119226813316345,-15.609570503234863 C-9.465343475341797,-13.630206108093262 -18.839427947998047,-5.264444828033447 -19.9790096282959,0.8375493288040161z"/></g><g opacity="1" transform="matrix(1,0,0,1,26.027000427246094,-90.05400085449219)"><path stroke-linecap="round" stroke-linejoin="round" fill-opacity="0" stroke="rgb(22,70,81)" stroke-opacity="1" stroke-width="15" d=" M-15.351287841796875,-0.5782817602157593 C-16.4532470703125,5.29968786239624 -9.838411331176758,16.872777938842773 7.063882350921631,14.443610191345215 C16.676788330078125,13.062469482421875 16.269237518310547,0.6984325647354126 14.601678848266602,-3.8878090381622314 C12.934120178222656,-8.474050521850586 7.367527961730957,-15.840409278869629 -0.01629435457289219,-14.596455574035645 C-9.956317901611328,-12.921587944030762 -14.232192039489746,-6.551226615905762 -15.351287841796875,-0.5782817602157593z" fill="none"/><path fill="rgb(255,255,255)" fill-opacity="1" d=" M-15.351287841796875,-0.5782817602157593 C-16.4532470703125,5.29968786239624 -9.838411331176758,16.872777938842773 7.063882350921631,14.443610191345215 C16.676788330078125,13.062469482421875 16.269237518310547,0.6984325647354126 14.601678848266602,-3.8878090381622314 C12.934120178222656,-8.474050521850586 7.367527961730957,-15.840409278869629 -0.01629435457289219,-14.596455574035645 C-9.956317901611328,-12.921587944030762 -14.232192039489746,-6.551226615905762 -15.351287841796875,-0.5782817602157593z"/></g><g opacity="1" transform="matrix(1,0,0,1,1.4600000381469727,-55.53300094604492)"><path fill="rgb(255,0,0)" fill-opacity="1" d=" M-40.101417541503906,3.0681519508361816 C-40.40272903442383,-4.886922359466553 -35.25542449951172,-7.776501178741455 -23.549320220947266,-6.045087814331055 C-9.818387985229492,-4.014730453491211 22.219362258911133,-8.508243560791016 31.240489959716797,-15.16082763671875 C37.095069885253906,-19.466386795043945 40.88669967651367,-11.422523498535156 40.14643859863281,-5.103176116943359 C39.855934143066406,-2.6078734397888184 38.53470993041992,3.633413314819336 32.758270263671875,6.842694282531738 C26.981830596923828,10.051987648010254 -4.288879871368408,18.502653121948242 -30.996463775634766,15.937273979187012 C-39.41301727294922,15.128375053405762 -39.95915603637695,6.8311767578125 -40.101417541503906,3.0681519508361816z"/><path stroke-linecap="round" stroke-linejoin="round" fill-opacity="0" stroke="rgb(141,0,24)" stroke-opacity="1" stroke-width="8" d=" M-40.101417541503906,3.0681519508361816 C-40.40272903442383,-4.886922359466553 -35.25542449951172,-7.776501178741455 -23.549320220947266,-6.045087814331055 C-9.818387985229492,-4.014730453491211 22.219362258911133,-8.508243560791016 31.240489959716797,-15.16082763671875 C37.095069885253906,-19.466386795043945 40.88669967651367,-11.422523498535156 40.14643859863281,-5.103176116943359 C39.855934143066406,-2.6078734397888184 38.53470993041992,3.633413314819336 32.758270263671875,6.842694282531738 C26.981830596923828,10.051987648010254 -4.288879871368408,18.502653121948242 -30.996463775634766,15.937273979187012 C-39.41301727294922,15.128375053405762 -39.95915603637695,6.8311767578125 -40.101417541503906,3.0681519508361816z" fill="none"/></g><g opacity="1" transform="matrix(1,0,0,1,4.794000148773193,-57.78200149536133)"><path fill="rgb(255,0,0)" fill-opacity="1" d=" M-36.09192657470703,6.304553985595703 C-21.51172637939453,9.926283836364746 30.293249130249023,4.595305442810059 36.16431427001953,-7.347495079040527"/><path stroke-linecap="round" stroke-linejoin="round" fill-opacity="0" stroke="rgb(141,0,24)" stroke-opacity="1" stroke-width="3.981" d=" M-36.09192657470703,6.304553985595703 C-21.51172637939453,9.926283836364746 30.293249130249023,4.595305442810059 36.16431427001953,-7.347495079040527" fill="none"/></g><g opacity="1" transform="matrix(1,0,0,1,0,0)"><g opacity="1" transform="matrix(0,-1,1,0,-19.12299919128418,-81.8030014038086)"><path stroke-linecap="butt" stroke-linejoin="miter" fill-opacity="0" stroke-miterlimit="4" stroke="rgb(22,70,81)" stroke-opacity="1" stroke-width="1" d=" M0.028594914823770523,-14.032487869262695 C7.767421245574951,-14.026652336120605 14.037553787231445,-7.7470831871032715 14.031718254089355,-0.008256890811026096 C14.025882720947266,7.730569362640381 7.74630069732666,14.000689506530762 0.007474658545106649,13.994853973388672 C-7.731351375579834,13.989018440246582 -14.001471519470215,7.70944881439209 -13.995635986328125,-0.029377147555351257 C-13.989800453186035,-7.768203258514404 -7.710231304168701,-14.038323402404785 0.028594914823770523,-14.032487869262695z" fill="none"/><path fill="rgb(22,70,81)" fill-opacity="1" d=" M0.028594914823770523,-14.032487869262695 C7.767421245574951,-14.026652336120605 14.037553787231445,-7.7470831871032715 14.031718254089355,-0.008256890811026096 C14.025882720947266,7.730569362640381 7.74630069732666,14.000689506530762 0.007474658545106649,13.994853973388672 C-7.731351375579834,13.989018440246582 -14.001471519470215,7.70944881439209 -13.995635986328125,-0.029377147555351257 C-13.989800453186035,-7.768203258514404 -7.710231304168701,-14.038323402404785 0.028594914823770523,-14.032487869262695z"/></g><g opacity="1" transform="matrix(0.8660253882408142,0.5,-0.5,0.8660253882408142,-14.390000343322754,-79.06999969482422)"><path fill="rgb(255,255,255)" fill-opacity="1" d=" M-0.023019962012767792,-3.2080237865448 C-1.793982744216919,-3.209352493286133 -3.2300381660461426,-1.7754698991775513 -3.2313666343688965,-0.004507144913077354 C-3.2326951026916504,1.7664556503295898 -1.7988126277923584,3.2025110721588135 -0.02784993313252926,3.2038395404815674 C1.7431128025054932,3.2051680088043213 3.179168224334717,1.7712855339050293 3.1804966926574707,0.00032282579923048615 C3.1818253993988037,-1.7706398963928223 1.7479428052902222,-3.206695318222046 -0.023019962012767792,-3.2080237865448z"/><path stroke-linecap="butt" stroke-linejoin="miter" fill-opacity="0" stroke-miterlimit="4" stroke="rgb(22,70,81)" stroke-opacity="1" stroke-width="1" d=" M-0.023019962012767792,-3.2080237865448 C-1.793982744216919,-3.209352493286133 -3.2300381660461426,-1.7754698991775513 -3.2313666343688965,-0.004507144913077354 C-3.2326951026916504,1.7664556503295898 -1.7988126277923584,3.2025110721588135 -0.02784993313252926,3.2038395404815674 C1.7431128025054932,3.2051680088043213 3.179168224334717,1.7712855339050293 3.1804966926574707,0.00032282579923048615 C3.1818253993988037,-1.7706398963928223 1.7479428052902222,-3.206695318222046 -0.023019962012767792,-3.2080237865448z" fill="none"/></g><g opacity="1" transform="matrix(-1,0,0,-1,-19.12299919128418,-87.26799774169922)"><path fill="rgb(255,255,255)" fill-opacity="1" d=" M0.017109766602516174,-3.188021183013916 C-1.7538529634475708,-3.18934965133667 -3.189908266067505,-1.7554670572280884 -3.191236972808838,0.015495638363063335 C-3.192565441131592,1.7864583730697632 -1.7586829662322998,3.2225136756896973 0.012279796414077282,3.2238423824310303 C1.7832425832748413,3.225170850753784 3.2192978858947754,1.7912883758544922 3.2206265926361084,0.020325608551502228 C3.2219550609588623,-1.750637173652649 1.7880724668502808,-3.186692476272583 0.017109766602516174,-3.188021183013916z"/><path stroke-linecap="butt" stroke-linejoin="miter" fill-opacity="0" stroke-miterlimit="4" stroke="rgb(22,70,81)" stroke-opacity="1" stroke-width="1" d=" M0.017109766602516174,-3.188021183013916 C-1.7538529634475708,-3.18934965133667 -3.189908266067505,-1.7554670572280884 -3.191236972808838,0.015495638363063335 C-3.192565441131592,1.7864583730697632 -1.7586829662322998,3.2225136756896973 0.012279796414077282,3.2238423824310303 C1.7832425832748413,3.225170850753784 3.2192978858947754,1.7912883758544922 3.2206265926361084,0.020325608551502228 C3.2219550609588623,-1.750637173652649 1.7880724668502808,-3.186692476272583 0.017109766602516174,-3.188021183013916z" fill="none"/></g><g opacity="1" transform="matrix(0.5,0.8660253882408142,-0.8660253882408142,0.5,-23.856000900268555,-79.06999969482422)"><path fill="rgb(255,255,255)" fill-opacity="1" d=" M-0.026732459664344788,-3.1987860202789307 C-1.7976951599121094,-3.2001147270202637 -3.233750581741333,-1.7662321329116821 -3.235079050064087,0.004730639513581991 C-3.23640775680542,1.775693416595459 -1.8025251626968384,3.2117488384246826 -0.031562428921461105,3.2130773067474365 C1.7394002676010132,3.2144057750701904 3.1754558086395264,1.780523419380188 3.1767842769622803,0.009560610167682171 C3.178112745285034,-1.7614021301269531 1.7442302703857422,-3.1974575519561768 -0.026732459664344788,-3.1987860202789307z"/><path stroke-linecap="butt" stroke-linejoin="miter" fill-opacity="0" stroke-miterlimit="4" stroke="rgb(22,70,81)" stroke-opacity="1" stroke-width="1" d=" M-0.026732459664344788,-3.1987860202789307 C-1.7976951599121094,-3.2001147270202637 -3.233750581741333,-1.7662321329116821 -3.235079050064087,0.004730639513581991 C-3.23640775680542,1.775693416595459 -1.8025251626968384,3.2117488384246826 -0.031562428921461105,3.2130773067474365 C1.7394002676010132,3.2144057750701904 3.1754558086395264,1.780523419380188 3.1767842769622803,0.009560610167682171 C3.178112745285034,-1.7614021301269531 1.7442302703857422,-3.1974575519561768 -0.026732459664344788,-3.1987860202789307z" fill="none"/></g></g><g opacity="1" transform="matrix(1,0,0,1,0,0)"><g opacity="1" transform="matrix(1,0,0,1,30.136999130249023,-90.76499938964844)"><path fill="rgb(22,70,81)" fill-opacity="1" d=" M1.09610116481781,-13.993003845214844 C0.5632196068763733,-13.993426322937012 -2.112213134765625,-13.9535493850708 -2.627119541168213,-13.873958587646484 C-8.452449798583984,-12.971590042114258 -12.952642440795898,-7.101277828216553 -12.958440780639648,0.009548193775117397 C-12.964240074157715,7.11337423324585 -8.482657432556152,12.985776901245117 -2.6678290367126465,13.906357765197754 C-2.1480343341827393,13.988767623901367 0.5343362092971802,14.033890724182129 1.0732301473617554,14.034313201904297 C7.641044616699219,14.039515495300293 12.969926834106445,7.768873691558838 12.976245880126953,0.030060047283768654 C12.982565879821777,-7.70875358581543 7.663915634155273,-13.987801551818848 1.09610116481781,-13.993003845214844z"/></g><g opacity="1" transform="matrix(1,0,0,1,34.52399826049805,-87.90799713134766)"><path fill="rgb(255,255,255)" fill-opacity="1" d=" M2.1504011154174805,1.5759196281433105 C1.4672348499298096,3.059323787689209 -0.043383996933698654,3.5670695304870605 -1.2229293584823608,2.7091259956359863 C-2.4024746417999268,1.8511823415756226 -2.8059656620025635,-0.04609082266688347 -2.1227993965148926,-1.5294948816299438 C-1.4396332502365112,-3.0128989219665527 0.07098560035228729,-3.5206449031829834 1.2505309581756592,-2.66270112991333 C2.4300763607025146,-1.8047574758529663 2.8335671424865723,0.09251565486192703 2.1504011154174805,1.5759196281433105z"/><path stroke-linecap="butt" stroke-linejoin="miter" fill-opacity="0" stroke-miterlimit="4" stroke="rgb(22,70,81)" stroke-opacity="1" stroke-width="1" d=" M2.1504011154174805,1.5759196281433105 C1.4672348499298096,3.059323787689209 -0.043383996933698654,3.5670695304870605 -1.2229293584823608,2.7091259956359863 C-2.4024746417999268,1.8511823415756226 -2.8059656620025635,-0.04609082266688347 -2.1227993965148926,-1.5294948816299438 C-1.4396332502365112,-3.0128989219665527 0.07098560035228729,-3.5206449031829834 1.2505309581756592,-2.66270112991333 C2.4300763607025146,-1.8047574758529663 2.8335671424865723,0.09251565486192703 2.1504011154174805,1.5759196281433105z" fill="none"/></g><g opacity="1" transform="matrix(-1,0,0,-1,30.99799919128418,-96.2300033569336)"><path fill="rgb(255,255,255)" fill-opacity="1" d=" M-0.008381053805351257,-3.2264621257781982 C-1.5125529766082764,-3.227691411972046 -2.733184337615967,-1.7937095165252686 -2.734699010848999,-0.022759217768907547 C-2.7362139225006104,1.7481911182403564 -1.5180658102035522,3.184159517288208 -0.013893925584852695,3.1853888034820557 C1.4902780055999756,3.1866180896759033 2.710909366607666,1.752636194229126 2.7124240398406982,-0.01831415481865406 C2.7139389514923096,-1.789264440536499 1.4958032369613647,-3.2252330780029297 -0.008381053805351257,-3.2264621257781982z"/><path stroke-linecap="butt" stroke-linejoin="miter" fill-opacity="0" stroke-miterlimit="4" stroke="rgb(22,70,81)" stroke-opacity="1" stroke-width="1" d=" M-0.008381053805351257,-3.2264621257781982 C-1.5125529766082764,-3.227691411972046 -2.733184337615967,-1.7937095165252686 -2.734699010848999,-0.022759217768907547 C-2.7362139225006104,1.7481911182403564 -1.5180658102035522,3.184159517288208 -0.013893925584852695,3.1853888034820557 C1.4902780055999756,3.1866180896759033 2.710909366607666,1.752636194229126 2.7124240398406982,-0.01831415481865406 C2.7139389514923096,-1.789264440536499 1.4958032369613647,-3.2252330780029297 -0.008381053805351257,-3.2264621257781982z" fill="none"/></g><g opacity="1" transform="matrix(1,0,0,1,27.201000213623047,-88.03299713134766)"><path fill="rgb(255,255,255)" fill-opacity="1" d=" M1.3529341220855713,2.7952520847320557 C0.049551136791706085,3.6791718006134033 -1.6166207790374756,3.152818441390991 -2.3673906326293945,1.6182472705841064 C-3.1181604862213135,0.08367615938186646 -2.669255018234253,-1.876901626586914 -1.3658720254898071,-2.7608213424682617 C-0.06248900294303894,-3.6447412967681885 1.602695345878601,-3.1183879375457764 2.3534650802612305,-1.583816647529602 C3.1042349338531494,-0.04924554377794266 2.6563169956207275,1.9113322496414185 1.3529341220855713,2.7952520847320557z"/><path stroke-linecap="butt" stroke-linejoin="miter" fill-opacity="0" stroke-miterlimit="4" stroke="rgb(22,70,81)" stroke-opacity="1" stroke-width="1" d=" M1.3529341220855713,2.7952520847320557 C0.049551136791706085,3.6791718006134033 -1.6166207790374756,3.152818441390991 -2.3673906326293945,1.6182472705841064 C-3.1181604862213135,0.08367615938186646 -2.669255018234253,-1.876901626586914 -1.3658720254898071,-2.7608213424682617 C-0.06248900294303894,-3.6447412967681885 1.602695345878601,-3.1183879375457764 2.3534650802612305,-1.583816647529602 C3.1042349338531494,-0.04924554377794266 2.6563169956207275,1.9113322496414185 1.3529341220855713,2.7952520847320557z" fill="none"/></g></g></g><g style="display: block;" transform="matrix(0.9995131492614746,-0.10459572076797485,0.10462797433137894,0.9895131587982178,289.72686767578125,349.3097839355469)" opacity="1"><g opacity="1" transform="matrix(1,0,0,1,16.365999221801758,-3.2170000076293945)"><path fill="rgb(255,51,211)" fill-opacity="1" d=" M-0.08222579210996628,37.77320861816406 C-27.819225311279297,31.579206466674805 -41.5842399597168,4.022206783294678 -33.11323928833008,-8.661792755126953 C-24.64223861694336,-21.345792770385742 -9.279237747192383,-14.933793067932129 -5.833238124847412,-10.473793029785156 C2.4947617053985596,-25.94579315185547 15.39376163482666,-21.05579376220703 19.987762451171875,-12.134793281555176 C24.581762313842773,-3.2137930393218994 25.474773406982422,20.211206436157227 -0.08222579210996628,37.77320861816406z"/><path stroke-linecap="round" stroke-linejoin="round" fill-opacity="0" stroke="rgb(195,0,153)" stroke-opacity="1" stroke-width="8" d=" M-0.08222579210996628,37.77320861816406 C-27.819225311279297,31.579206466674805 -41.5842399597168,4.022206783294678 -33.11323928833008,-8.661792755126953 C-24.64223861694336,-21.345792770385742 -9.279237747192383,-14.933793067932129 -5.833238124847412,-10.473793029785156 C2.4947617053985596,-25.94579315185547 15.39376163482666,-21.05579376220703 19.987762451171875,-12.134793281555176 C24.581762313842773,-3.2137930393218994 25.474773406982422,20.211206436157227 -0.08222579210996628,37.77320861816406z" fill="none"/></g><g opacity="1" transform="matrix(1,0,0,1,-5.915999889373779,-0.8809999823570251)"><path fill="rgb(0,163,84)" fill-opacity="1" d=" M-35.790550231933594,-2.37668514251709 C-14.189841270446777,20.151161193847656 8.612918853759766,21.09332275390625 31.175872802734375,18.460800170898438 C43.16484832763672,17.06231689453125 43.0812873840332,2.290689706802368 34.77652359008789,2.70890736579895 C19.881086349487305,3.458458185195923 -6.5040998458862305,1.102164626121521 -22.797332763671875,-14.940040588378906 C-32.87356948852539,-24.86051368713379 -41.6397705078125,-8.477153778076172 -35.790550231933594,-2.37668514251709z"/><path stroke-linecap="round" stroke-linejoin="round" fill-opacity="0" stroke="rgb(1,73,36)" stroke-opacity="1" stroke-width="8" d=" M-35.790550231933594,-2.37668514251709 C-14.189841270446777,20.151161193847656 8.612918853759766,21.09332275390625 31.175872802734375,18.460800170898438 C43.16484832763672,17.06231689453125 43.0812873840332,2.290689706802368 34.77652359008789,2.70890736579895 C19.881086349487305,3.458458185195923 -6.5040998458862305,1.102164626121521 -22.797332763671875,-14.940040588378906 C-32.87356948852539,-24.86051368713379 -41.6397705078125,-8.477153778076172 -35.790550231933594,-2.37668514251709z" fill="none"/></g><g opacity="1" transform="matrix(1,0,0,1,33.22800064086914,-14.428999900817871)"><path fill="rgb(0,163,84)" fill-opacity="1" d=" M9.843896865844727,-18.243879318237305 C14.524247169494629,-4.3697004318237305 -17.099239349365234,16.92473030090332 -24.83523941040039,16.92473030090332 C-32.57123947143555,16.92473030090332 -34.56825256347656,32.39173126220703 -22.018251419067383,31.875730514526367 C-9.46825122833252,31.359729766845703 7.627579689025879,19.393260955810547 15.358678817749023,7.517248630523682 C20.157642364501953,0.16634391248226166 23.563138961791992,-11.991137504577637 23.563138961791992,-11.991137504577637"/><path stroke-linecap="round" stroke-linejoin="round" fill-opacity="0" stroke="rgb(1,73,36)" stroke-opacity="1" stroke-width="8" d=" M9.843896865844727,-18.243879318237305 C14.524247169494629,-4.3697004318237305 -17.099239349365234,16.92473030090332 -24.83523941040039,16.92473030090332 C-32.57123947143555,16.92473030090332 -34.56825256347656,32.39173126220703 -22.018251419067383,31.875730514526367 C-9.46825122833252,31.359729766845703 7.627579689025879,19.393260955810547 15.358678817749023,7.517248630523682 C20.157642364501953,0.16634391248226166 23.563138961791992,-11.991137504577637 23.563138961791992,-11.991137504577637" fill="none"/></g></g><g style="display: block;" transform="matrix(0.9947027564048767,0.1406908929347992,-0.14311489462852478,0.9850582480430603,275.05865478515625,283.4236755371094)" opacity="1"><g opacity="1" transform="matrix(1,0,0,1,0,0)"><g opacity="1" transform="matrix(1,0,0,1,0,0)"><path stroke-linecap="round" stroke-linejoin="round" fill-opacity="0" stroke-dasharray=" 2 7" stroke-dashoffset="0" stroke="rgb(250,144,22)" stroke-opacity="1" stroke-width="10" d=" M-74.03903198242188,125.69588470458984 C-8.330243110656738,144.270263671875 53.46122741699219,121.69474792480469 46.08522415161133,109.47074890136719 C38.37422561645508,96.6917495727539 -71.30743408203125,80.57928466796875 -125.41000366210938,40.922000885009766" fill="none"/><path fill="rgb(255,213,39)" fill-opacity="1" d=" M-74.03903198242188,125.69588470458984 C-8.330243110656738,144.270263671875 53.46122741699219,121.69474792480469 46.08522415161133,109.47074890136719 C38.37422561645508,96.6917495727539 -71.30743408203125,80.57928466796875 -125.41000366210938,40.922000885009766"/><path stroke-linecap="round" stroke-linejoin="round" fill-opacity="0" stroke="rgb(250,144,22)" stroke-opacity="1" stroke-width="10" d=" M-74.03903198242188,125.69588470458984 C-8.330243110656738,144.270263671875 53.46122741699219,121.69474792480469 46.08522415161133,109.47074890136719 C38.37422561645508,96.6917495727539 -71.30743408203125,80.57928466796875 -125.41000366210938,40.922000885009766" fill="none"/><path stroke-linecap="round" stroke-linejoin="round" fill-opacity="0" stroke-dasharray=" 2 7" stroke-dashoffset="0" stroke="rgb(250,144,22)" stroke-opacity="1" stroke-width="10" d=" M-74.03903198242188,125.69588470458984 C-8.330243110656738,144.270263671875 53.46122741699219,121.69474792480469 46.08522415161133,109.47074890136719 C38.37422561645508,96.6917495727539 -71.30743408203125,80.57928466796875 -125.41000366210938,40.922000885009766" fill="none"/></g></g></g><g style="display: block;" transform="matrix(0.9238489866256714,0.3908640742301941,-0.395638644695282,0.9150133728981018,275.63818359375,411.651611328125)" opacity="1"><g opacity="1" transform="matrix(1,0,0,1,-105.52300262451172,-19.874000549316406)"><path stroke-linecap="round" stroke-linejoin="round" fill-opacity="0" stroke="rgb(255,255,255)" stroke-opacity="1" stroke-width="8" d=" M6.050000190734863,4.5929999351501465 C-10.50100040435791,2.867000102996826 -35.0880012512207,1.875 -50.3849983215332,-6.421000003814697" fill="none"/></g></g><g style="display: block;" transform="matrix(0.9580298066139221,-0.30142396688461304,0.3034845292568207,0.9482977986335754,252.44277954101562,302.7137756347656)" opacity="1"><g opacity="1" transform="matrix(1,0,0,1,0,0)"><g opacity="1" transform="matrix(1,0,0,1,0,0)"><path fill="rgb(255,213,39)" fill-opacity="1" d=" M80.5501708984375,13.160524368286133 C62.27341079711914,53.15986251831055 23.761690139770508,90.48242950439453 30.69116973876953,96.2428970336914 C48.32050704956055,110.87960052490234 83.18130493164062,92.81990814208984 99.18914031982422,51.15911102294922 C106.89299774169922,31.200000762939453 108.17900085449219,13.425000190734863 106.16100311279297,-1.718000054359436"/><path stroke-linecap="round" stroke-linejoin="round" fill-opacity="0" stroke="rgb(250,144,22)" stroke-opacity="1" stroke-width="10" d=" M80.5501708984375,13.160524368286133 C62.27341079711914,53.15986251831055 23.761690139770508,90.48242950439453 30.69116973876953,96.2428970336914 C48.32050704956055,110.87960052490234 83.18130493164062,92.81990814208984 99.18914031982422,51.15911102294922 C106.89299774169922,31.200000762939453 108.17900085449219,13.425000190734863 106.16100311279297,-1.718000054359436" fill="none"/><path stroke-linecap="round" stroke-linejoin="round" fill-opacity="0" stroke-dasharray=" 2 7" stroke-dashoffset="0" stroke="rgb(250,144,22)" stroke-opacity="1" stroke-width="10" d=" M80.5501708984375,13.160524368286133 C62.27341079711914,53.15986251831055 23.761690139770508,90.48242950439453 30.69116973876953,96.2428970336914 C48.32050704956055,110.87960052490234 83.18130493164062,92.81990814208984 99.18914031982422,51.15911102294922 C106.89299774169922,31.200000762939453 108.17900085449219,13.425000190734863 106.16100311279297,-1.718000054359436" fill="none"/></g></g></g><g style="display: block;" transform="matrix(1.0040128231048584,-0.045736655592918396,0.04520108550786972,0.993919312953949,448.03839111328125,350.7012939453125)" opacity="1"><g opacity="1" transform="matrix(1,0,0,1,-105.52300262451172,-19.874000549316406)"><path stroke-linecap="round" stroke-linejoin="round" fill-opacity="0" stroke="rgb(255,255,255)" stroke-opacity="1" stroke-width="8" d=" M-4.571000099182129,-1.934999942779541 C-8.065999984741211,7.2230000495910645 -13.38599967956543,19.21299934387207 -18.17099952697754,30.308000564575195" fill="none"/></g></g></g></svg>